{"glyphs":{"0":{"ha":715,"x_min":-25,"x_max":710,"o":"m 477 707 l 177 694 l 196 375 l 483 365 l 477 707 m -23 503 q 2 700 -25 605 q 77 863 27 791 q 191 975 125 934 q 332 1020 258 1017 q 475 987 406 1023 q 593 885 542 952 q 675 729 646 818 q 708 535 706 637 q 684 339 710 433 q 608 176 657 248 q 494 64 559 105 q 353 18 427 22 q 210 52 279 15 q 92 153 143 87 q 10 310 39 220 q -23 503 -21 401 "},"1":{"ha":716,"x_min":9,"x_max":715,"o":"m 694 278 l 715 108 l 186 -28 l 147 190 l 332 213 l 267 661 l 122 536 l 9 663 l 196 901 l 477 966 l 590 271 l 694 278 "},"2":{"ha":716,"x_min":-56,"x_max":759,"o":"m 90 -29 l 121 264 q 165 315 152 299 q 182 337 174 326 q 205 366 195 352 q 249 439 232 405 q 258 587 297 536 q 183 602 234 616 q 141 587 164 597 q 123 578 133 583 q 107 569 116 574 q 39 519 71 549 l -56 796 q -29 814 -45 806 q -16 822 -23 819 l -9 825 l -3 828 q 210 886 94 874 q 410 854 324 897 q 553 685 510 803 q 488 280 620 500 l 733 292 l 759 44 l 90 -29 "},"3":{"ha":716,"x_min":50,"x_max":703,"o":"m 668 163 q 410 -45 587 -26 q 141 -4 324 -55 q 96 8 112 4 q 50 20 71 15 l 119 288 q 170 275 142 283 l 193 269 l 217 262 q 389 239 330 231 q 454 281 437 245 q 454 294 456 286 q 450 307 453 300 q 436 321 445 314 q 221 349 386 359 l 234 531 q 236 531 234 531 l 239 531 l 242 530 q 251 530 246 530 q 262 529 256 529 q 288 530 276 528 q 317 534 304 530 q 360 632 392 552 q 208 677 334 699 q 89 642 146 667 l 123 916 q 184 917 136 916 l 197 918 l 211 918 q 240 918 227 918 q 300 918 273 919 q 425 905 371 916 q 624 777 568 875 q 637 578 680 680 q 579 490 618 532 q 678 333 654 421 q 668 163 703 244 "},"4":{"ha":716,"x_min":-48,"x_max":779,"o":"m 336 597 l 349 684 l 242 696 l 245 597 l 336 597 m 779 500 l 747 235 l 555 261 l 527 -68 l 262 -37 l 291 305 l -48 359 l -28 632 l 290 943 l 620 910 l 583 523 l 779 500 "},"5":{"ha":716,"x_min":-30,"x_max":762,"o":"m 142 964 l 616 1016 q 631 796 621 987 q 366 762 372 781 l 365 759 l 363 756 q 361 749 362 752 q 357 733 359 740 q 353 705 351 712 q 671 619 557 713 q 758 435 753 551 q 708 229 762 336 q 588 73 659 132 q 417 -3 510 7 q 128 21 267 -21 q -30 105 12 56 q 35 314 -15 130 q 163 287 106 294 q 300 284 243 275 q 446 466 452 307 q 382 540 443 519 q 248 550 332 556 q 56 517 152 543 q 94 738 74 627 q 142 964 132 959 "},"6":{"ha":716,"x_min":-1,"x_max":756,"o":"m 516 120 l 530 406 l 319 425 l 277 127 l 516 120 m 463 663 q 669 536 587 633 q 755 307 752 436 q 728 162 756 232 q 650 43 701 96 q 530 -37 598 -9 q 385 -69 461 -68 q 237 -42 308 -71 q 115 35 168 -15 q 32 153 62 86 q -1 296 1 220 q 11 395 -1 347 q 53 528 26 463 q 148 686 91 616 q 579 922 302 878 l 610 758 q 463 663 526 728 "},"7":{"ha":716,"x_min":24,"x_max":683,"o":"m 24 930 l 83 630 l 323 621 l 235 79 l 498 27 l 683 939 l 24 930 "},"8":{"ha":716,"x_min":-18,"x_max":760,"o":"m 254 63 l 513 54 l 504 239 l 307 239 l 254 63 m 544 679 l 328 699 l 332 593 l 513 581 l 544 679 m 607 463 q 718 333 677 410 q 760 163 760 252 q 728 16 760 85 q 646 -104 699 -52 q 371 -216 532 -216 q 220 -186 292 -216 q 96 -104 150 -157 q 13 16 42 -52 q -18 163 -18 85 q 55 383 -18 284 q 241 519 127 479 q 200 644 200 576 q 274 806 200 739 q 454 872 349 872 q 633 806 559 872 q 707 644 707 739 q 680 541 707 590 q 607 463 654 494 "},"9":{"ha":716,"x_min":-11,"x_max":700,"o":"m 238 584 l 452 545 l 462 788 l 241 740 l 238 584 m 357 989 q 552 940 470 993 q 664 804 626 892 q 697 627 700 724 q 656 446 695 530 q 300 117 558 237 q 254 98 293 113 q 170 67 212 82 q 52 31 52 24 q 47 182 52 32 q 124 213 81 191 q 252 319 210 257 q 63 433 136 343 q -7 642 -11 523 q 25 774 -5 711 q 104 884 54 836 q 357 989 211 985 "},"\u0000":{"ha":0,"x_min":0,"x_max":0,"o":""}," ":{"ha":241,"x_min":0,"x_max":0,"o":""},"!":{"ha":292,"x_min":13,"x_max":297,"o":"m 297 966 l 205 339 l 75 347 l 45 966 l 297 966 m 214 256 l 233 20 l 13 66 l 50 277 l 214 256 "},"\"":{"ha":340,"x_min":-47,"x_max":448,"o":"m 170 1103 l 155 821 l -22 835 l -47 1098 l 170 1103 m 448 1130 l 401 880 l 243 853 l 210 1122 l 448 1130 "},"#":{"ha":745,"x_min":-1,"x_max":733,"o":"m 32 357 l 141 368 l 153 503 l 12 498 l -1 623 l 163 634 l 186 902 l 339 918 l 304 644 l 476 655 l 500 926 l 698 950 l 648 666 l 728 671 l 733 522 l 622 518 l 604 416 l 699 425 l 707 286 l 579 277 l 543 68 l 425 63 l 442 269 l 254 258 l 227 39 l 111 18 l 131 250 l 24 242 l 32 357 m 464 513 l 286 507 l 271 381 l 454 400 l 464 513 "},"$":{"ha":612,"x_min":5,"x_max":623,"o":"m 597 368 q 608 258 623 320 q 553 158 595 210 q 467 83 517 113 q 325 38 405 47 l 314 -60 l 156 -21 l 167 45 q 5 90 90 58 q 58 264 58 264 q 77 245 56 259 q 93 235 84 240 q 99 231 96 233 l 101 230 l 102 229 l 102 229 q 191 204 140 208 q 279 221 244 200 q 305 259 300 233 q 295 303 310 285 q 248 333 281 321 q 220 342 238 336 l 205 346 q 193 351 198 349 q 124 385 159 361 q 42 491 54 431 q 47 599 28 541 q 245 748 83 714 l 264 865 l 417 842 l 406 745 q 501 690 463 728 q 565 565 551 642 q 371 528 372 528 q 371 534 372 528 q 368 550 370 541 q 347 591 360 573 q 309 621 330 615 q 250 608 281 629 q 240 572 228 593 q 254 555 245 564 q 271 541 261 548 q 361 503 302 517 l 385 496 l 410 490 q 456 475 438 483 q 597 368 562 433 "},"%":{"ha":808,"x_min":-16,"x_max":842,"o":"m 548 909 l 695 865 l 280 50 l 178 146 l 548 909 m 134 804 l 124 682 l 239 663 l 252 770 l 134 804 m 1 671 q 28 816 -16 749 q 150 901 72 883 q 295 874 228 918 q 378 753 361 831 q 350 608 393 675 q 228 524 307 541 q 83 550 150 507 q 1 671 16 593 m 673 354 l 553 332 l 574 173 l 680 186 l 673 354 m 453 203 q 480 359 437 287 q 602 450 524 432 q 745 422 678 469 q 826 292 810 376 q 799 135 842 208 q 678 44 755 62 q 535 72 602 26 q 453 203 469 119 "},"&":{"ha":415,"x_min":-1,"x_max":414,"o":"m 211 184 l 199 229 q 39 335 98 237 q 22 433 12 380 q 74 530 31 486 q 32 577 47 551 q 28 693 -1 634 q 90 757 46 732 l 71 836 l 203 878 l 212 791 q 220 793 216 792 q 258 796 237 795 q 277 798 267 797 l 285 798 l 294 798 l 331 801 l 326 659 q 202 624 214 664 q 235 569 186 576 q 253 568 243 568 q 269 569 260 568 q 276 570 273 569 q 282 571 279 570 l 283 572 l 286 572 l 287 572 l 294 459 q 174 439 203 464 q 167 430 169 434 q 164 422 165 426 q 165 415 164 418 q 208 394 178 395 q 315 417 246 392 l 329 422 l 344 427 q 374 437 360 433 l 414 267 q 298 241 334 250 l 298 205 l 211 184 "},"'":{"ha":99,"x_min":-38,"x_max":208,"o":"m 208 1095 l 125 853 l -38 861 l -14 1149 l 208 1095 "},"(":{"ha":397,"x_min":20,"x_max":450,"o":"m 396 89 q 292 212 328 149 q 234 352 256 278 q 213 517 213 426 q 235 682 213 605 q 292 823 257 759 q 372 938 329 888 q 450 1022 416 987 l 283 1075 q 74 795 128 922 q 20 517 20 669 q 74 240 20 366 q 241 -7 128 113 l 396 89 "},")":{"ha":376,"x_min":-67,"x_max":363,"o":"m -14 -3 l 142 -98 q 309 148 254 22 q 363 426 363 275 q 309 704 363 577 q 100 983 254 830 l -67 930 q 10 846 -33 896 q 91 731 54 797 q 148 590 125 667 q 170 426 170 513 q 148 260 170 334 q 91 121 127 186 q -14 -3 55 58 "},"*":{"ha":1264,"x_min":14,"x_max":1249,"o":"m 1041 872 l 1041 872 q 1041 872 1041 872 m 1079 457 q 1122 455 1103 439 q 1148 503 1138 469 q 1156 568 1156 534 q 1147 618 1156 603 q 1120 667 1122 662 q 1130 715 1118 678 q 1127 765 1138 739 q 1098 801 1117 789 q 1105 838 1154 805 q 1065 861 1089 850 q 1049 869 1057 866 q 1041 872 1043 872 q 1053 892 1054 878 q 1037 911 1051 907 q 986 907 1017 918 q 961 897 975 904 q 939 886 951 892 q 895 837 913 872 l 887 821 l 880 806 q 864 775 870 785 q 838 745 857 762 q 821 731 833 741 l 804 716 q 764 647 763 678 q 782 654 771 649 q 792 659 786 656 l 804 665 q 852 686 834 680 q 934 666 914 707 q 903 659 925 663 l 885 655 q 867 650 875 653 q 812 612 823 639 q 775 598 800 609 q 753 588 768 595 l 730 577 q 649 555 671 551 q 673 585 648 559 q 685 597 677 589 l 691 603 l 698 610 q 724 637 713 626 q 749 711 790 710 q 739 674 747 688 q 709 661 729 656 q 719 707 711 684 q 692 685 711 709 q 659 629 676 663 q 635 570 642 595 q 635 536 627 541 q 698 547 649 529 q 744 566 712 553 l 769 576 l 794 587 q 886 609 854 610 q 935 570 928 608 q 890 558 920 556 l 877 559 l 865 561 q 842 559 850 562 q 749 499 785 545 q 769 494 757 496 l 781 492 l 793 489 q 846 475 827 482 q 911 407 907 454 q 897 391 913 389 q 859 407 885 393 l 848 414 l 836 420 q 814 433 821 429 q 782 445 790 446 q 791 425 783 435 l 799 417 l 806 409 q 816 370 825 389 q 790 372 801 364 q 774 394 783 378 l 770 401 l 767 408 q 760 420 763 416 q 739 435 750 433 q 733 409 730 425 q 738 395 734 403 l 741 387 l 744 380 q 755 351 753 360 q 747 327 757 336 q 722 356 728 334 q 718 400 718 369 l 717 412 l 716 423 q 713 445 715 435 q 690 476 707 467 q 670 393 671 456 q 673 343 670 369 q 678 306 675 321 q 691 275 681 293 l 701 259 l 711 243 q 726 178 734 202 q 720 163 724 172 l 713 149 q 703 123 705 132 q 741 94 697 94 q 804 107 774 93 q 840 117 828 119 l 846 117 l 850 116 l 853 115 q 876 112 864 113 q 941 131 907 111 q 984 186 977 153 q 1005 235 991 216 l 1011 243 l 1015 248 l 1019 253 q 1037 279 1029 266 q 1049 363 1059 313 q 1012 441 1041 410 q 987 458 1003 450 q 971 464 980 460 l 956 469 q 905 497 914 483 q 995 498 937 515 q 1079 457 1042 484 m 655 290 l 654 302 q 656 376 651 328 l 659 394 l 660 412 q 660 449 661 433 q 635 449 657 479 q 621 425 629 439 q 616 414 618 419 q 614 409 614 410 q 596 353 604 368 q 555 314 583 326 q 564 353 555 333 q 572 370 567 361 l 581 387 q 592 465 604 429 q 546 429 573 457 l 536 417 l 525 406 q 502 387 512 393 q 480 378 497 384 q 446 370 461 372 q 427 395 402 363 q 489 436 446 419 l 507 444 l 525 450 q 557 467 545 458 q 551 507 600 494 q 532 511 544 509 l 522 513 l 512 514 q 490 522 492 518 q 514 532 493 527 q 533 537 520 534 l 543 540 l 553 542 q 581 573 603 555 q 484 595 555 595 q 427 593 458 595 q 403 590 416 591 q 392 589 397 589 q 382 588 388 588 q 289 541 324 581 q 258 499 275 526 l 252 488 l 244 475 q 228 448 234 458 q 213 390 209 418 q 233 342 216 370 l 240 331 l 248 319 q 262 296 257 306 q 274 243 276 269 q 290 172 270 202 q 346 135 310 140 q 366 131 353 134 l 377 129 l 389 126 q 441 116 421 119 q 526 140 505 109 q 553 158 535 153 q 570 161 559 160 l 578 163 l 587 163 q 621 172 609 167 q 649 199 639 180 q 659 250 660 218 q 656 277 659 261 l 655 290 m 207 672 q 209 627 196 644 q 246 612 220 612 q 241 572 239 579 q 252 575 243 568 l 254 577 l 257 579 l 262 584 q 275 593 269 590 q 309 600 292 604 q 351 602 324 595 l 362 604 l 373 608 q 393 613 387 611 q 431 615 410 616 l 449 614 l 468 612 q 541 616 516 608 q 515 662 534 646 q 476 680 501 673 l 465 682 l 454 684 q 433 688 441 686 q 396 709 409 695 q 447 734 420 736 q 496 711 468 732 q 520 690 505 703 l 532 680 l 544 670 q 589 645 571 648 q 591 682 598 665 q 570 711 587 694 l 564 719 l 557 726 q 547 740 551 734 q 537 774 535 757 q 595 739 570 772 q 614 706 604 725 l 622 689 l 626 681 l 629 673 q 647 756 652 693 l 646 769 l 644 781 q 643 806 643 796 q 646 846 642 832 q 670 809 661 888 q 675 751 673 784 q 675 730 675 739 q 675 720 675 721 q 698 736 689 724 q 705 748 701 741 l 711 760 q 747 800 727 794 q 741 755 739 779 q 763 769 746 759 q 776 778 770 774 l 789 787 q 843 830 823 810 q 876 943 903 889 l 873 949 l 870 955 q 864 967 867 961 q 850 993 857 981 q 814 1044 832 1023 q 718 1092 768 1101 q 699 1089 712 1090 l 693 1089 l 686 1088 l 673 1087 q 612 1078 635 1084 q 556 1003 540 1060 q 545 958 541 967 q 556 946 547 954 l 561 942 q 566 938 564 940 q 578 926 572 932 q 606 852 602 901 q 600 772 610 814 q 583 798 593 781 q 568 826 574 814 q 540 848 554 827 q 515 897 531 862 l 509 911 l 503 924 q 489 949 495 939 q 460 979 474 974 q 436 972 443 985 q 433 959 434 968 l 431 951 l 431 943 q 422 917 429 922 q 393 922 414 909 l 385 928 l 375 934 q 355 945 363 941 q 312 950 331 956 q 296 942 304 947 l 291 937 l 286 931 q 258 920 273 919 q 233 917 241 922 q 224 893 220 910 q 218 865 231 867 l 213 864 q 208 863 210 863 q 199 851 201 860 q 203 842 198 846 q 207 837 204 839 l 212 832 q 224 814 226 821 q 210 803 222 808 l 204 801 l 198 799 q 187 795 191 796 q 189 766 163 785 q 140 754 169 776 q 107 711 115 734 q 142 669 96 673 q 161 669 150 669 q 180 670 168 669 q 207 672 203 672 m 631 1183 q 872 1134 758 1183 q 1068 1002 983 1087 q 1200 806 1154 916 q 1249 565 1249 691 q 1200 325 1249 439 q 1068 129 1154 214 q 872 -3 983 43 q 631 -52 758 -52 q 391 -3 506 -52 q 195 129 281 43 q 63 325 110 214 q 14 565 14 439 q 63 806 14 691 q 195 1002 110 916 q 391 1134 281 1087 q 631 1183 506 1183 "},"+":{"ha":562,"x_min":-9,"x_max":563,"o":"m 206 403 l 208 218 l 391 238 l 389 415 l 563 427 l 547 624 l 385 606 l 382 779 l 203 764 l 205 587 l 14 566 l -9 389 l 206 403 "},",":{"ha":271,"x_min":8,"x_max":255,"o":"m 81 -162 l 115 -40 l 8 -41 l 15 165 l 255 175 l 204 -39 l 145 -153 l 81 -162 "},"-":{"ha":423,"x_min":15,"x_max":406,"o":"m 393 581 l 406 393 l 28 372 l 15 581 l 393 581 "},".":{"ha":291,"x_min":12,"x_max":271,"o":"m 271 -22 l 252 168 l 19 146 l 12 -22 l 271 -22 "},"/":{"ha":426,"x_min":-28,"x_max":488,"o":"m 341 904 l 488 859 l 73 45 l -28 141 l 341 904 "},":":{"ha":294,"x_min":16,"x_max":298,"o":"m 256 713 l 273 530 l 37 496 l 16 693 l 256 713 m 267 327 l 298 130 l 112 71 l 48 312 l 267 327 "},";":{"ha":278,"x_min":25,"x_max":296,"o":"m 296 691 l 283 508 l 44 514 l 57 711 l 296 691 m 140 -4 l 153 97 l 47 83 l 25 331 l 243 309 l 241 109 l 187 -31 l 140 -4 "},"<":{"ha":1287,"x_min":10,"x_max":1292,"o":"m 1187 680 q 1190 662 1185 666 q 1194 661 1191 661 l 1196 661 l 1199 661 q 1206 658 1205 661 q 1204 637 1209 653 l 1210 640 q 1215 644 1213 642 q 1221 654 1220 648 q 1228 647 1227 654 q 1228 640 1228 644 l 1227 634 q 1227 627 1225 628 q 1238 637 1230 627 q 1251 624 1244 634 q 1261 604 1255 617 q 1273 585 1272 581 q 1276 539 1281 575 l 1275 531 l 1274 523 q 1272 505 1272 513 q 1273 465 1270 484 q 1280 471 1278 465 l 1281 476 l 1282 481 q 1282 457 1292 473 q 1255 424 1278 448 q 1237 404 1243 412 q 1221 383 1227 393 q 1204 334 1204 357 q 1180 329 1193 333 l 1168 324 l 1157 319 q 1109 309 1127 308 q 1046 330 1084 309 l 1031 339 l 1017 348 q 987 361 1000 357 q 931 374 968 367 l 902 381 q 873 388 886 385 q 780 438 808 406 q 827 307 810 385 q 839 151 844 224 q 798 17 833 67 q 685 -46 758 -40 q 681 -34 681 -41 l 681 -28 l 682 -23 q 667 -3 682 -10 q 657 -8 674 -9 q 614 -1 642 -7 q 521 32 547 15 q 462 104 484 54 q 443 205 439 154 q 458 248 444 222 l 464 259 l 469 269 q 477 291 475 281 q 485 326 481 306 l 492 362 q 508 432 501 408 q 581 534 531 509 q 610 528 597 536 l 616 525 l 621 522 q 633 516 627 517 q 647 528 648 521 q 646 532 647 530 l 644 537 q 642 551 642 545 q 673 547 661 541 q 694 568 680 550 q 690 576 693 576 q 683 572 688 576 l 678 569 q 672 566 675 567 q 659 568 665 564 q 671 592 664 580 l 673 597 l 675 601 q 680 609 678 606 q 685 663 687 626 q 661 640 669 661 l 659 630 l 656 621 q 650 603 654 609 q 637 610 640 602 q 635 619 635 614 l 634 624 l 633 629 q 628 645 632 642 q 607 646 622 651 q 625 542 597 602 q 497 513 568 556 q 431 466 476 499 l 414 453 l 395 439 q 356 412 374 425 q 330 395 345 405 l 302 376 q 246 338 267 351 q 149 291 182 298 q 64 299 97 281 q 10 352 39 313 q 16 382 11 366 q 20 395 18 389 l 24 408 q 36 456 37 440 q 33 473 36 464 l 28 479 l 25 486 q 19 516 16 503 q 102 614 31 568 q 261 672 174 661 q 429 667 338 682 q 564 620 527 652 q 572 606 570 615 l 574 597 l 574 589 q 598 576 578 572 q 387 750 543 662 l 356 768 l 326 785 q 265 821 290 805 q 157 905 198 863 q 208 941 174 922 l 223 949 l 239 957 q 270 975 257 966 q 307 1003 283 983 l 326 1019 q 345 1034 336 1027 q 434 1061 392 1068 q 468 1035 454 1058 l 471 1029 l 475 1023 q 482 1011 479 1016 q 503 983 492 996 q 519 970 509 977 q 537 959 526 966 q 564 940 559 946 q 612 806 595 892 q 623 733 617 778 l 626 715 l 628 697 q 633 663 631 677 q 639 668 637 664 l 640 672 l 641 677 q 650 689 643 689 q 660 918 634 813 q 772 1096 690 1041 q 942 1059 858 1091 q 1014 1027 975 1046 l 1048 1010 l 1083 992 q 1078 973 1082 983 l 1074 965 l 1070 957 q 1065 914 1061 937 q 1004 857 1038 891 l 974 827 l 945 798 q 814 689 871 724 q 869 696 834 690 l 884 699 l 899 702 q 930 707 918 705 q 1065 715 1013 720 q 1131 697 1092 713 l 1145 692 l 1159 687 q 1187 680 1175 682 m 1281 476 l 1282 481 q 1282 457 1292 473 q 1255 424 1278 448 q 1237 404 1243 412 q 1221 383 1227 393 q 1204 334 1204 357 q 1180 329 1193 333 l 1168 324 l 1157 319 q 1109 309 1127 308 q 1046 330 1084 309 l 1031 339 l 1017 348 q 987 361 1000 357 q 931 374 968 367 l 902 381 q 873 388 886 385 q 780 438 808 406 q 827 307 810 385 q 839 151 844 224 q 798 17 833 67 q 685 -46 758 -40 q 681 -34 681 -41 l 681 -28 l 682 -23 q 667 -3 682 -10 q 657 -8 674 -9 q 614 -1 642 -7 q 521 32 547 15 q 462 104 484 54 q 443 205 439 154 q 458 248 444 222 l 464 259 l 469 269 q 477 291 475 281 q 485 326 481 306 l 492 362 q 508 432 501 408 q 581 534 531 509 q 610 528 597 536 l 616 525 l 621 522 q 633 516 627 517 q 647 528 648 521 q 646 532 647 530 l 644 537 q 642 551 642 545 q 673 547 661 541 q 694 568 680 550 q 690 576 693 576 q 683 572 688 576 l 678 569 q 672 566 675 567 q 659 568 665 564 q 671 592 664 580 l 673 597 l 675 601 q 680 609 678 606 q 685 663 687 626 q 661 640 669 661 l 659 630 l 656 621 q 650 603 654 609 q 637 610 640 602 q 635 619 635 614 l 634 624 l 633 629 q 628 645 632 642 q 607 646 622 651 q 625 542 597 602 q 497 513 568 556 q 431 466 476 499 l 414 453 l 395 439 q 356 412 374 425 q 330 395 345 405 l 302 376 q 246 338 267 351 q 149 291 182 298 q 64 299 97 281 q 10 352 39 313 q 16 382 11 366 q 20 395 18 389 l 24 408 q 36 456 37 440 q 33 473 36 464 l 28 479 l 25 486 q 19 516 16 503 q 102 614 31 568 q 261 672 174 661 q 429 667 338 682 q 564 620 527 652 q 572 606 570 615 l 574 597 l 574 589 q 598 576 578 572 q 387 750 543 662 l 356 768 l 326 785 q 265 821 290 805 q 157 905 198 863 q 208 941 174 922 l 223 949 l 239 957 q 270 975 257 966 q 307 1003 283 983 l 326 1019 q 345 1034 336 1027 q 434 1061 392 1068 q 468 1035 454 1058 l 471 1029 l 475 1023 q 482 1011 479 1016 q 503 983 492 996 q 519 970 509 977 q 537 959 526 966 q 564 940 559 946 q 612 806 595 892 q 623 733 617 778 l 626 715 l 628 697 q 633 663 631 677 q 639 668 637 664 l 640 672 l 641 677 q 650 689 643 689 q 660 918 634 813 q 772 1096 690 1041 q 942 1059 858 1091 q 1014 1027 975 1046 l 1048 1010 l 1083 992 q 1078 973 1082 983 l 1074 965 l 1070 957 q 1065 914 1061 937 q 1004 857 1038 891 l 974 827 l 945 798 q 814 689 871 724 q 869 696 834 690 l 884 699 l 899 702 q 930 707 918 705 q 1065 715 1013 720 q 1131 697 1092 713 l 1145 692 l 1159 687 q 1187 680 1175 682 q 1190 662 1185 666 q 1194 661 1191 661 l 1196 661 l 1199 661 q 1206 658 1205 661 q 1204 637 1209 653 l 1210 640 q 1215 644 1213 642 q 1221 654 1220 648 q 1228 647 1227 654 q 1228 640 1228 644 l 1227 634 q 1227 627 1225 628 q 1238 637 1230 627 q 1251 624 1244 634 q 1261 604 1255 617 q 1273 585 1272 581 q 1276 539 1281 575 l 1275 531 l 1274 523 q 1272 505 1272 513 q 1273 465 1270 484 q 1280 471 1278 465 l 1281 476 "},"=":{"ha":585,"x_min":12,"x_max":578,"o":"m 14 724 l 12 576 l 572 572 l 578 755 l 14 724 m 34 468 l 534 475 l 542 279 l 26 317 l 34 468 "},">":{"ha":1263,"x_min":-14,"x_max":1268,"o":"m 644 574 q 583 577 599 556 q 582 633 568 596 q 669 698 625 656 q 742 779 699 727 q 771 822 746 783 l 777 831 l 783 840 q 795 859 790 850 q 823 899 811 882 q 906 1003 895 1006 q 810 798 941 991 q 709 656 763 728 q 644 574 661 592 m 945 1130 q 937 1147 945 1140 q 920 1154 930 1154 q 902 1147 909 1154 q 895 1130 895 1140 q 902 1112 895 1120 q 920 1105 909 1105 q 937 1112 930 1105 q 945 1130 945 1120 m 1020 1143 q 1013 1160 1020 1153 q 996 1168 1006 1168 q 978 1160 985 1168 q 971 1143 971 1153 q 978 1125 971 1133 q 996 1118 985 1118 q 1013 1125 1006 1118 q 1020 1143 1020 1133 m 1069 1080 q 1063 1097 1069 1090 q 1045 1105 1055 1105 q 1027 1097 1035 1105 q 1020 1080 1020 1090 q 1027 1062 1020 1069 q 1045 1055 1035 1055 q 1063 1062 1055 1055 q 1069 1080 1069 1069 m 1018 1021 q 1010 1039 1018 1031 q 993 1046 1003 1046 q 975 1039 983 1046 q 968 1021 968 1031 q 975 1004 968 1011 q 993 997 983 997 q 1010 1004 1003 997 q 1018 1021 1018 1011 m 937 1048 q 930 1066 937 1059 q 912 1073 922 1073 q 895 1066 902 1073 q 888 1048 888 1059 q 895 1031 888 1038 q 912 1024 902 1024 q 930 1031 922 1024 q 937 1048 937 1038 m 98 548 q 12 614 -14 500 q 45 706 21 653 q 81 773 65 748 q 99 804 89 785 l 109 821 l 118 840 q 161 913 144 889 q 281 964 218 996 l 285 981 l 288 998 q 297 1029 293 1017 q 342 1067 311 1062 q 355 1068 347 1067 l 361 1069 l 370 1069 q 401 1074 389 1071 q 437 1111 438 1083 q 460 1108 448 1112 l 472 1105 l 484 1101 q 530 1095 513 1091 q 544 1103 538 1097 l 549 1109 l 555 1116 q 581 1133 568 1133 q 619 1099 607 1132 q 627 1072 623 1090 l 630 1059 q 633 1046 631 1051 q 659 1038 642 1023 q 675 1057 665 1044 l 684 1068 l 693 1080 q 728 1105 715 1107 q 755 1047 745 1103 q 728 867 770 962 q 624 715 692 787 q 629 765 625 731 l 631 779 l 633 793 q 637 822 635 810 q 616 919 642 891 q 604 893 608 916 q 600 873 602 886 l 599 863 l 597 854 q 587 835 594 834 q 561 869 578 836 q 546 911 553 882 l 543 922 l 539 933 q 532 954 536 946 q 465 975 513 999 q 534 853 510 922 q 526 728 564 766 q 463 705 492 695 q 415 747 444 711 l 403 762 l 391 777 q 364 802 377 793 q 295 817 332 827 q 313 777 295 795 q 354 749 325 766 l 365 743 l 376 737 q 397 723 389 730 q 424 687 419 707 q 391 655 434 646 q 356 667 376 659 q 340 675 349 670 l 337 676 l 334 677 q 329 680 331 679 q 245 706 278 702 q 160 693 204 711 q 227 643 181 657 q 317 632 256 635 l 340 631 l 362 629 q 404 623 387 627 q 467 580 448 612 q 414 536 494 530 q 382 539 400 536 l 367 542 l 352 545 q 315 549 319 550 q 258 545 289 543 q 232 549 247 547 l 205 553 q 98 548 140 566 m 591 437 q 644 333 625 440 q 656 250 651 298 q 659 218 657 236 l 659 211 l 659 205 q 661 196 660 199 q 663 90 667 131 q 630 -9 658 28 q 556 -36 604 -45 q 536 -31 549 -35 l 515 -25 q 473 -22 490 -20 q 433 -35 456 -24 l 424 -39 l 415 -43 q 398 -49 405 -47 q 337 -9 361 -60 q 331 5 335 -4 l 326 20 q 311 47 318 38 q 258 66 292 76 q 198 71 219 56 q 170 111 185 80 l 165 123 l 159 135 q 142 157 151 148 q 78 176 119 178 q 86 210 79 188 l 93 228 q 99 246 97 239 q 78 304 110 289 q 68 347 41 321 q 96 366 78 357 q 125 380 111 374 q 281 421 164 393 l 245 425 q 210 427 226 426 q 138 420 171 427 q 48 405 76 406 l 47 406 l 46 407 q 43 410 45 408 q 41 416 43 412 q 41 422 41 420 q 71 456 50 444 q 92 465 80 460 l 104 468 l 115 471 q 229 484 162 485 q 288 481 252 484 l 316 479 l 345 477 q 371 477 349 477 q 390 477 382 477 l 410 477 q 478 464 463 475 l 479 464 l 479 463 q 483 458 481 460 q 468 425 491 441 q 423 406 448 410 q 360 390 401 399 l 326 382 q 294 375 307 378 q 223 323 222 356 q 253 304 223 302 q 322 325 275 307 l 341 332 l 361 340 q 397 354 385 350 q 446 364 435 368 q 426 335 445 349 q 407 323 418 330 l 397 318 l 386 312 q 349 290 359 298 q 338 265 334 278 q 386 277 362 259 q 407 296 395 284 l 417 307 l 427 317 q 466 354 451 346 q 511 353 488 367 q 506 336 511 350 l 503 330 l 500 323 q 495 307 498 314 q 473 233 479 262 q 519 197 452 140 q 542 249 534 209 q 548 288 545 264 l 550 309 l 553 329 q 565 403 559 381 q 591 437 574 436 m 1190 641 l 1193 632 q 1231 614 1212 631 q 1259 578 1249 599 q 1262 539 1268 555 q 1230 517 1255 521 q 1241 486 1232 505 l 1244 479 l 1248 473 q 1253 460 1251 466 q 1209 417 1259 433 q 1212 397 1207 408 l 1217 387 l 1223 378 q 1219 336 1236 353 q 1173 323 1202 318 q 1115 347 1152 328 l 1100 355 l 1085 363 q 1056 376 1068 372 q 1004 382 1023 389 q 1013 368 1004 380 l 1017 361 l 1022 354 q 1033 338 1027 345 q 1057 298 1046 317 q 1081 256 1072 275 q 1065 162 1139 144 q 968 223 1021 173 l 947 243 l 926 264 q 882 300 902 288 q 909 254 883 298 q 932 213 923 231 q 956 170 946 189 q 949 83 1013 56 q 899 113 922 94 q 870 158 870 136 q 834 239 869 196 l 819 256 l 803 273 q 775 308 784 294 q 755 341 768 318 l 745 360 l 735 378 q 680 435 708 422 q 670 438 678 435 q 663 440 667 439 l 656 444 q 622 460 635 452 q 626 499 583 484 q 686 490 655 510 q 739 439 707 477 l 751 423 l 764 408 q 790 380 779 391 q 846 349 820 351 q 842 353 845 350 l 840 357 l 837 360 q 823 379 829 370 q 794 425 804 406 q 825 463 764 483 q 865 444 842 457 l 885 431 l 905 418 q 989 388 955 386 q 1018 439 1041 391 q 992 475 1009 457 q 962 496 976 491 q 883 518 935 507 l 863 522 l 843 526 q 804 537 821 532 q 913 562 817 564 l 932 561 l 951 560 q 985 559 972 559 q 1034 567 1022 559 q 905 622 1040 618 q 852 622 882 623 l 827 621 q 803 620 818 621 q 736 619 747 618 q 808 670 738 648 q 863 683 833 677 q 903 688 887 687 q 957 690 925 690 l 969 691 l 981 691 q 1004 692 994 691 q 1099 718 1054 695 q 1165 704 1141 739 q 1181 669 1174 691 q 1187 650 1184 661 l 1190 641 m 43 410 l 43 410 l 43 410 l 43 410 "},"?":{"ha":675,"x_min":-2,"x_max":662,"o":"m 242 169 l 255 500 l 437 539 l 431 629 q 216 568 308 699 l 218 450 l 41 414 l -2 717 q 647 793 261 1006 l 662 422 l 507 376 l 521 225 l 242 169 m 267 -75 l 266 100 l 494 140 l 513 -50 l 267 -75 "},"@":{"ha":1143,"x_min":1,"x_max":1142,"o":"m 97 391 l 98 391 q 97 391 98 391 m 1076 511 q 1095 577 1098 543 q 1061 635 1090 613 q 1045 649 1055 640 l 1036 656 l 1027 665 q 985 699 1002 688 q 897 724 930 739 q 865 723 883 718 q 848 728 858 724 l 840 732 l 832 735 q 798 746 810 745 q 760 739 777 748 q 728 702 741 728 q 717 679 723 692 l 713 667 l 708 656 q 671 598 699 634 l 661 585 l 651 570 q 635 541 641 555 q 656 528 623 514 q 681 541 667 533 q 690 547 686 544 q 694 549 693 549 q 736 587 722 578 q 791 597 762 602 q 765 570 782 581 q 749 559 759 565 l 733 551 q 688 494 694 528 q 746 499 709 490 l 761 503 l 776 507 q 805 511 792 511 q 828 507 810 511 q 863 496 848 502 q 868 466 905 479 q 793 464 840 456 l 774 467 l 755 471 q 718 474 733 474 q 705 438 667 473 q 721 425 711 433 l 729 418 l 736 412 q 753 395 753 399 q 727 398 748 392 q 707 404 720 400 l 697 408 l 687 410 q 654 416 663 418 q 648 399 641 415 q 724 332 661 369 q 777 305 747 319 q 800 295 787 300 q 810 290 805 292 q 819 286 814 289 q 924 277 874 262 q 970 295 943 282 l 983 301 l 995 308 q 1021 321 1012 316 q 1063 361 1053 336 q 1067 410 1069 378 l 1065 422 l 1063 436 q 1062 462 1062 452 q 1076 511 1062 492 m 1008 46 q 996 97 1036 71 q 980 107 989 102 q 962 116 972 111 q 937 129 941 126 q 956 165 960 146 q 930 197 953 184 q 952 227 951 220 q 941 230 954 232 l 935 229 l 928 228 q 912 227 920 227 q 880 239 892 228 q 840 259 867 251 l 829 262 l 818 266 q 798 272 804 269 q 763 288 782 277 l 747 299 l 731 310 q 665 344 690 338 q 666 294 656 315 q 692 260 673 277 l 701 252 l 710 245 q 727 231 721 236 q 751 195 745 213 q 694 200 717 184 q 661 245 675 213 q 648 273 655 255 l 642 288 l 636 301 q 607 345 622 334 q 588 316 590 334 q 593 281 587 304 l 595 273 l 598 264 q 602 246 601 254 q 594 214 604 227 q 559 273 566 231 q 557 309 557 288 l 557 326 l 557 335 l 558 343 q 504 284 529 338 l 499 273 l 494 262 q 485 242 489 250 q 463 211 474 220 q 458 253 431 185 q 481 303 468 275 q 491 321 487 313 q 495 328 494 328 q 468 326 481 332 q 456 321 463 324 l 445 313 q 394 300 415 294 q 421 333 412 313 q 394 332 414 333 l 379 332 l 362 332 q 294 324 321 330 q 213 249 214 307 l 212 237 l 212 224 q 213 195 212 208 q 220 136 214 161 q 285 47 236 65 q 303 40 291 45 l 309 37 l 315 35 q 328 28 323 31 q 386 5 363 12 q 471 37 460 -17 q 502 68 502 58 q 498 83 502 73 l 495 89 l 493 96 q 488 111 490 103 q 496 185 477 144 q 539 248 511 218 q 542 217 541 237 q 543 187 543 200 q 557 155 555 180 q 557 102 559 139 l 556 88 l 555 74 q 556 47 555 58 q 568 7 558 19 q 593 1 581 -6 q 602 10 597 4 l 607 16 l 612 22 q 631 39 623 38 q 654 20 642 42 l 660 11 l 665 1 q 678 -18 672 -11 q 714 -44 694 -39 q 732 -45 723 -46 l 740 -44 l 747 -42 q 777 -47 764 -39 q 801 -58 790 -57 q 819 -43 814 -58 q 838 -22 825 -18 l 843 -24 q 849 -26 846 -26 q 861 -21 856 -27 q 863 -12 864 -18 q 861 -5 863 -9 l 859 1 q 857 22 852 18 q 874 23 861 26 l 880 22 l 886 21 q 898 18 894 19 q 910 43 925 14 q 959 28 924 24 q 1008 46 991 31 m 183 328 q 245 345 212 326 l 259 353 l 273 362 q 301 379 291 374 q 338 391 313 386 q 359 394 345 392 l 382 397 q 450 433 436 407 q 430 436 443 435 l 418 437 l 406 439 q 352 446 372 442 q 288 504 288 460 q 319 494 298 502 l 328 491 l 337 488 q 356 482 348 484 q 422 486 401 469 q 462 478 435 482 q 487 475 470 477 l 513 472 q 595 449 578 463 q 560 437 594 446 q 544 433 555 436 l 535 431 l 526 429 q 490 420 505 424 q 433 373 397 395 q 459 398 446 391 q 492 394 477 407 q 463 361 480 375 q 496 366 469 355 q 552 394 522 375 q 602 430 583 413 q 616 457 622 449 q 555 480 607 471 q 505 488 540 483 l 478 492 l 451 497 q 358 526 387 509 q 332 583 321 547 q 378 569 352 587 l 389 562 l 399 554 q 421 543 412 546 q 532 545 477 527 q 516 560 526 551 l 507 568 l 496 576 q 456 614 470 599 q 429 703 410 663 q 449 709 435 718 q 476 676 459 701 l 483 665 l 490 654 q 504 633 499 640 q 528 606 519 610 q 528 627 530 614 l 525 637 l 522 648 q 532 685 515 673 q 553 669 548 682 q 557 644 557 661 l 557 636 l 557 629 q 558 614 557 621 q 571 592 561 600 q 587 610 583 596 q 590 625 589 616 l 591 632 l 591 640 q 595 669 592 660 q 613 684 600 682 q 622 648 626 669 q 606 610 619 635 l 601 600 l 596 591 q 589 571 591 580 q 595 534 584 550 q 651 591 622 541 q 672 633 663 610 q 684 667 680 652 q 687 698 688 678 q 686 716 687 704 l 685 734 q 701 795 682 779 q 713 803 706 798 l 726 811 q 747 828 741 821 q 726 871 765 848 q 663 892 697 888 q 627 902 636 895 q 621 906 625 903 l 618 908 l 616 911 q 597 924 608 918 q 530 942 570 942 q 466 920 488 942 q 425 890 446 899 l 415 887 l 410 885 l 404 883 q 376 871 389 878 q 325 808 340 854 q 323 727 311 766 q 338 700 327 715 q 349 688 342 694 l 361 675 q 393 627 391 643 q 311 672 355 628 q 256 748 276 707 q 218 771 242 774 q 172 745 197 768 q 135 696 151 724 q 120 651 119 669 q 121 598 123 603 q 90 564 118 588 q 70 522 73 549 q 79 478 68 497 q 56 451 28 503 q 81 412 64 433 q 92 397 86 404 q 97 391 96 392 q 78 380 83 393 q 83 357 72 368 q 130 334 98 341 q 158 330 142 332 q 183 328 168 329 m 1107 455 q 1108 448 1107 452 l 1108 444 l 1109 440 l 1110 431 l 1111 421 q 1112 399 1112 410 q 1106 351 1112 374 q 1080 296 1099 321 q 1015 244 1055 264 l 1009 241 l 1009 241 l 1008 231 q 1012 214 1010 222 q 1038 190 1027 203 q 1069 125 1063 161 q 1059 58 1074 90 q 1025 15 1047 34 q 968 -16 1002 -5 q 913 -26 941 -25 l 911 -27 q 902 -37 907 -33 q 867 -64 886 -54 l 859 -67 q 848 -76 854 -72 q 812 -96 832 -90 q 777 -102 795 -102 q 724 -90 750 -102 q 708 -91 715 -91 q 675 -87 692 -91 l 675 -87 q 625 -64 648 -81 q 606 -50 615 -58 q 583 -52 595 -52 q 528 -37 554 -52 q 517 -31 522 -35 q 481 -47 500 -41 q 439 -52 461 -52 q 355 -35 402 -52 q 326 -22 342 -29 q 312 -16 319 -19 l 306 -13 l 300 -10 l 295 -7 l 290 -5 q 283 -2 285 -3 q 232 26 255 8 q 196 66 212 43 q 162 148 172 100 q 154 201 157 172 q 153 250 153 223 q 114 263 132 255 q 66 296 86 276 q 32 391 27 336 q 18 416 24 404 q 8 446 12 432 q 10 507 1 478 q 29 543 16 527 q 71 618 39 587 l 71 623 q 93 711 68 665 q 138 774 111 745 q 261 835 195 835 l 273 834 q 354 913 302 888 q 378 924 366 919 q 388 928 382 926 l 392 929 l 396 930 l 399 932 l 402 933 q 404 935 403 933 q 407 937 406 935 q 534 986 455 986 q 592 979 564 986 q 648 955 623 970 q 668 941 659 948 q 760 909 717 935 l 760 909 l 760 909 q 803 874 787 893 q 827 833 819 855 q 833 798 832 817 q 846 793 838 796 l 847 793 q 878 796 862 796 q 988 758 931 796 q 1021 733 1003 748 q 1036 721 1027 728 l 1042 715 l 1048 709 q 1059 700 1056 703 q 1067 693 1065 696 q 1114 639 1097 671 q 1135 572 1132 608 q 1107 455 1142 510 "},"A":{"ha":854,"x_min":-25,"x_max":899,"o":"m 363 615 l 462 608 l 459 734 l 375 743 l 363 615 m 899 -50 l 470 -34 l 471 387 l 318 424 l 233 12 l -25 109 l 254 966 l 667 937 l 899 -50 "},"B":{"ha":699,"x_min":22,"x_max":696,"o":"m 343 78 l 364 248 l 220 254 l 220 78 l 343 78 m 353 682 l 257 679 l 271 564 l 353 564 l 353 682 m 685 233 q 695 174 694 208 q 656 54 696 104 q 471 -40 601 -16 q 38 -24 309 -71 l 22 896 q 332 917 177 929 q 545 853 468 905 q 642 661 642 787 q 608 562 638 614 q 538 482 581 515 q 412 425 486 441 q 543 389 476 417 q 685 233 675 333 "},"C":{"ha":795,"x_min":12,"x_max":836,"o":"m 376 300 l 836 319 q 685 130 785 201 q 456 55 581 56 q 289 90 370 54 q 150 188 211 125 q 16 517 20 323 q 134 849 12 711 q 268 951 192 915 q 434 990 347 989 q 651 930 549 991 q 808 767 749 869 l 391 747 l 376 300 "},"D":{"ha":724,"x_min":5,"x_max":723,"o":"m 498 384 l 475 704 l 256 669 l 264 367 l 498 384 m 86 27 l 5 947 q 543 896 376 1015 q 668 727 625 836 q 719 465 710 623 l 720 450 q 625 216 723 313 q 407 89 546 138 q 86 27 247 33 "},"E":{"ha":668,"x_min":5,"x_max":647,"o":"m 583 982 l 623 850 l 272 787 l 268 707 l 647 751 l 627 546 l 307 543 l 312 340 l 619 370 l 639 47 l 45 77 l 5 916 l 583 982 "},"F":{"ha":686,"x_min":22,"x_max":731,"o":"m 50 3 l 277 -18 l 277 250 l 600 305 l 600 532 l 270 505 l 270 622 l 731 670 l 731 973 l 22 863 l 50 3 "},"G":{"ha":979,"x_min":0,"x_max":984,"o":"m 984 401 l 885 310 q 739 89 840 181 q 505 -35 636 -7 q 326 -35 414 -54 q 173 34 241 -18 q 62 161 104 84 q 9 334 18 240 q 27 523 0 429 q 110 692 54 614 q 243 822 166 769 q 416 895 324 876 q 648 881 538 922 q 826 751 755 842 l 336 532 l 403 199 l 585 240 l 563 470 l 962 566 l 984 401 "},"H":{"ha":839,"x_min":5,"x_max":843,"o":"m 549 887 l 843 926 l 770 49 l 583 56 l 570 353 l 404 312 l 423 39 l 149 -16 l 5 861 l 358 937 l 385 564 l 562 559 l 549 887 "},"I":{"ha":348,"x_min":22,"x_max":352,"o":"m 352 893 l 249 -16 l 32 -16 l 22 869 l 352 893 "},"J":{"ha":774,"x_min":1,"x_max":781,"o":"m 566 629 l 580 365 q 512 119 587 212 q 342 10 452 44 q 169 -16 264 -14 q 90 -12 121 -16 l 105 319 q 269 380 233 251 q 281 510 282 431 q 270 650 280 573 l 7 670 l 1 949 l 740 907 l 781 613 l 566 629 "},"K":{"ha":941,"x_min":10,"x_max":1004,"o":"m 937 46 l 574 -63 l 326 329 l 277 35 l 10 97 l 65 986 l 432 984 l 391 728 l 599 924 l 1004 891 l 519 476 l 937 46 "},"L":{"ha":719,"x_min":10,"x_max":732,"o":"m 96 1010 l 385 991 l 284 388 l 732 393 l 723 10 l 10 95 l 96 1010 "},"M":{"ha":994,"x_min":10,"x_max":979,"o":"m 10 44 l 258 5 l 293 391 l 377 74 l 561 94 l 715 382 l 690 24 l 968 -16 l 979 972 l 725 997 l 522 590 l 313 987 l 54 1017 l 10 44 "},"N":{"ha":1063,"x_min":12,"x_max":1043,"o":"m 79 -115 l 403 -71 l 368 328 l 699 7 l 1043 80 l 1010 1014 l 674 947 l 691 478 l 278 799 l 12 751 l 79 -115 "},"O":{"ha":973,"x_min":12,"x_max":972,"o":"m 716 402 l 730 721 l 359 746 l 332 466 l 716 402 m 492 1044 q 679 1004 589 1044 q 831 896 765 966 q 935 736 898 827 q 972 540 972 642 q 935 345 972 437 q 831 184 898 254 q 679 76 765 115 q 492 37 589 37 q 305 76 394 37 q 152 184 218 115 q 50 345 86 254 q 12 540 12 437 q 50 736 12 642 q 152 896 86 827 q 305 1004 218 966 q 492 1044 394 1044 "},"P":{"ha":707,"x_min":-13,"x_max":707,"o":"m 317 530 l 516 608 l 447 797 l 224 753 l 317 530 m 138 -109 l -13 945 q 511 945 346 1023 q 637 828 593 907 q 694 635 680 753 l 694 624 q 404 332 707 439 l 484 -20 l 138 -109 "},"Q":{"ha":955,"x_min":-25,"x_max":960,"o":"m 247 387 l 471 283 l 665 651 l 404 752 l 247 387 m 954 102 l 740 -143 l 568 -7 q 291 -18 426 -62 q 142 74 205 10 q 46 220 79 135 q 47 602 -25 402 q 149 778 83 699 q 296 902 213 854 q 467 962 378 949 q 644 946 558 974 q 793 854 729 918 q 889 708 855 793 q 887 327 960 526 q 806 176 857 245 l 954 102 "},"R":{"ha":848,"x_min":5,"x_max":882,"o":"m 271 574 l 477 616 l 456 830 l 237 851 l 271 574 m 882 263 l 737 83 l 433 403 q 397 391 414 397 l 463 54 l 117 -18 l 5 987 q 526 969 365 1048 q 648 852 606 929 q 696 667 687 781 l 697 657 q 635 514 699 577 l 882 263 "},"S":{"ha":825,"x_min":-37,"x_max":828,"o":"m -37 110 q 345 -47 170 -26 q 600 -6 486 -64 q 684 50 645 17 q 743 110 716 77 q 787 176 773 146 q 806 328 825 256 q 658 514 781 427 q 602 548 636 530 l 573 563 l 543 578 q 439 655 472 615 q 422 679 429 667 q 409 706 413 694 q 432 753 400 739 q 511 755 479 773 q 552 704 537 741 q 566 641 563 675 q 566 619 566 629 q 564 611 565 611 q 824 608 565 611 q 789 781 828 707 q 699 882 757 841 q 564 941 632 930 q 308 918 410 960 q 180 816 226 885 q 150 756 161 788 q 135 703 140 730 q 130 650 130 671 q 204 482 127 565 q 282 416 243 440 q 297 406 288 412 l 314 397 q 347 377 336 385 q 399 323 387 351 q 399 260 413 294 q 355 215 385 226 q 235 216 303 196 q 130 274 172 235 l 129 275 l 128 276 q 126 278 127 277 q 119 284 123 281 q 102 302 110 294 q 83 335 80 328 q -37 110 83 334 "},"T":{"ha":888,"x_min":-18,"x_max":912,"o":"m 912 636 l 669 587 l 761 74 l 467 -42 l 359 522 l 78 465 l -18 794 l 830 936 l 912 636 "},"U":{"ha":899,"x_min":7,"x_max":912,"o":"m 7 763 l 327 776 l 337 721 l 357 602 q 380 481 370 530 l 390 428 l 400 374 l 403 357 l 406 342 q 414 309 410 323 q 448 255 425 273 q 544 240 499 212 q 586 300 574 260 q 589 376 596 337 q 494 861 589 380 l 861 941 l 910 295 q 880 115 912 193 q 806 7 854 52 q 697 -60 752 -44 q 189 1 359 -136 q 138 54 159 24 q 106 103 119 77 q 87 154 91 133 l 7 763 "},"V":{"ha":821,"x_min":-20,"x_max":821,"o":"m -20 873 l 283 989 l 447 393 l 541 1062 l 821 1088 l 749 151 l 212 39 l -20 873 "},"W":{"ha":1090,"x_min":-16,"x_max":1069,"o":"m -16 699 l 288 785 l 378 552 l 419 780 l 583 800 l 734 504 l 754 821 l 1069 856 l 1063 85 l 712 -16 l 544 239 l 498 -23 l 220 -79 l -16 699 "},"X":{"ha":1026,"x_min":-32,"x_max":1059,"o":"m 1059 277 l 848 -2 l 629 178 l 549 -29 l 115 -62 l 340 417 l -32 724 l 275 920 l 492 742 l 582 935 l 943 985 l 763 520 l 1059 277 "},"Y":{"ha":866,"x_min":-98,"x_max":967,"o":"m 588 977 l 419 705 l 265 1026 l -98 1008 l 243 493 l 298 -33 l 685 -58 l 685 524 l 967 930 l 588 977 "},"Z":{"ha":988,"x_min":10,"x_max":1010,"o":"m 69 1056 l 819 1104 l 829 808 l 531 493 l 951 570 l 1010 195 l 13 113 l 10 346 l 429 761 l 39 714 l 69 1056 "},"[":{"ha":1396,"x_min":-24,"x_max":1402,"o":"m 292 671 q 294 665 298 669 q 288 661 292 663 q 283 659 286 660 q 287 666 284 662 l 290 669 q 292 671 290 670 m 254 642 q 256 641 255 642 l 258 640 l 260 640 q 262 635 262 639 q 259 636 261 635 l 258 637 l 256 637 q 254 642 253 638 m 395 626 l 392 623 q 389 620 391 621 q 381 616 386 616 l 384 620 q 387 623 385 622 q 395 626 390 626 m 412 597 q 417 600 414 600 q 420 597 420 599 q 419 595 421 595 q 412 597 416 595 m 205 565 q 208 565 205 566 l 210 565 l 212 564 q 218 567 218 564 q 214 567 216 567 l 212 568 l 210 568 q 205 565 204 568 m 220 557 q 224 557 221 557 l 227 556 l 229 556 q 235 559 235 555 q 231 559 233 558 l 229 559 l 226 559 q 220 557 220 560 m 248 553 q 243 553 246 553 l 241 553 l 238 553 q 232 551 233 554 q 240 549 235 548 q 248 553 245 550 m 326 537 l 324 534 q 331 536 328 534 q 333 538 332 537 l 334 541 q 328 539 330 542 q 326 537 327 538 m 330 533 l 329 531 q 339 534 335 530 q 342 537 340 535 l 343 539 l 345 541 q 334 538 338 542 q 332 535 333 537 l 330 533 m 260 534 q 262 537 260 537 l 262 542 q 260 542 262 542 l 256 542 q 252 540 253 542 q 257 538 255 540 l 258 537 l 258 536 q 260 534 259 535 m 265 536 l 264 532 q 269 531 267 530 q 271 534 270 532 q 270 538 271 536 q 268 539 269 539 q 265 536 267 536 m 343 513 q 346 517 343 516 q 349 517 347 517 l 351 517 q 343 513 349 512 m 309 498 q 299 494 300 500 q 301 492 302 494 l 307 491 q 309 498 307 495 m 200 414 l 195 414 l 195 419 l 201 419 l 200 414 m 333 395 q 332 393 333 393 q 331 395 332 393 q 331 397 331 395 q 331 400 330 399 q 332 402 331 402 q 333 401 332 402 q 333 398 333 399 q 333 395 334 396 m 435 385 q 438 382 438 390 l 438 378 l 437 375 q 437 370 437 371 q 435 373 435 365 l 435 376 l 435 380 q 435 385 435 385 m 440 375 q 443 372 443 380 l 443 368 l 442 365 q 442 359 442 360 q 439 363 439 355 l 439 366 l 440 370 q 440 375 440 374 m 338 379 q 342 363 342 375 q 338 379 336 367 m 384 375 q 380 373 381 372 q 378 375 378 373 q 378 378 377 377 q 384 375 380 378 m 448 364 q 450 359 450 369 l 450 356 l 450 352 q 449 346 449 347 q 447 351 446 342 l 447 355 l 447 358 q 448 364 448 363 m 277 344 q 271 353 274 346 l 269 355 l 268 357 q 265 362 267 360 q 273 358 269 366 q 277 344 279 351 m 344 351 q 349 342 348 349 q 349 336 349 340 l 349 334 l 349 330 q 345 340 346 333 l 345 342 l 345 345 q 344 351 345 349 m 320 280 q 323 294 320 287 l 326 296 l 327 299 q 329 305 328 302 q 330 291 333 300 q 320 280 326 281 m 358 196 l 357 191 l 353 191 l 353 196 l 358 196 m 195 419 l 195 414 l 200 414 l 201 419 l 195 419 m 216 539 q 212 536 214 537 l 208 533 q 200 527 203 529 q 203 535 196 531 q 210 537 206 536 l 214 538 q 216 539 215 538 m 231 536 l 229 534 l 227 532 q 222 529 224 530 q 210 526 217 526 q 231 536 218 533 m 248 553 q 240 549 245 550 q 232 551 235 548 q 238 553 233 554 l 241 553 l 243 553 q 248 553 246 553 m 240 319 q 243 329 241 323 l 246 338 q 252 357 250 351 q 241 340 245 353 q 240 319 237 328 m 257 362 q 254 368 254 364 q 256 375 254 371 l 258 378 q 259 382 259 380 q 258 385 260 385 q 256 379 258 383 l 254 376 l 252 372 q 252 360 248 364 q 254 361 252 363 l 255 361 l 256 361 q 257 362 257 361 m 267 403 q 269 410 267 406 l 271 416 q 275 429 275 425 q 273 423 277 433 q 271 420 272 422 l 269 418 l 268 416 q 264 403 264 410 q 264 400 264 401 q 265 399 264 399 q 267 399 266 399 q 267 403 267 401 m 277 344 q 273 358 279 351 q 265 362 269 366 q 268 357 267 360 l 269 355 l 271 353 q 277 344 274 346 m 283 315 q 280 320 281 316 l 278 323 l 277 327 q 269 331 273 335 q 273 326 271 330 l 274 323 l 275 319 q 283 315 279 311 m 292 671 q 290 669 290 670 l 287 666 q 283 659 284 662 q 288 661 286 660 q 294 665 292 663 q 292 671 298 669 m 307 491 l 301 492 q 299 494 302 494 q 309 498 300 500 q 307 491 307 495 m 314 306 q 316 321 314 313 q 322 335 318 327 q 329 359 330 352 q 323 352 326 355 l 321 351 l 320 349 q 315 345 318 347 q 316 355 316 350 q 316 359 316 357 l 316 362 q 317 380 316 372 l 315 375 l 314 370 q 309 363 312 365 q 309 367 308 365 l 309 369 l 311 370 q 309 376 313 374 q 306 370 307 370 q 301 373 304 369 l 301 370 l 301 367 q 301 359 301 362 q 302 339 301 348 q 314 306 304 315 m 321 290 q 322 313 314 304 q 322 308 323 311 l 321 306 l 320 304 q 321 298 317 299 q 323 309 322 302 l 323 314 l 324 319 q 333 336 326 330 q 317 315 323 332 q 321 290 311 296 m 329 305 q 327 299 328 302 l 326 296 l 323 294 q 320 280 320 287 q 330 291 326 281 q 329 305 333 300 m 337 256 q 339 263 339 258 l 340 267 l 340 269 l 339 271 q 340 275 339 275 q 343 274 340 277 q 342 286 341 279 l 342 288 l 343 291 q 342 297 343 294 q 344 296 342 297 l 345 296 l 345 296 q 347 297 346 295 q 345 300 344 297 q 342 302 345 302 q 334 287 340 292 l 334 290 l 336 293 q 338 299 338 296 q 345 312 342 307 q 361 319 353 326 q 356 330 360 328 q 351 328 355 327 q 347 319 349 324 l 344 315 l 341 310 q 332 291 334 298 q 337 256 323 269 m 448 364 q 447 358 448 363 l 447 355 l 447 351 q 449 346 446 342 q 450 352 449 347 l 450 356 l 450 359 q 448 364 450 369 m 444 390 q 446 393 446 391 q 444 397 446 395 q 441 399 442 399 q 439 398 439 400 q 441 394 441 398 l 441 393 l 441 391 q 444 390 442 391 m 440 375 q 440 370 440 374 l 439 366 l 439 363 q 442 359 439 355 q 442 365 442 360 l 443 368 l 443 372 q 440 375 443 380 m 435 385 q 435 380 435 385 l 435 376 l 435 373 q 437 370 435 365 q 437 375 437 371 l 438 378 l 438 382 q 435 385 438 390 m 430 375 q 433 391 432 380 l 435 398 q 436 406 435 403 q 435 408 436 406 l 435 409 q 431 413 433 412 q 427 414 428 418 q 432 396 435 410 l 430 390 q 429 385 429 387 q 430 375 428 378 m 340 251 q 347 236 344 245 q 349 222 349 229 l 349 224 l 349 225 q 351 227 350 227 q 374 204 357 227 q 380 195 376 200 l 382 191 l 385 186 q 393 175 391 177 q 410 157 403 162 q 434 146 415 154 l 441 130 q 622 206 546 177 q 663 224 654 218 q 692 252 675 231 q 705 271 694 255 q 710 277 709 275 l 715 283 q 726 298 721 292 q 764 334 753 334 q 766 331 766 334 l 767 328 q 768 326 767 326 q 772 349 768 337 q 785 372 777 363 q 782 385 786 378 l 781 387 q 780 389 781 388 q 780 397 779 393 q 778 385 774 394 l 779 381 q 781 377 781 378 q 780 368 782 372 q 774 376 777 370 l 774 380 l 773 382 q 772 389 772 387 q 768 390 768 391 q 769 383 768 389 l 770 380 l 770 378 l 772 373 q 772 363 772 367 q 766 375 768 366 l 766 378 l 765 382 q 764 389 764 387 q 755 382 757 388 q 755 368 754 378 q 751 372 752 368 q 750 376 751 374 l 750 380 q 749 385 750 384 q 743 380 747 385 q 743 386 742 384 q 744 388 743 387 l 745 390 q 747 401 748 395 q 738 385 739 397 q 737 397 732 387 q 742 404 739 400 q 745 408 743 406 q 747 410 745 408 q 732 414 740 420 q 728 411 730 413 l 725 407 q 717 401 720 403 q 759 460 736 439 q 762 457 762 460 l 763 454 q 764 452 763 452 q 764 463 770 455 l 762 466 q 760 469 761 468 q 759 477 758 473 q 768 465 764 473 q 770 472 775 467 l 768 474 l 766 477 q 764 481 763 479 q 753 470 754 477 l 753 467 q 751 463 752 465 q 747 456 750 459 q 741 459 741 456 q 743 465 741 461 l 744 467 l 745 469 q 746 471 746 470 q 743 473 746 473 q 726 467 734 478 l 722 463 q 718 458 720 460 q 709 452 713 453 q 716 461 713 455 l 720 466 l 722 471 q 738 490 730 486 q 728 490 733 489 l 724 491 l 719 492 q 696 494 707 496 q 711 507 707 498 q 715 523 715 512 q 706 519 711 523 q 697 511 703 515 l 696 509 l 694 507 q 692 505 692 505 q 692 507 690 503 q 698 513 694 508 l 701 519 l 704 524 q 716 526 711 534 l 716 530 l 717 534 q 719 543 718 539 q 730 561 722 553 q 715 556 726 565 q 701 540 705 548 q 698 545 698 542 q 698 549 698 547 l 698 552 q 692 565 699 562 q 689 569 690 570 q 688 564 688 568 q 690 558 689 561 q 696 557 693 555 q 694 551 696 553 q 692 550 693 551 l 689 549 q 684 540 682 547 q 675 557 673 541 q 667 532 667 550 q 650 515 645 536 q 642 523 642 513 q 636 521 639 524 q 633 514 633 518 q 633 507 632 510 q 637 502 634 503 q 633 496 636 499 l 629 494 q 627 491 628 492 q 625 473 621 484 q 618 468 623 470 l 614 467 l 610 466 q 604 452 600 463 q 600 454 601 452 l 600 457 q 600 460 600 459 q 593 456 594 459 q 593 447 592 453 l 594 444 l 595 441 q 596 435 595 438 q 595 422 597 428 q 591 427 593 424 l 591 429 l 590 430 q 589 433 589 432 q 587 422 587 435 q 574 427 580 427 q 580 452 575 439 q 584 464 581 457 l 589 475 q 600 528 600 504 q 590 508 591 524 l 589 501 l 589 494 q 587 481 588 486 q 589 538 583 505 q 585 543 587 540 l 583 548 q 576 556 579 554 q 572 552 574 555 q 577 544 578 550 q 572 532 576 540 l 569 528 l 567 525 q 562 517 564 520 q 557 502 557 509 q 553 518 548 508 q 555 522 553 519 l 557 527 q 562 537 561 533 l 560 539 q 558 538 560 539 l 556 536 q 553 536 553 535 q 554 547 551 540 l 552 548 q 549 549 551 549 q 543 555 547 551 q 543 553 543 554 l 543 551 l 544 550 q 543 547 545 548 q 541 549 542 548 q 541 549 541 549 q 539 549 540 549 q 539 550 539 549 q 538 551 539 551 q 538 553 538 552 q 536 547 536 551 l 536 545 l 536 542 q 530 533 536 534 q 524 538 527 534 l 522 541 l 518 545 q 507 549 511 552 q 514 536 513 547 q 496 547 505 541 q 498 541 496 545 l 500 538 l 502 536 q 503 529 506 530 q 494 541 500 534 q 484 545 487 547 q 493 529 491 540 q 486 526 489 526 q 479 530 483 527 l 477 533 q 475 536 475 535 q 471 535 472 537 q 478 526 474 532 l 481 522 l 485 517 q 535 489 517 508 q 553 463 546 477 q 558 431 560 446 q 542 468 546 450 l 542 466 l 541 463 q 539 460 541 460 q 536 469 538 465 l 534 473 l 532 476 q 522 477 528 469 l 519 481 l 517 484 q 512 490 514 489 q 505 488 509 486 q 500 492 503 490 l 498 493 l 496 495 q 490 500 492 499 q 486 494 487 500 q 467 507 481 500 q 473 498 466 501 l 477 496 l 479 495 q 484 491 483 494 q 471 492 478 487 l 468 493 l 465 495 q 458 497 461 497 q 465 484 454 492 l 469 481 q 472 479 471 480 q 473 473 475 476 q 466 479 471 475 l 462 483 l 458 486 q 443 493 448 494 q 445 491 444 492 l 448 489 q 453 484 451 486 q 457 474 460 477 q 454 477 456 474 l 452 479 l 450 481 q 445 483 447 486 q 462 456 457 467 q 455 463 458 458 l 454 464 l 452 466 q 450 469 451 468 q 452 457 449 464 l 454 455 l 455 452 q 456 446 456 450 q 447 456 450 447 l 446 460 l 445 464 q 441 470 444 468 q 441 467 441 469 l 441 464 q 439 460 441 460 q 439 466 439 462 l 439 469 l 439 473 q 435 480 439 480 q 435 472 434 476 l 435 469 l 436 465 q 433 452 437 458 q 432 460 432 455 l 432 464 l 432 468 q 429 484 432 479 q 422 445 424 466 q 427 442 425 444 l 429 441 l 430 440 q 435 437 433 437 q 431 434 431 435 q 433 433 431 433 q 435 433 434 433 q 437 431 436 432 q 435 427 437 430 q 442 428 441 428 q 445 423 443 427 q 448 420 447 420 l 449 420 q 450 420 450 420 q 455 418 452 420 q 454 416 456 418 l 453 414 l 452 414 q 452 413 452 413 q 454 412 452 413 q 459 410 457 411 q 465 399 466 404 q 462 401 463 399 l 460 401 l 460 403 q 454 405 458 406 q 464 391 455 398 l 467 389 q 470 386 469 387 q 474 378 473 382 q 470 381 472 379 l 468 383 l 466 385 q 458 387 461 390 q 467 376 460 384 l 471 371 l 476 365 q 485 345 488 350 q 482 346 485 344 l 481 347 l 481 347 q 480 347 480 347 q 481 340 480 345 l 484 337 l 485 334 q 481 324 488 328 q 479 334 481 328 l 476 339 l 475 341 l 473 344 q 475 355 467 354 q 469 361 471 358 q 468 363 469 362 l 467 366 q 456 377 463 372 q 464 345 462 366 q 463 312 466 326 q 463 320 463 315 l 463 324 l 462 328 q 456 340 461 338 q 462 309 456 326 l 465 302 q 467 294 466 298 q 469 279 469 286 q 461 276 466 279 q 460 283 462 284 q 460 281 460 282 l 459 279 q 456 277 458 277 q 456 284 456 280 l 457 288 l 458 292 q 455 300 460 298 l 454 298 l 454 296 q 452 295 454 295 q 448 304 454 301 l 446 304 l 444 305 q 439 308 441 307 q 439 319 442 315 l 437 321 l 435 323 q 433 326 433 325 q 435 329 435 327 q 436 334 437 331 q 434 338 435 336 q 431 339 433 340 q 425 334 430 333 q 416 345 429 347 q 411 361 416 357 q 406 351 412 351 q 403 357 407 355 l 401 357 q 399 358 400 357 q 399 361 398 359 q 402 362 400 360 q 404 366 403 363 q 404 368 404 368 q 401 366 403 369 q 397 359 397 364 l 397 357 l 397 355 q 395 351 397 353 q 387 361 393 356 q 378 365 380 367 q 384 353 382 359 q 385 348 385 351 l 385 342 q 393 341 389 348 l 395 338 l 396 335 q 399 330 398 332 q 397 333 401 328 q 391 338 393 336 q 385 341 388 341 q 397 323 387 328 q 382 323 390 324 l 380 322 l 377 321 q 371 321 374 321 q 380 310 376 319 l 382 307 l 384 303 q 388 298 386 300 q 382 302 385 298 l 380 304 l 378 307 q 368 311 373 315 q 367 307 365 312 q 368 303 368 304 q 365 301 368 301 q 362 306 363 303 l 361 308 l 361 310 q 355 317 361 315 q 354 314 355 316 l 353 313 l 351 312 q 353 307 348 309 q 358 314 355 312 q 357 310 358 312 l 355 307 l 354 306 q 355 299 351 301 l 355 300 l 355 302 q 357 304 356 304 q 381 267 371 290 q 377 271 380 268 l 375 273 l 373 275 q 363 273 368 279 q 365 271 364 272 l 366 270 q 369 265 368 267 q 368 257 372 259 q 363 268 368 265 q 364 261 362 264 l 365 260 l 366 258 q 366 255 366 257 q 361 255 361 260 l 361 252 l 360 250 q 357 248 359 248 q 353 260 359 260 q 351 256 352 259 l 351 254 l 351 252 q 347 245 350 247 q 347 251 347 248 l 349 254 l 349 257 q 348 260 351 263 l 347 257 l 346 254 q 342 248 345 250 q 342 254 341 251 l 343 256 l 344 258 q 343 266 347 264 q 342 262 343 263 l 342 260 l 341 258 q 340 251 339 255 m 357 191 l 358 196 l 353 196 l 353 191 l 357 191 m 368 178 q 371 178 369 179 l 373 177 l 374 176 q 378 177 377 174 q 375 182 374 178 q 377 184 376 182 q 375 185 377 184 q 374 184 373 182 l 374 185 l 375 186 q 376 190 376 189 q 368 178 367 192 m 734 254 q 733 270 734 265 q 722 275 730 277 q 722 269 721 273 l 723 267 l 724 266 l 724 264 q 722 267 725 262 q 719 264 718 267 q 722 262 720 262 q 717 254 722 256 q 719 250 718 250 q 722 252 720 250 l 724 253 l 725 254 q 728 255 726 255 q 734 254 731 256 m 751 283 l 751 275 l 759 275 l 759 283 l 751 283 m 789 380 q 800 437 813 399 q 786 469 796 448 l 782 476 l 779 484 q 772 498 774 492 q 764 502 765 497 q 755 486 756 498 q 780 472 768 495 q 789 451 785 464 q 793 440 791 446 l 795 435 q 797 431 796 433 q 785 456 787 439 q 780 452 781 456 q 776 448 781 448 q 779 446 777 444 l 780 446 l 781 447 q 785 448 783 448 q 782 437 782 443 q 782 433 782 435 l 783 429 q 780 410 784 418 q 786 412 785 414 q 786 404 787 410 l 786 401 l 786 398 q 785 392 785 395 q 789 380 786 385 m 818 418 q 814 441 819 429 l 811 446 l 809 450 q 806 460 806 456 q 804 437 799 452 q 818 418 809 420 m 801 511 q 814 481 812 499 q 815 473 814 478 l 816 465 q 818 448 817 454 q 822 451 822 449 q 820 457 822 453 l 819 458 l 819 460 q 817 464 817 463 q 818 473 816 469 q 825 454 825 464 q 818 435 824 446 q 828 450 827 439 q 826 474 830 460 q 815 497 822 487 q 801 511 808 507 m 856 569 q 848 564 850 562 q 843 574 847 564 q 839 570 839 572 q 840 566 839 569 l 842 563 q 844 559 843 561 q 843 553 845 556 q 835 566 838 556 q 833 574 834 568 l 831 578 l 831 582 q 831 553 832 568 l 830 547 q 830 540 830 543 q 831 523 830 532 q 824 531 827 528 q 821 534 823 532 l 819 536 q 810 548 814 541 q 819 509 807 536 q 827 486 825 494 q 831 460 831 472 q 852 514 848 474 q 855 545 854 528 q 856 559 855 551 l 856 562 l 856 564 q 856 569 856 568 m 868 767 q 852 775 867 777 q 856 763 856 768 l 864 763 q 868 767 863 766 m 806 607 q 807 604 806 604 q 808 606 808 604 q 810 610 809 608 q 810 616 810 614 q 808 618 809 618 q 806 616 807 618 q 805 612 806 614 q 806 607 805 609 m 789 557 q 797 582 798 562 q 789 557 789 575 m 776 502 q 781 517 780 507 l 782 522 l 783 527 q 785 536 783 532 q 777 523 778 533 q 776 513 776 519 l 776 507 l 776 502 m 780 565 q 768 523 768 546 q 780 565 777 541 m 722 578 q 728 574 725 573 q 731 578 730 575 q 730 582 732 581 q 722 578 727 583 m 772 800 q 766 793 770 797 l 762 790 l 758 787 q 755 771 748 779 q 746 774 752 765 q 741 781 744 777 q 739 785 741 783 l 739 787 l 738 788 q 736 776 730 783 l 739 773 q 741 770 740 771 q 743 763 743 766 q 732 767 736 763 q 729 771 730 768 l 726 776 q 709 788 719 788 q 716 768 713 781 l 719 757 l 722 746 q 705 779 709 759 q 701 762 697 774 l 702 756 l 703 751 q 705 742 705 745 q 694 760 697 745 l 692 766 l 691 772 q 688 783 690 779 q 686 758 682 777 l 686 753 l 688 750 q 688 742 688 745 q 688 725 690 732 q 700 726 694 716 q 701 730 701 728 q 703 733 702 731 q 705 737 705 737 q 708 734 707 739 l 708 732 l 708 730 q 709 729 708 729 q 715 734 714 729 l 717 736 l 718 738 q 722 742 719 741 q 726 741 722 742 q 730 741 728 741 q 734 742 732 741 q 839 788 778 764 q 806 799 824 802 l 802 798 l 798 798 q 790 797 793 797 q 772 800 781 796 m 814 846 l 815 844 l 817 842 q 820 838 818 840 q 831 834 824 833 l 829 836 l 828 839 q 825 843 826 842 q 814 846 821 847 m 797 846 l 799 844 l 801 840 q 806 835 804 837 q 822 830 812 829 l 820 833 l 818 836 q 813 842 815 840 q 797 846 807 848 m 785 809 q 797 800 787 800 q 794 808 798 806 q 789 808 792 808 l 787 809 l 785 809 m 726 926 q 733 922 728 922 q 739 924 737 922 q 738 927 741 926 q 726 926 734 928 m 722 989 l 723 987 l 725 984 q 729 979 728 981 q 743 972 734 973 l 741 975 l 739 979 q 734 984 736 982 q 722 989 729 989 m 692 943 q 682 947 687 947 q 677 945 678 947 q 679 941 675 941 q 692 943 683 940 m 667 704 q 671 705 669 703 l 673 707 l 674 709 q 680 708 678 715 q 680 739 687 720 l 675 746 l 672 753 q 667 767 668 762 q 665 739 661 758 l 665 734 l 666 730 q 667 722 667 726 q 667 704 669 712 m 583 565 l 584 565 l 585 564 l 585 564 l 587 564 l 588 564 l 589 563 l 590 563 l 591 563 l 592 562 l 593 562 l 593 562 l 593 562 q 604 586 598 577 q 589 574 594 580 q 586 570 587 572 l 585 567 l 583 565 l 583 565 m 591 552 l 588 555 q 585 557 586 557 q 579 556 582 559 q 585 553 582 556 l 588 551 l 591 549 l 591 552 m 616 565 q 612 558 612 572 q 612 551 612 555 l 612 545 q 612 536 612 538 q 616 543 616 528 q 616 549 616 545 l 616 555 q 616 565 616 563 m 654 645 q 646 644 652 651 q 641 637 644 642 q 639 635 640 636 q 637 632 638 633 q 640 620 638 627 l 640 613 l 641 607 q 646 582 643 590 q 648 597 649 587 q 646 606 648 601 l 645 611 l 644 616 q 643 633 642 627 q 654 645 645 642 m 633 574 q 637 578 637 566 q 637 585 637 581 l 637 590 q 637 599 637 597 q 633 593 633 607 q 633 588 633 591 l 633 582 q 633 574 633 575 m 625 607 q 627 610 627 608 q 628 612 628 610 l 629 614 q 633 620 629 620 q 629 623 633 623 q 625 618 627 622 q 621 612 622 615 q 625 607 621 609 m 625 557 q 629 562 629 549 q 629 568 629 564 l 629 573 q 629 582 629 581 q 625 576 625 590 q 625 571 625 574 l 625 566 q 625 557 625 558 m 558 554 q 553 560 558 558 q 556 551 553 556 l 558 554 m 475 528 q 460 531 463 528 q 469 523 463 525 q 475 522 472 522 q 480 522 477 522 q 475 528 474 523 m 654 758 q 649 734 650 752 l 649 727 q 648 720 649 723 q 646 708 648 712 q 643 730 640 718 l 644 735 q 645 741 645 738 q 646 754 646 747 q 637 742 637 753 q 637 736 637 740 l 637 731 q 637 721 637 724 q 633 727 633 722 l 633 730 l 633 732 q 633 737 633 736 q 627 727 630 734 l 625 722 l 624 715 q 608 700 618 701 q 610 710 608 705 q 612 714 611 711 l 615 718 q 621 737 621 728 q 615 732 618 735 l 613 729 l 611 726 q 600 716 606 718 q 629 758 608 734 q 620 756 626 764 l 617 753 q 614 749 615 751 q 608 746 611 746 q 615 760 604 750 q 625 768 618 764 l 627 770 l 629 772 q 633 775 632 774 q 608 765 625 777 l 602 760 l 595 755 q 583 746 587 748 q 585 754 580 749 q 590 759 587 756 l 593 761 l 597 763 q 608 772 606 768 q 608 783 612 778 q 597 781 603 783 l 591 778 l 587 774 q 566 775 574 768 q 573 782 568 779 q 578 783 575 783 l 583 785 q 595 800 595 790 q 562 779 570 790 q 557 789 561 790 q 545 783 553 789 l 542 780 l 538 777 q 532 772 535 774 q 519 775 524 769 q 511 766 516 774 l 507 761 q 503 755 505 757 q 486 754 492 742 l 482 749 l 479 743 q 473 729 475 736 q 470 734 470 730 q 469 738 469 735 l 469 740 l 469 742 q 465 728 467 735 l 466 728 q 463 724 465 726 q 458 713 461 720 q 462 713 460 712 l 463 715 l 465 716 q 468 715 467 719 q 465 715 467 715 q 463 712 464 713 q 463 709 462 711 q 465 708 463 708 q 472 713 467 711 l 474 714 l 477 715 q 481 718 479 716 q 479 714 481 715 q 477 713 478 713 l 475 712 q 470 707 471 711 q 493 704 483 713 q 450 697 469 703 q 439 683 445 690 q 439 694 439 688 q 407 677 424 688 q 391 667 400 673 l 384 661 l 376 655 q 378 655 376 655 l 382 654 q 386 652 385 654 q 380 650 377 652 l 380 650 l 381 650 l 383 648 q 385 644 385 646 q 359 635 370 643 q 381 636 367 633 l 387 637 l 394 638 q 406 641 402 640 q 430 642 421 644 q 446 627 441 638 q 442 627 445 626 l 440 627 l 438 627 q 433 625 433 627 q 437 623 435 623 l 439 622 l 441 621 q 448 616 447 619 q 444 617 446 616 l 440 618 l 437 619 q 425 622 429 621 q 402 618 408 625 l 406 617 l 409 616 q 416 614 414 614 q 427 607 424 611 q 418 608 424 607 l 414 610 l 409 611 q 391 611 397 615 q 397 610 395 610 q 404 608 401 608 q 418 603 412 606 q 427 591 433 597 q 438 592 433 595 q 444 583 443 590 q 458 585 452 582 l 462 587 l 465 588 q 473 592 470 591 q 470 588 473 590 l 469 587 q 467 585 468 585 q 472 585 470 583 q 474 586 473 585 l 475 588 q 480 589 479 593 q 477 587 479 589 q 475 585 476 587 q 475 581 471 582 q 485 589 478 585 l 488 591 l 491 593 q 496 596 494 594 q 492 591 495 594 l 490 588 l 487 585 q 482 576 480 579 q 494 583 487 578 l 500 587 l 507 591 q 532 597 522 600 q 524 592 526 597 q 529 593 527 592 q 532 594 530 593 q 540 597 536 597 q 538 594 540 595 l 538 593 q 537 591 537 592 q 543 591 540 590 q 545 593 544 592 l 548 594 q 555 593 553 597 q 549 589 549 593 l 548 588 l 548 586 q 545 583 547 585 q 552 584 547 583 l 556 585 l 561 585 q 575 582 571 587 q 538 571 549 582 q 542 570 541 570 l 543 568 l 545 568 q 551 565 548 565 q 550 570 552 568 l 549 571 l 548 572 q 547 573 547 572 q 552 574 549 573 l 555 575 l 557 576 q 567 575 564 580 l 565 574 l 563 573 q 559 572 560 572 q 554 565 555 570 l 556 565 l 559 564 q 562 562 562 564 q 559 559 559 561 l 559 558 l 560 557 q 564 562 562 559 q 559 568 563 566 q 566 564 564 570 q 575 575 570 569 l 580 580 l 585 585 q 600 603 595 597 q 587 601 596 608 l 584 597 l 581 595 q 574 590 576 591 q 581 602 576 597 q 586 607 583 604 l 592 610 q 608 632 606 621 q 598 629 602 634 l 597 627 l 595 626 q 591 624 594 624 q 600 640 589 632 q 608 644 604 642 q 612 645 612 646 q 611 647 612 646 l 610 648 l 609 649 q 608 653 607 653 q 616 656 613 656 q 618 656 617 657 l 619 656 l 620 656 q 625 662 621 656 q 630 669 628 668 q 642 666 631 669 q 639 674 637 671 q 642 675 640 675 q 645 676 642 676 q 649 677 649 677 q 642 683 649 679 q 650 688 644 684 l 652 689 l 655 691 q 663 695 659 694 q 654 758 663 730 m 583 834 q 574 825 584 827 q 582 825 578 825 q 591 826 587 825 q 608 838 603 829 q 583 834 602 833 m 429 691 q 431 695 429 693 l 435 700 q 442 709 439 705 q 445 718 444 713 q 439 711 441 714 q 433 705 435 708 q 429 691 427 696 m 395 626 q 387 623 390 626 q 384 620 385 622 l 381 616 q 389 620 386 616 q 392 623 391 621 l 395 626 m 412 597 q 419 595 416 595 q 420 597 421 595 q 417 600 420 599 q 412 597 414 600 m 422 489 q 418 480 421 486 l 416 476 l 414 472 q 413 453 408 461 q 416 454 414 457 l 417 452 l 418 451 q 420 450 419 450 q 420 461 419 455 l 421 467 l 422 471 q 422 489 426 484 m 384 375 q 378 378 380 378 q 378 375 377 377 q 380 373 378 373 q 384 375 381 372 m 354 342 q 347 369 355 357 q 354 342 349 353 m 344 351 q 345 345 345 349 l 345 342 l 345 340 q 349 330 346 333 l 349 334 l 349 336 q 349 342 349 340 q 344 351 348 349 m 342 363 q 338 379 342 375 q 342 363 336 367 m 333 395 q 333 398 334 396 q 333 401 333 399 q 332 402 332 402 q 331 400 331 402 q 331 397 330 399 q 331 395 331 395 q 332 393 332 393 q 333 395 333 393 m 317 506 q 351 490 332 500 q 380 475 370 481 q 382 475 381 475 q 385 475 384 474 q 388 475 388 475 q 390 473 389 474 l 391 471 l 391 470 q 395 467 392 467 q 396 468 395 467 l 396 469 l 396 470 q 398 472 397 473 q 399 469 398 472 l 400 467 l 401 465 q 408 464 404 458 q 408 474 407 468 l 409 479 l 410 484 q 410 500 413 495 q 407 493 408 497 l 406 489 l 406 486 q 398 474 403 477 q 399 480 398 477 l 400 484 l 401 486 q 399 497 404 494 q 388 477 396 485 l 390 484 l 392 490 q 397 503 395 498 q 386 496 391 503 l 385 493 q 382 490 383 492 q 376 488 380 488 q 377 492 375 490 l 378 494 l 380 496 q 379 503 384 500 l 378 503 l 378 502 l 377 500 q 374 495 375 496 q 368 494 370 490 q 367 503 372 498 l 365 505 l 362 507 q 359 512 359 510 q 347 510 353 510 q 342 511 345 511 l 338 512 q 317 506 327 514 m 343 513 q 351 517 349 512 l 349 517 q 346 517 347 517 q 343 513 343 516 m 324 534 l 326 537 q 328 539 327 538 q 334 541 330 542 l 333 538 q 331 536 332 537 q 324 534 328 534 m 268 539 q 270 538 269 539 q 271 534 271 536 q 269 531 270 532 q 264 532 267 530 l 265 536 q 268 539 267 536 m 252 540 q 256 542 253 542 l 260 542 q 262 542 262 542 l 262 537 q 260 534 260 537 q 258 536 259 535 l 258 537 l 257 538 q 252 540 255 540 m 254 642 q 256 637 253 638 l 258 637 l 259 636 q 262 635 261 635 q 260 640 262 639 l 258 640 l 256 641 q 254 642 255 642 m 220 557 q 226 559 220 560 l 229 559 l 231 559 q 235 559 233 558 q 229 556 235 555 l 227 556 l 224 557 q 220 557 221 557 m 205 565 q 210 568 204 568 l 212 568 l 214 567 q 218 567 216 567 q 212 564 218 564 l 210 565 l 208 565 q 205 565 205 566 m 906 498 q 892 492 900 504 l 890 486 l 887 480 q 881 473 884 475 q 895 479 888 466 l 897 485 l 900 490 q 906 498 903 496 m 915 548 q 900 543 909 554 q 894 519 892 531 q 905 533 899 522 l 907 537 l 909 541 q 915 548 911 546 m 919 616 q 913 636 918 627 l 911 640 l 909 643 q 906 649 907 647 q 902 658 901 665 q 908 638 903 652 q 911 627 910 631 q 915 616 913 621 q 915 610 914 612 q 917 609 916 608 q 918 611 918 609 q 919 616 919 613 m 927 548 q 929 546 928 546 q 930 546 930 546 l 932 547 q 936 544 935 548 q 936 564 942 550 l 933 570 l 931 576 q 927 586 928 583 q 925 580 924 585 q 927 575 926 578 l 928 572 l 929 570 q 932 557 932 562 q 927 548 932 551 m 952 477 q 952 511 959 490 q 936 540 946 531 q 944 508 938 528 l 948 493 q 952 477 951 484 m 973 800 q 960 817 972 811 q 956 819 958 818 l 950 821 q 940 825 943 824 q 927 817 937 817 l 927 814 l 927 812 q 927 806 927 808 q 931 800 928 801 q 925 800 930 794 q 921 804 923 802 q 919 809 920 807 q 916 802 912 807 l 918 800 q 919 798 918 799 q 919 792 920 795 q 948 794 933 790 l 954 796 l 960 798 q 973 800 967 800 m 982 855 q 972 860 981 861 l 968 859 l 964 859 q 957 859 959 859 q 969 852 962 854 q 982 855 977 850 m 1015 813 q 982 830 1002 825 l 985 827 l 989 824 q 996 819 993 821 q 1015 813 1004 812 m 1024 637 l 1024 628 l 1032 628 l 1032 637 l 1024 637 m 1007 834 q 1020 823 1010 830 q 1032 813 1029 817 q 1028 827 1040 820 q 1017 831 1023 829 q 1012 833 1015 832 q 1007 834 1009 833 m 1007 880 q 1015 876 1006 875 l 1019 876 l 1022 876 q 1028 876 1026 877 q 1020 881 1029 882 l 1017 880 l 1013 880 q 1007 880 1009 880 m 978 867 q 987 863 978 862 l 991 863 l 996 864 q 1003 863 1000 864 q 993 868 1002 869 l 989 867 l 985 867 q 978 867 980 867 m 952 1006 q 948 1004 951 1005 l 946 1003 l 943 1002 q 940 994 938 1000 q 944 996 941 995 l 946 997 l 949 998 q 952 1006 954 1000 m 931 842 l 931 834 q 936 830 935 835 q 938 833 937 831 l 939 834 l 941 836 q 948 838 943 839 q 942 842 947 842 l 939 842 l 937 842 q 931 842 933 842 m 927 825 l 927 834 q 923 838 924 833 q 919 836 920 839 q 918 830 918 833 q 921 825 919 827 q 927 825 924 823 m 894 1057 q 890 1046 882 1053 q 898 1040 893 1042 q 906 1036 903 1037 q 901 1046 905 1041 l 897 1052 q 894 1057 895 1055 m 969 1040 q 970 1041 971 1044 q 966 1033 968 1038 q 964 1028 964 1027 q 969 1040 964 1029 m 245 663 q 248 656 248 656 q 246 659 248 656 q 245 664 245 663 q 245 663 243 667 m 199 568 q 205 572 201 570 l 209 573 l 213 575 q 220 583 222 579 q 211 584 219 581 q 201 591 202 587 q 211 595 208 591 l 206 597 q 201 597 203 597 q 193 602 195 599 q 199 603 195 602 l 203 604 l 206 605 q 212 611 215 608 q 202 608 208 610 l 197 607 l 192 606 q 175 602 179 602 q 180 606 177 605 l 183 608 l 186 609 q 197 616 195 612 q 185 616 193 620 l 182 615 l 178 614 q 171 613 174 612 q 176 618 171 616 l 178 618 q 180 619 179 618 q 181 623 181 621 q 177 623 179 624 l 175 623 l 173 621 q 168 623 170 619 q 176 628 174 625 q 172 629 174 629 q 170 627 170 628 l 168 626 q 165 624 165 624 q 163 626 164 624 q 180 640 169 637 q 203 638 189 642 l 210 637 l 215 635 q 227 632 223 633 q 246 633 239 629 q 223 644 237 635 q 254 630 238 641 q 232 648 248 640 l 224 651 l 218 654 q 203 660 208 657 q 210 660 206 661 l 212 659 l 215 658 q 224 659 221 655 l 220 661 l 217 661 q 212 665 213 663 q 216 665 214 666 l 218 664 l 219 663 q 224 665 223 661 q 195 689 215 674 q 205 686 199 688 l 210 683 l 216 680 q 233 674 228 673 q 209 688 225 680 l 203 692 l 197 695 q 184 702 190 699 q 191 705 192 701 l 191 707 l 190 709 q 191 712 189 711 q 188 711 189 711 l 187 711 l 186 710 q 180 707 184 709 q 178 716 182 718 q 174 714 176 716 q 170 711 172 713 l 170 721 q 165 717 165 723 l 165 715 q 165 713 165 713 q 162 711 164 711 q 162 714 162 712 l 162 717 q 160 721 162 721 q 159 718 159 720 l 158 715 l 158 713 q 152 709 157 708 q 153 711 153 709 q 155 717 155 714 q 153 724 156 723 q 140 723 152 720 l 135 724 l 130 726 q 121 728 124 728 q 160 736 135 741 l 165 735 l 170 734 q 178 732 175 732 q 194 735 189 731 q 199 730 194 729 q 201 732 201 730 l 200 733 l 200 734 q 201 734 200 734 q 216 729 206 732 l 224 726 q 231 724 228 725 q 247 705 248 718 q 252 705 249 704 l 255 705 l 258 706 q 267 703 264 708 q 256 694 259 702 q 263 695 260 695 q 265 694 264 694 l 267 693 q 275 693 270 690 q 272 689 274 691 l 270 688 l 268 686 q 266 680 262 682 q 267 682 267 681 l 269 683 q 274 686 272 685 q 281 685 280 689 q 275 683 277 686 q 273 680 274 682 l 271 677 q 284 680 279 676 q 283 677 284 678 l 281 676 l 281 675 q 279 670 277 673 q 289 671 281 667 l 292 673 l 296 674 q 302 676 299 676 q 312 698 305 682 q 318 710 316 705 q 324 724 321 718 q 360 772 341 756 q 361 768 360 770 l 362 768 l 363 767 q 365 761 366 765 q 362 754 364 758 l 360 751 l 357 748 q 353 739 352 741 q 355 741 354 741 l 357 743 l 359 743 q 352 734 353 737 q 358 736 351 729 q 354 729 357 733 q 347 722 352 726 q 342 715 340 715 l 347 719 l 351 722 q 361 729 357 727 q 382 740 372 736 q 363 721 377 731 l 358 717 l 353 712 q 344 703 348 707 q 355 709 349 705 l 359 712 l 364 715 q 389 724 376 724 q 389 718 389 722 l 389 714 l 388 711 q 390 701 387 703 q 393 709 391 711 q 395 707 395 709 q 395 703 395 705 q 397 705 397 703 l 398 707 l 398 710 q 401 715 398 715 q 401 710 402 713 l 401 707 l 400 704 q 400 698 398 698 q 403 703 402 699 l 404 705 l 405 708 q 409 718 406 715 q 409 715 409 717 l 409 711 q 411 707 409 708 q 420 725 412 718 q 417 713 419 720 l 414 707 l 412 702 q 408 682 406 688 q 413 694 410 687 l 415 701 l 418 707 q 430 730 424 722 q 428 722 430 726 l 426 718 l 423 713 q 421 699 418 704 q 425 707 422 701 l 428 711 l 431 715 q 440 724 436 726 q 434 715 438 721 l 431 711 l 427 706 q 420 686 418 694 q 432 707 425 697 q 446 722 439 718 q 481 775 458 753 q 566 817 513 805 q 572 825 568 820 l 578 833 q 591 846 585 842 q 584 847 588 850 q 580 844 583 846 l 578 842 l 576 839 q 566 833 570 833 q 553 838 559 831 q 570 863 557 855 q 553 857 565 867 q 536 838 542 848 q 535 844 534 840 q 540 850 536 846 l 542 852 l 543 854 q 547 859 545 857 q 549 867 549 863 q 519 851 536 858 q 532 872 522 868 q 513 865 525 876 l 508 860 l 503 854 q 494 846 498 849 q 484 862 484 850 l 484 867 l 484 871 q 481 880 484 877 q 480 878 481 879 q 479 876 480 877 q 479 875 479 875 q 477 874 479 874 q 476 873 477 873 q 473 872 475 873 q 471 876 470 873 l 473 878 l 473 880 q 473 884 474 882 q 463 875 468 878 q 458 873 460 874 l 456 872 l 454 871 q 439 851 446 867 q 446 869 435 857 l 449 875 q 453 881 452 878 q 456 893 456 887 q 448 880 448 890 q 446 888 442 882 l 447 890 q 448 892 448 892 q 444 897 448 895 q 449 901 444 900 q 452 901 450 901 l 454 901 l 456 901 q 449 913 456 909 q 442 916 447 913 l 439 917 l 435 918 q 452 920 441 926 l 456 918 l 460 916 q 469 914 466 913 q 467 911 469 913 l 465 910 l 463 909 q 460 901 460 906 q 472 905 467 901 l 474 906 l 477 907 q 481 909 479 909 q 423 930 466 928 q 447 935 430 938 l 454 933 l 460 932 q 473 930 469 930 q 468 935 469 932 q 467 938 467 937 l 467 941 q 456 947 467 947 q 463 951 459 951 q 469 948 465 951 l 471 947 l 473 945 q 477 943 475 944 q 486 943 481 941 q 485 945 486 945 l 484 947 q 481 951 481 949 q 494 947 488 952 q 500 944 498 945 q 507 943 503 943 q 494 951 504 952 q 536 940 511 956 q 546 933 541 937 l 555 926 q 574 914 568 918 q 568 930 578 919 l 564 935 l 559 939 q 553 947 555 944 q 562 941 557 945 l 566 939 l 571 936 q 587 922 583 929 q 588 928 593 923 q 583 932 586 930 q 578 935 580 935 q 583 938 581 939 q 587 933 583 937 q 589 930 588 931 q 592 928 590 928 q 600 926 595 925 q 597 930 599 928 l 596 931 l 595 932 q 591 939 591 936 q 604 932 596 937 l 608 930 l 614 927 q 637 922 625 921 q 648 937 640 934 q 667 935 656 941 q 682 954 656 945 q 705 960 691 957 q 716 962 710 961 q 726 964 720 963 q 697 966 716 971 l 690 964 l 682 962 q 667 960 673 960 q 685 971 672 967 q 697 974 689 972 l 703 975 l 709 977 q 673 985 700 989 q 651 981 665 984 l 646 980 l 642 979 q 633 977 636 977 q 644 985 635 982 l 648 985 l 652 986 q 659 989 656 987 q 650 994 659 995 l 647 994 l 643 994 q 637 994 639 993 q 665 1017 646 1013 q 703 1015 680 1020 q 724 1010 710 1013 l 734 1007 l 744 1004 q 780 1002 767 999 q 738 1019 764 1015 q 742 1025 739 1022 q 745 1027 743 1025 l 747 1028 l 748 1029 q 749 1031 750 1030 q 738 1031 747 1031 q 745 1036 739 1035 l 747 1036 l 750 1036 q 755 1036 753 1036 l 745 1044 l 734 1052 q 715 1067 722 1061 q 674 1093 692 1083 q 566 1124 628 1119 q 584 1131 574 1130 q 604 1128 595 1133 q 595 1137 604 1134 l 592 1138 q 589 1139 591 1139 q 587 1145 587 1141 q 593 1141 589 1143 l 597 1140 l 601 1138 q 612 1128 610 1135 q 616 1131 616 1128 q 616 1135 617 1133 q 612 1139 614 1138 q 608 1141 610 1141 q 610 1145 609 1145 q 614 1141 612 1144 q 616 1139 615 1139 q 618 1137 617 1137 q 625 1137 621 1135 q 621 1152 627 1146 l 618 1154 l 616 1156 q 612 1162 613 1158 q 643 1137 625 1159 q 658 1118 650 1129 q 665 1107 661 1114 l 668 1103 l 671 1099 q 660 1127 673 1109 q 648 1141 656 1133 l 645 1144 l 642 1147 q 637 1154 639 1151 q 663 1130 648 1151 q 684 1090 676 1111 q 675 1122 688 1103 l 669 1131 l 663 1139 q 654 1154 656 1147 q 669 1138 661 1156 l 673 1131 l 677 1124 q 684 1112 681 1115 q 680 1135 688 1119 l 677 1141 l 674 1148 q 671 1162 671 1156 q 689 1123 680 1148 l 693 1113 l 696 1103 q 705 1082 701 1090 q 698 1114 707 1091 l 694 1124 q 691 1134 692 1129 q 688 1154 688 1145 q 701 1124 701 1140 q 704 1131 704 1125 l 705 1133 l 705 1136 q 705 1141 705 1139 q 711 1124 709 1137 l 712 1120 l 713 1115 q 717 1107 715 1110 q 718 1118 720 1107 l 717 1122 l 716 1127 q 717 1137 715 1133 q 722 1126 722 1136 l 722 1123 q 722 1120 722 1121 q 726 1116 723 1116 q 726 1122 726 1118 q 729 1126 728 1125 q 734 1112 733 1128 q 739 1128 739 1114 l 738 1133 l 738 1139 q 738 1149 737 1145 q 777 1134 758 1148 l 785 1128 l 792 1122 q 810 1112 802 1115 q 795 1128 804 1120 q 787 1135 792 1131 l 779 1142 q 751 1175 758 1160 q 785 1156 767 1168 q 799 1144 789 1152 l 806 1138 l 814 1133 q 806 1143 817 1131 q 795 1155 799 1150 q 789 1166 790 1162 q 799 1162 801 1155 q 789 1179 797 1168 l 791 1177 q 794 1175 793 1177 q 797 1171 796 1173 q 791 1186 800 1173 l 787 1192 q 784 1197 785 1194 q 780 1208 781 1203 q 783 1217 779 1215 l 785 1219 l 787 1220 q 789 1225 789 1222 q 843 1143 818 1198 q 853 1122 848 1134 q 861 1101 857 1114 q 877 1065 872 1074 q 887 1061 881 1064 l 892 1059 l 897 1056 q 915 1053 909 1049 q 911 1062 916 1059 l 909 1063 l 908 1065 q 906 1069 906 1067 q 927 1065 914 1063 l 926 1067 l 924 1070 q 922 1074 923 1072 q 910 1078 918 1078 q 923 1079 913 1084 q 930 1074 926 1077 q 933 1072 932 1073 q 936 1069 935 1070 q 933 1078 941 1072 l 930 1081 q 926 1084 928 1083 q 923 1090 923 1088 q 931 1088 928 1087 q 936 1090 933 1088 q 939 1092 937 1091 q 942 1093 940 1093 q 952 1090 946 1093 q 936 1107 949 1103 q 951 1111 940 1114 l 956 1109 l 960 1108 q 969 1107 966 1106 q 996 1138 968 1128 q 1008 1141 1001 1139 l 1015 1143 l 1021 1145 q 1045 1154 1037 1149 q 1047 1152 1047 1153 q 1047 1150 1047 1151 l 1046 1149 q 1049 1145 1045 1145 q 1057 1154 1057 1143 q 1082 1147 1067 1146 q 1097 1149 1088 1148 l 1105 1151 l 1113 1152 q 1145 1154 1133 1156 q 1175 1137 1163 1150 q 1161 1134 1171 1136 l 1153 1132 q 1145 1130 1148 1131 q 1124 1133 1125 1126 q 1120 1120 1118 1131 q 1122 1112 1120 1116 q 1124 1107 1124 1108 q 1115 1114 1117 1106 l 1114 1118 l 1114 1122 q 1112 1128 1114 1126 q 1108 1122 1109 1127 l 1108 1119 l 1108 1116 q 1108 1112 1108 1113 q 1103 1114 1104 1111 q 1103 1118 1103 1116 l 1103 1120 l 1103 1122 q 1103 1128 1104 1126 q 1095 1128 1101 1131 l 1095 1112 q 1088 1118 1092 1115 q 1082 1122 1084 1121 q 1078 1107 1075 1123 q 1068 1112 1072 1109 l 1067 1113 l 1065 1114 q 1061 1116 1063 1115 q 1062 1110 1063 1114 l 1061 1107 l 1061 1105 q 1070 1099 1059 1098 q 1050 1088 1062 1094 l 1040 1083 l 1029 1078 q 990 1057 1003 1066 q 1019 1065 998 1055 l 1027 1069 l 1036 1073 q 1053 1078 1046 1077 q 1003 1040 1019 1055 q 1006 1036 1004 1036 q 1010 1038 1008 1036 l 1014 1039 q 1017 1040 1015 1040 q 1024 1040 1021 1042 q 1015 1034 1021 1036 l 1012 1034 l 1009 1033 q 1003 1031 1005 1032 q 1017 1029 1007 1025 l 1022 1030 q 1027 1031 1025 1031 q 1036 1031 1032 1033 q 1013 1022 1028 1027 l 1002 1018 q 989 1013 994 1015 q 952 985 962 1002 q 1003 1006 979 1003 q 965 989 980 994 q 996 987 975 984 q 1015 991 1003 989 l 1025 994 l 1036 996 q 1073 996 1059 1000 q 1099 972 1091 991 q 1097 970 1098 969 q 1093 973 1095 970 q 1090 976 1091 975 q 1087 978 1088 977 q 1078 977 1083 979 q 1091 968 1082 972 q 1088 964 1090 964 q 1083 966 1086 964 l 1080 968 q 1077 969 1079 968 q 1070 968 1074 970 q 1078 960 1070 963 q 1084 958 1082 959 q 1087 951 1086 956 q 1074 954 1081 951 q 1069 956 1072 954 l 1063 959 q 1045 960 1051 965 q 1061 947 1047 952 l 1066 945 q 1071 942 1069 943 q 1078 935 1076 939 q 1052 941 1072 934 l 1044 944 l 1035 947 q 1020 951 1025 950 q 1027 942 1015 947 q 1034 940 1030 941 l 1040 938 q 1049 935 1047 936 q 1036 929 1045 931 q 1028 928 1033 928 l 1020 926 q 1036 918 1023 919 q 1019 907 1033 912 q 1003 905 1005 903 q 1015 893 1000 901 l 1021 890 l 1027 887 q 1036 880 1034 883 q 1236 924 1133 923 q 1334 907 1293 924 q 1402 851 1381 889 q 1375 854 1392 846 q 1356 876 1357 863 q 1342 872 1349 865 q 1339 876 1341 873 l 1336 880 q 1331 884 1333 884 q 1330 882 1334 884 q 1319 880 1326 880 q 1304 884 1312 880 q 1289 897 1295 888 q 1246 894 1265 892 q 1204 909 1227 897 q 1211 899 1209 905 q 1211 894 1211 897 l 1211 888 q 1221 867 1212 876 q 1210 873 1217 868 q 1203 877 1207 874 l 1199 880 l 1195 882 q 1158 897 1174 897 q 1177 882 1164 890 l 1182 878 l 1187 875 q 1196 867 1192 871 q 1186 869 1195 863 q 1175 880 1178 875 q 1173 876 1168 879 l 1176 873 l 1178 872 q 1179 867 1180 869 q 1167 873 1173 869 l 1162 876 l 1157 879 q 1133 888 1143 887 q 1152 873 1139 882 l 1156 870 l 1162 867 q 1171 859 1167 863 q 1153 866 1167 857 l 1147 869 q 1141 873 1144 871 q 1129 876 1135 876 q 1137 867 1130 871 l 1139 865 l 1141 863 q 1145 859 1145 862 q 1127 863 1137 863 q 1119 863 1124 863 l 1114 863 l 1110 863 q 1078 876 1090 862 q 1078 867 1076 871 q 1088 859 1081 864 l 1095 856 q 1100 852 1098 854 q 1108 842 1107 847 q 1092 849 1105 840 l 1087 852 q 1082 856 1084 854 q 1070 859 1075 859 q 1077 851 1071 854 l 1080 850 l 1082 849 q 1087 846 1085 848 q 1076 842 1076 843 q 1082 830 1075 840 q 1074 832 1079 831 l 1070 831 l 1067 831 q 1053 838 1058 831 q 1052 836 1053 838 l 1051 833 q 1050 831 1050 831 q 1041 834 1047 826 q 1073 823 1044 821 q 1086 824 1078 823 l 1093 825 l 1099 825 q 1124 825 1116 827 q 1126 821 1128 825 l 1126 820 l 1125 818 q 1124 813 1124 815 q 1223 793 1175 826 q 1289 721 1259 768 q 1282 720 1286 715 q 1278 724 1280 722 l 1276 728 l 1274 730 q 1267 736 1269 736 q 1263 725 1263 736 q 1247 752 1258 739 l 1242 757 l 1238 762 q 1230 771 1232 768 q 1227 766 1225 769 l 1227 764 l 1228 762 q 1230 758 1230 760 q 1223 757 1229 754 q 1219 760 1221 758 l 1216 762 l 1213 764 q 1204 766 1206 768 q 1200 754 1200 765 q 1190 762 1196 757 l 1185 766 l 1180 770 q 1158 783 1168 781 q 1165 765 1160 774 l 1168 762 l 1170 758 q 1175 750 1173 753 q 1164 758 1171 751 q 1157 765 1161 760 l 1154 768 l 1150 772 q 1116 796 1131 793 q 1126 785 1120 791 l 1131 781 l 1136 776 q 1154 754 1148 763 q 1134 767 1148 753 l 1128 772 l 1123 779 q 1112 788 1116 785 q 1114 779 1107 785 l 1118 776 q 1121 773 1120 774 q 1124 767 1124 770 q 1122 769 1124 768 l 1120 770 l 1118 770 q 1112 775 1113 772 q 1112 768 1106 773 l 1116 766 q 1118 764 1117 765 q 1120 758 1121 761 q 1105 766 1114 763 l 1098 770 l 1090 772 q 1061 792 1072 780 q 1070 777 1059 787 q 1091 763 1080 767 q 1080 764 1089 757 q 1070 775 1072 769 q 1082 753 1065 762 q 1090 749 1085 751 l 1098 746 q 1112 737 1107 741 q 1116 731 1114 736 l 1116 728 l 1118 724 q 1129 721 1120 715 q 1103 717 1121 710 l 1099 718 l 1095 720 q 1087 722 1090 722 q 1070 725 1078 726 q 1125 702 1090 713 l 1140 697 l 1155 692 q 1183 683 1172 687 q 1180 678 1182 679 q 1175 680 1179 678 l 1173 682 q 1170 684 1171 683 q 1162 683 1166 684 q 1160 686 1161 685 q 1160 686 1160 686 q 1160 684 1159 686 q 1161 682 1160 684 q 1166 678 1163 679 q 1175 679 1171 676 q 1166 675 1173 671 l 1163 676 l 1160 678 q 1154 679 1156 680 q 1171 669 1152 675 l 1178 666 l 1185 663 q 1196 658 1193 661 q 1168 660 1185 651 l 1160 663 q 1153 667 1156 665 q 1137 670 1144 670 q 1213 628 1166 652 q 1208 623 1212 623 q 1205 624 1207 623 l 1204 625 l 1202 625 q 1196 627 1198 628 q 1196 620 1195 627 q 1217 611 1212 621 q 1215 606 1217 606 q 1211 608 1213 606 l 1209 610 l 1208 610 q 1206 611 1206 611 q 1204 607 1204 612 q 1219 591 1208 597 q 1231 586 1224 588 l 1236 584 l 1242 582 q 1229 577 1227 580 q 1246 569 1230 574 q 1244 567 1246 568 l 1242 566 l 1241 564 q 1238 557 1238 562 q 1255 544 1257 559 q 1251 543 1254 541 l 1249 543 l 1247 544 q 1242 544 1244 545 q 1267 519 1265 523 q 1254 523 1265 515 q 1249 526 1251 526 q 1244 529 1246 528 q 1234 532 1239 532 q 1252 518 1238 524 l 1257 515 l 1263 513 q 1272 507 1268 510 q 1261 509 1266 508 l 1260 509 l 1258 509 l 1255 509 q 1242 515 1251 510 q 1247 505 1243 509 q 1251 502 1249 504 l 1254 501 l 1256 500 q 1265 494 1262 496 q 1272 481 1270 489 q 1264 487 1268 483 l 1261 490 l 1257 494 q 1238 502 1249 502 q 1237 470 1240 488 l 1236 463 l 1234 455 q 1234 439 1234 447 q 1230 456 1227 444 l 1232 462 l 1233 467 q 1234 477 1234 473 q 1225 465 1226 477 l 1225 459 q 1225 454 1225 456 q 1221 448 1224 449 q 1221 460 1219 448 l 1221 465 l 1222 471 q 1221 481 1223 477 q 1212 461 1217 474 l 1208 450 l 1204 439 q 1206 460 1200 445 l 1209 466 q 1211 472 1211 469 q 1213 486 1214 479 q 1204 469 1207 482 l 1203 464 q 1202 458 1202 460 q 1196 452 1200 454 q 1192 456 1192 453 q 1194 461 1192 457 l 1195 463 l 1196 465 q 1197 469 1196 467 q 1196 477 1198 473 q 1188 469 1190 462 q 1192 490 1187 477 q 1185 484 1190 494 q 1182 475 1184 481 q 1179 469 1181 472 q 1177 480 1171 473 l 1180 483 q 1182 486 1181 485 q 1183 494 1185 490 q 1175 487 1179 493 l 1175 484 l 1173 481 q 1171 477 1172 479 q 1166 484 1166 477 l 1166 488 q 1165 490 1166 489 q 1162 494 1164 493 q 1160 494 1158 500 q 1160 490 1160 492 l 1161 487 q 1162 481 1162 483 q 1150 507 1146 484 l 1147 505 q 1145 503 1145 504 q 1141 498 1142 501 q 1137 509 1141 505 q 1134 511 1136 510 l 1132 511 l 1130 513 q 1123 517 1125 514 q 1120 532 1120 522 q 1123 534 1121 534 q 1125 534 1124 534 l 1127 533 q 1133 532 1131 532 q 1137 536 1135 532 q 1132 536 1136 534 l 1130 538 l 1128 539 q 1124 541 1126 541 q 1116 532 1115 546 q 1109 541 1109 535 q 1114 550 1109 543 l 1115 553 l 1117 555 q 1120 562 1119 559 q 1120 578 1123 570 q 1112 553 1113 571 q 1110 556 1112 554 l 1109 559 q 1105 566 1106 565 q 1099 557 1102 572 q 1099 583 1096 563 l 1101 591 l 1102 600 q 1103 616 1104 610 q 1089 590 1096 608 l 1086 583 l 1084 575 q 1078 561 1081 566 q 1074 564 1074 562 q 1076 569 1074 566 l 1078 572 q 1079 574 1078 573 q 1078 582 1080 578 l 1077 580 l 1075 578 q 1071 574 1073 576 q 1057 574 1066 571 q 1061 595 1056 584 l 1063 600 q 1065 604 1064 602 q 1066 616 1066 610 q 1046 614 1056 616 q 1037 612 1042 614 l 1029 610 q 994 611 1009 606 q 1007 601 996 605 l 1011 600 q 1015 597 1013 598 q 1020 590 1019 595 q 1003 598 1013 593 l 996 602 l 987 606 q 952 620 968 617 q 963 610 956 614 q 970 607 966 609 l 977 604 q 999 586 994 595 q 982 593 991 587 l 979 595 q 975 597 977 596 q 965 599 970 599 q 974 591 968 595 q 979 588 976 589 l 985 585 q 1003 569 999 578 q 987 575 995 569 l 985 578 q 982 580 983 579 q 973 582 978 582 q 990 565 979 572 q 1000 558 994 562 l 1006 555 l 1011 553 q 989 559 1004 549 l 985 560 l 983 562 q 975 566 979 564 q 961 569 968 570 q 988 551 972 562 l 1002 541 l 1015 532 q 1013 528 1015 528 q 1008 531 1011 528 l 1004 533 q 1002 535 1003 534 q 994 536 998 537 q 1024 511 1005 518 q 1010 509 1016 508 q 1006 511 1008 510 l 1004 512 l 1002 513 q 994 517 997 516 q 982 515 989 517 q 1011 490 995 506 l 1017 485 l 1023 479 q 1036 469 1030 473 q 1027 468 1036 463 q 1020 473 1023 470 q 1015 477 1017 475 q 1015 467 1007 473 q 1022 463 1017 465 q 1025 461 1023 462 l 1027 460 l 1028 460 q 1021 452 1027 455 l 1019 451 l 1016 450 q 1011 448 1013 449 q 1017 439 1012 443 l 1020 437 l 1021 435 q 1024 431 1023 433 q 999 448 1006 439 q 1010 428 1000 440 l 1015 423 l 1019 418 q 1028 406 1025 411 q 1013 415 1021 410 l 1006 420 l 999 425 q 969 444 981 437 q 960 427 966 437 l 949 410 q 931 376 938 391 q 935 399 930 385 q 944 422 938 410 q 902 431 920 426 q 905 441 902 436 q 907 445 905 443 l 909 449 q 915 469 916 458 q 909 469 904 458 q 911 473 910 470 l 913 477 l 915 479 q 919 490 918 486 q 890 467 903 484 q 869 427 880 453 q 859 402 865 418 l 857 395 l 854 389 q 848 375 850 381 q 822 317 835 341 q 715 196 784 244 q 581 126 671 165 l 552 114 l 524 101 q 467 74 491 87 q 497 -12 492 35 q 497 -34 499 -27 q 490 -42 495 -41 q 475 -43 486 -43 l 470 -43 l 465 -43 q 454 -43 458 -42 q 454 -26 453 -35 l 454 -18 l 455 -11 q 456 22 457 10 q 450 39 456 28 l 447 44 l 444 49 q 439 58 441 54 q 378 12 405 37 q 354 -12 366 5 q 350 -18 353 -14 l 348 -20 l 346 -23 q 338 -33 342 -30 q 338 -40 338 -36 l 338 -42 l 337 -44 q 336 -49 336 -47 q 273 -64 308 -63 q 205 -58 247 -65 q 266 37 208 -8 q 318 72 288 55 q 370 98 340 84 l 414 118 q 315 218 344 157 q 300 254 308 233 l 298 263 l 295 271 q 290 287 292 281 q 260 326 277 320 q 263 320 261 324 l 264 317 q 266 313 266 314 q 262 313 269 307 q 266 301 262 307 l 267 298 l 268 296 q 269 290 269 293 q 243 286 258 288 q 248 271 247 278 q 250 257 251 262 q 240 279 246 267 l 234 289 l 229 299 q 210 289 222 296 l 201 283 q 192 278 196 280 q 197 285 194 281 l 200 288 l 203 291 q 211 302 210 298 q 195 293 205 298 q 197 296 195 295 l 198 297 l 199 298 q 203 303 203 300 q 200 304 202 304 l 199 305 l 197 306 q 193 311 193 308 l 194 311 l 195 312 l 197 313 q 201 315 200 314 q 201 321 206 318 q 199 319 201 320 q 195 316 197 317 q 189 317 189 313 q 197 323 193 319 l 201 326 l 204 330 q 223 343 215 338 q 211 343 217 347 l 208 342 q 205 341 207 341 q 197 342 202 340 q 216 357 209 346 q 212 356 214 357 l 210 355 l 208 354 q 203 355 203 351 l 212 360 l 220 366 q 237 376 231 372 q 229 374 233 376 l 224 372 l 220 370 q 206 367 210 365 l 213 370 q 219 374 217 372 q 230 384 227 378 q 224 383 227 385 l 222 382 l 221 380 q 212 377 216 376 q 223 387 214 382 l 227 388 l 230 389 q 235 394 233 391 q 225 391 231 394 l 223 389 l 220 389 q 214 387 218 387 q 229 397 218 393 l 233 399 l 237 401 q 243 407 241 404 q 222 399 234 406 l 217 397 l 212 395 q 202 391 206 392 q 205 395 203 393 q 210 397 206 395 q 215 399 214 397 q 218 403 217 400 q 197 403 209 399 l 192 404 q 186 406 189 406 q 174 407 180 408 q 175 400 174 404 l 176 397 l 177 395 q 178 381 180 387 q 170 382 173 380 q 168 385 169 383 l 167 386 l 165 387 q 165 382 165 385 l 166 380 l 167 379 q 165 374 170 375 q 162 383 163 378 l 161 388 l 159 392 q 151 408 156 404 q 152 399 151 405 l 153 393 l 153 389 q 153 372 155 376 q 149 378 151 381 q 147 374 149 377 l 146 372 l 144 370 q 140 385 144 381 q 140 376 138 380 q 142 372 140 374 l 142 370 l 144 368 q 146 362 146 364 q 141 357 146 359 q 137 363 142 366 l 134 362 l 132 361 q 129 360 130 359 q 132 358 130 358 q 135 359 133 357 q 139 357 138 359 q 133 346 139 348 l 130 345 q 128 344 129 345 q 125 337 125 342 q 123 340 125 339 l 122 342 l 120 342 q 112 328 122 328 q 113 331 112 329 l 113 333 l 114 335 q 112 335 115 339 q 111 333 111 335 l 110 332 l 110 330 q 106 326 109 326 q 105 328 106 326 l 104 330 l 104 332 q 99 336 102 335 q 100 332 98 334 l 101 330 l 103 328 q 101 320 106 323 q 100 325 100 322 q 98 330 99 328 q 94 334 95 336 q 96 321 96 326 q 91 326 95 317 q 90 321 90 323 l 91 319 l 92 316 q 90 311 94 312 q 87 315 88 312 l 87 318 l 86 321 q 81 332 85 330 q 82 323 81 328 l 83 319 l 85 315 q 85 303 88 307 l 83 310 l 81 317 q 76 329 79 325 q 75 323 75 327 l 75 319 l 76 316 q 75 309 77 309 q 73 313 73 310 l 73 316 l 73 319 q 68 327 73 327 q 68 321 68 325 l 69 318 l 70 315 q 67 304 72 307 q 67 314 68 309 l 66 318 l 66 323 q 66 342 65 334 q 54 338 60 342 l 52 336 l 50 334 q 45 330 47 332 q 50 338 47 335 q 56 342 52 340 q 64 351 63 345 q 46 346 62 349 q 52 350 48 348 l 55 351 l 58 353 q 70 360 67 356 q 63 359 66 361 l 60 357 l 57 356 q 49 353 50 351 q 65 368 50 356 q 62 368 63 369 l 60 368 l 60 368 q 57 369 58 366 q 68 376 56 378 q 66 380 68 379 l 65 381 l 64 382 q 63 384 63 383 q 74 388 73 387 q 66 391 75 389 l 69 393 l 73 393 q 80 396 77 395 q 90 406 87 399 q 86 407 90 410 q 83 406 84 406 q 82 409 82 406 q 95 413 85 414 q 95 418 96 417 q 92 417 94 418 l 90 416 q 87 416 88 416 q 85 418 85 416 q 132 442 115 433 q 123 441 128 443 l 118 439 l 113 437 q 96 436 102 432 q 103 439 98 438 l 108 441 l 112 442 q 122 448 123 446 q 119 448 121 448 l 117 447 l 115 446 q 109 448 111 444 q 115 448 112 447 q 118 450 117 448 q 119 452 119 451 q 119 452 119 452 q 119 452 119 453 q 117 451 118 452 q 113 451 115 452 l 111 450 l 109 450 q 104 451 105 448 q 122 456 111 454 l 132 459 l 140 462 q 175 474 163 468 q 164 473 170 475 l 159 471 l 155 470 q 139 473 143 467 q 146 475 144 470 l 146 477 l 147 479 q 149 483 149 481 q 159 488 153 485 l 163 490 l 168 492 q 176 505 179 496 q 170 498 175 501 q 163 498 164 494 q 176 505 170 500 q 182 515 184 511 q 163 503 175 507 l 159 502 l 154 500 q 145 496 149 498 q 146 499 144 497 l 149 500 l 150 501 q 151 506 154 505 q 147 503 150 504 l 146 503 l 144 502 q 142 501 143 502 q 145 505 142 503 l 147 507 l 149 508 q 151 513 154 511 q 144 508 148 512 l 140 505 l 137 501 q 124 494 128 493 q 136 507 128 499 l 142 513 q 149 519 146 516 q 127 505 140 517 l 123 500 q 119 496 120 498 q 111 492 114 493 l 115 496 l 118 501 q 123 512 121 507 q 109 505 116 511 l 106 502 l 102 499 q 96 495 99 497 q 89 501 97 507 l 87 500 l 85 499 q 82 498 83 498 q 78 498 79 496 q 79 501 79 500 l 80 502 l 80 503 q 79 507 81 505 q 73 501 77 505 l 71 498 l 67 495 q 57 479 60 488 q 55 486 57 486 q 50 483 54 486 l 50 481 l 48 479 q 45 477 46 477 q 41 477 43 474 q 83 519 60 505 q 144 529 114 538 q 144 532 144 530 l 143 533 l 143 534 q 144 537 142 536 q 159 536 150 537 l 168 534 q 176 534 172 534 q 195 540 194 532 q 190 538 192 535 l 189 539 l 189 541 q 188 543 189 543 q 180 538 185 538 l 178 539 l 175 539 q 170 538 172 539 q 174 546 175 545 q 168 549 174 547 q 171 550 169 549 l 172 551 l 174 551 q 178 556 178 553 q 172 554 176 556 l 168 552 l 165 550 q 155 547 157 545 q 160 552 156 549 l 163 555 l 168 557 q 174 566 176 562 q 154 559 166 558 l 149 559 l 144 560 q 132 558 138 560 q 135 561 133 559 l 136 562 l 138 562 q 143 568 142 564 q 135 566 140 568 l 132 564 l 127 562 q 117 559 119 557 q 123 563 119 561 l 126 565 l 129 567 q 140 576 137 572 q 126 570 134 575 l 123 568 l 119 567 q 112 564 115 565 q 113 566 111 565 l 114 568 l 116 568 q 115 572 119 570 q 108 565 113 568 q 102 564 102 562 q 108 569 104 566 l 111 570 l 114 572 q 125 581 122 577 q 102 574 116 582 l 98 570 q 94 568 95 569 q 86 565 89 565 q 93 578 92 570 l 93 581 l 94 584 q 98 590 95 587 q 72 582 83 583 q 46 585 60 581 q 37 577 42 580 q 27 576 32 575 q 20 576 23 576 q 20 578 18 578 q 16 576 18 578 l 15 573 l 13 571 q 5 574 8 567 q -7 561 3 566 q -24 559 -18 557 q 79 600 3 604 q 199 568 142 596 m 33 300 q 32 301 32 300 q 32 303 32 302 l 33 305 q 31 305 35 309 q 42 324 31 313 q 52 332 45 327 l 57 336 q 61 340 59 338 q 63 313 63 330 l 63 305 l 63 298 q 64 283 63 289 q 60 293 62 283 q 57 309 57 302 q 54 301 54 309 l 54 298 l 54 294 q 54 289 54 291 q 51 292 51 284 l 52 296 l 52 299 q 52 304 52 304 l 49 300 l 46 294 q 49 287 50 294 l 48 284 l 48 281 q 48 277 47 278 q 45 284 45 277 l 45 287 l 46 290 q 46 294 47 292 q 35 264 37 277 q 32 286 28 271 q 36 296 33 290 l 37 299 l 37 301 q 39 305 39 304 l 37 304 l 35 303 q 33 300 34 302 m 197 273 q 208 285 197 278 q 218 290 213 288 q 229 294 223 292 q 231 287 229 290 l 233 284 l 235 281 q 234 277 235 279 l 233 276 l 232 275 q 230 266 229 271 q 231 267 231 267 l 233 269 l 233 269 q 235 269 235 271 q 237 266 235 266 q 237 263 237 263 q 235 264 236 263 l 234 264 q 232 260 231 267 q 227 273 227 265 l 227 277 l 227 280 q 226 287 226 284 q 212 277 220 284 l 209 275 l 205 272 q 199 267 202 269 q 200 269 199 267 q 203 271 201 270 q 208 278 206 275 q 208 281 210 281 q 197 273 206 280 m 204 267 q 212 273 205 268 q 220 279 218 278 q 218 276 225 283 q 203 263 212 271 q 192 255 193 255 q 204 267 191 254 m 206 246 q 201 248 206 250 q 195 242 196 245 q 204 258 193 250 l 208 262 l 213 266 q 220 274 218 271 q 231 251 227 267 l 233 244 l 235 237 q 238 224 237 229 q 233 231 235 226 l 231 234 l 231 236 q 229 240 230 239 q 227 235 224 239 l 227 233 l 228 231 q 228 227 229 229 q 224 232 226 224 l 224 235 l 223 239 q 221 243 222 242 q 219 242 219 243 q 220 240 219 241 l 220 237 q 216 233 222 231 q 216 224 214 229 l 217 222 l 218 220 q 217 215 218 218 q 215 215 216 210 q 215 223 214 220 q 212 218 212 223 l 212 216 l 211 215 q 210 213 211 214 q 207 223 206 214 l 208 227 l 208 230 q 208 236 208 234 q 203 229 205 234 q 206 240 200 232 q 212 246 208 243 q 216 251 214 249 q 205 243 212 253 l 203 239 l 200 235 q 195 229 197 231 q 197 237 192 232 l 200 240 l 202 242 q 206 246 205 245 m 480 522 q 475 522 477 522 q 469 523 472 522 q 460 531 463 525 q 475 528 463 528 q 480 522 474 523 m 283 315 q 275 319 279 311 l 274 323 l 273 326 q 269 331 271 330 q 277 327 273 335 l 278 323 l 280 320 q 283 315 281 316 m 591 552 l 591 549 l 588 551 l 585 553 q 579 556 582 556 q 585 557 582 559 q 588 555 586 557 l 591 552 m 216 539 q 214 538 215 538 l 210 537 q 203 535 206 536 q 200 527 196 531 q 208 533 203 529 l 212 536 q 216 539 214 537 m 210 526 q 222 529 217 526 q 227 532 224 530 l 229 534 l 231 536 q 210 526 218 533 m 273 423 q 275 429 277 433 q 271 416 275 425 l 269 410 q 267 403 267 406 q 267 399 267 401 q 265 399 266 399 q 264 400 264 399 q 264 403 264 401 q 268 416 264 410 l 269 418 l 271 420 q 273 423 272 422 m 427 414 q 431 413 428 418 q 435 409 433 412 l 435 408 q 436 406 436 406 q 435 398 435 403 l 433 391 q 430 375 432 380 q 429 385 428 378 q 430 390 429 387 l 432 396 q 427 414 435 410 m 444 390 q 441 391 442 391 l 441 393 l 441 394 q 439 398 441 398 q 441 399 439 400 q 444 397 442 399 q 446 393 446 395 q 444 390 446 391 m 195 393 q 193 392 194 391 q 190 393 191 392 q 187 397 189 395 q 187 401 186 399 q 192 399 192 404 l 192 397 q 192 395 192 395 q 195 393 193 393 m 258 385 q 259 382 260 385 q 258 378 259 380 l 256 375 q 254 368 254 371 q 257 362 254 364 q 256 361 257 361 l 255 361 l 254 361 q 252 360 252 363 q 252 372 248 364 l 254 376 l 256 379 q 258 385 258 383 m 309 376 q 311 370 313 374 l 309 369 l 309 367 q 309 363 308 365 q 314 370 312 365 l 315 375 l 317 380 q 316 362 316 372 l 316 359 q 316 355 316 357 q 315 345 316 350 q 320 349 318 347 l 321 351 l 323 352 q 329 359 326 355 q 322 335 330 352 q 316 321 318 327 q 314 306 314 313 q 302 339 304 315 q 301 359 301 348 q 301 367 301 362 l 301 370 l 301 373 q 306 370 304 369 q 309 376 307 370 m 347 369 q 354 342 355 357 q 347 369 349 353 m 252 357 q 246 338 250 351 l 243 329 q 240 319 241 323 q 241 340 237 328 q 252 357 245 353 m 467 348 q 471 340 469 345 q 471 335 471 338 l 471 330 q 468 335 470 327 q 467 348 467 342 m 333 336 q 324 319 326 330 l 323 314 l 323 309 q 321 298 322 302 q 320 304 317 299 l 321 306 l 322 308 q 322 313 323 311 q 321 290 314 304 q 317 315 311 296 q 333 336 323 332 m 356 330 q 361 319 360 328 q 345 312 353 326 q 338 299 342 307 q 336 293 338 296 l 334 290 l 334 287 q 342 302 340 292 q 345 300 345 302 q 347 297 344 297 q 345 296 346 295 l 345 296 l 344 296 q 342 297 342 297 q 343 291 343 294 l 342 288 l 342 286 q 343 274 341 279 q 340 275 340 277 q 339 271 339 275 l 340 269 l 340 267 l 339 263 q 337 256 339 258 q 332 291 323 269 q 341 310 334 298 l 344 315 l 347 319 q 351 328 349 324 q 356 330 355 327 m 399 315 q 395 316 397 315 l 393 317 q 391 318 393 318 q 391 319 389 319 q 394 320 392 320 q 399 319 397 320 q 399 315 400 317 m 232 258 q 237 250 235 256 q 234 250 236 245 q 232 258 231 255 m 376 190 q 375 186 376 189 l 374 185 l 374 184 q 375 185 373 182 q 377 184 377 184 q 375 182 376 182 q 378 177 374 178 q 374 176 377 174 l 373 177 l 371 178 q 368 178 369 179 q 376 190 367 192 m 413 453 q 414 472 408 461 l 416 476 l 418 480 q 422 489 421 486 q 422 471 426 484 l 421 467 l 420 461 q 420 450 419 455 q 418 451 419 450 l 417 452 l 416 454 q 413 453 414 457 m 894 1057 q 897 1052 895 1055 l 901 1046 q 906 1036 905 1041 q 898 1040 903 1037 q 890 1046 893 1042 q 894 1057 882 1053 m 940 994 q 943 1002 938 1000 l 946 1003 l 948 1004 q 952 1006 951 1005 q 949 998 954 1000 l 946 997 l 944 996 q 940 994 941 995 m 722 989 q 734 984 729 989 q 739 979 736 982 l 741 975 l 743 972 q 729 979 734 973 q 725 984 728 981 l 723 987 l 722 989 m 692 943 q 679 941 683 940 q 677 945 675 941 q 682 947 678 947 q 692 943 687 947 m 726 926 q 738 927 734 928 q 739 924 741 926 q 733 922 737 922 q 726 926 728 922 m 1007 880 q 1013 880 1009 880 l 1017 880 l 1020 881 q 1028 876 1029 882 q 1022 876 1026 877 l 1019 876 l 1015 876 q 1007 880 1006 875 m 372 872 q 367 872 370 873 q 365 871 366 871 l 362 869 q 356 871 357 865 l 356 872 l 357 873 l 358 873 l 360 874 q 366 876 363 876 q 372 872 372 878 m 978 867 q 985 867 980 867 l 989 867 l 993 868 q 1003 863 1002 869 q 996 864 1000 864 l 991 863 l 987 863 q 978 867 978 862 m 982 855 q 969 852 977 850 q 957 859 962 854 q 964 859 959 859 l 968 859 l 972 860 q 982 855 981 861 m 814 846 q 825 843 821 847 q 828 839 826 842 l 829 836 l 831 834 q 820 838 824 833 q 817 842 818 840 l 815 844 l 814 846 m 797 846 q 813 842 807 848 q 818 836 815 840 l 820 833 l 822 830 q 806 835 812 829 q 801 840 804 837 l 799 844 l 797 846 m 948 838 q 941 836 943 839 l 939 834 l 938 833 q 936 830 937 831 q 931 834 935 835 l 931 842 q 937 842 933 842 l 939 842 l 942 842 q 948 838 947 842 m 923 838 q 927 834 924 833 l 927 825 q 921 825 924 823 q 918 830 919 827 q 919 836 918 833 q 923 838 920 839 m 797 800 q 785 809 787 800 l 787 809 l 789 808 q 794 808 792 808 q 797 800 798 806 m 864 763 l 856 763 q 852 775 856 768 q 868 767 867 777 q 864 763 863 766 m 1032 637 l 1032 628 l 1024 628 l 1024 637 l 1032 637 m 810 616 q 810 610 810 614 q 808 606 809 608 q 807 604 808 604 q 806 607 806 604 q 805 612 805 609 q 806 616 806 614 q 808 618 807 618 q 810 616 809 618 m 789 557 q 797 582 789 575 q 789 557 798 562 m 722 578 q 730 582 727 583 q 731 578 732 581 q 728 574 730 575 q 722 578 725 573 m 785 536 q 783 527 783 532 l 782 522 l 781 517 q 776 502 780 507 l 776 507 l 776 513 q 777 523 776 519 q 785 536 778 533 m 759 283 l 759 275 l 751 275 l 751 283 l 759 283 m 356 872 l 356 872 l 356 871 l 356 872 m 381 876 q 397 878 386 871 l 401 882 l 406 885 q 414 888 411 888 q 399 886 410 895 l 395 883 l 390 880 q 381 876 385 876 m 425 905 l 427 905 q 429 897 429 901 q 429 893 429 895 l 429 890 q 431 880 428 884 q 433 889 432 882 l 435 895 q 435 899 435 897 q 448 905 439 911 q 441 900 444 905 q 439 895 441 898 l 439 890 q 427 876 435 876 q 418 888 424 885 q 411 879 415 886 l 407 872 l 403 866 q 385 855 393 851 q 387 857 388 856 q 385 858 387 857 q 382 859 383 859 q 380 861 381 860 q 377 867 378 864 q 360 853 372 861 l 355 850 l 351 846 q 343 838 346 842 q 342 852 336 846 q 346 856 344 854 l 349 859 q 356 863 354 861 l 355 865 l 355 867 l 355 869 l 356 869 l 356 871 q 362 869 357 865 l 365 871 q 367 872 366 871 q 372 872 370 873 q 366 876 372 878 q 360 874 363 876 l 358 873 l 357 873 l 356 872 l 357 873 l 357 874 l 357 876 l 358 876 l 359 878 l 359 878 l 359 879 l 360 880 l 361 881 l 361 881 q 368 887 363 884 l 368 887 l 369 888 l 370 888 l 371 889 l 372 890 l 373 890 l 374 891 l 376 892 l 376 892 l 378 893 l 378 894 q 385 897 382 895 l 386 897 l 387 897 l 389 898 l 390 898 l 391 899 l 393 899 l 394 899 l 396 900 l 397 901 l 399 901 l 400 901 l 401 901 l 405 902 l 406 903 l 408 903 l 409 903 l 411 903 l 412 903 l 414 904 l 415 904 l 417 905 l 418 905 l 420 905 l 421 905 l 423 905 l 425 905 m 1293 439 q 1289 443 1289 444 q 1290 438 1289 442 q 1291 435 1291 436 q 1291 432 1291 433 q 1289 431 1291 429 q 1285 436 1288 434 q 1283 437 1284 437 l 1280 439 q 1282 433 1281 437 l 1283 429 l 1284 425 q 1290 406 1289 414 q 1284 372 1295 382 q 1267 422 1282 393 q 1267 414 1267 419 l 1267 409 l 1268 405 q 1263 393 1269 394 q 1264 401 1264 395 l 1263 406 l 1263 410 q 1267 422 1262 421 l 1263 431 l 1259 439 q 1259 431 1259 437 l 1259 425 q 1259 419 1259 421 q 1255 414 1259 406 q 1255 423 1254 417 l 1255 428 l 1255 433 q 1251 448 1256 446 q 1246 420 1251 436 q 1238 406 1240 404 q 1240 429 1239 414 l 1240 441 l 1241 453 q 1246 498 1242 482 q 1253 492 1249 495 l 1257 488 l 1261 485 q 1276 470 1272 475 q 1293 439 1294 452 m 969 435 q 985 427 977 431 q 1002 418 994 422 q 1020 397 1020 406 q 1001 412 1005 410 q 1002 407 998 412 q 1010 395 1004 403 q 1014 391 1012 393 q 1015 389 1015 389 q 1005 397 1010 392 l 1000 401 l 996 406 q 973 422 983 418 q 972 412 972 418 l 971 406 l 971 400 q 961 380 969 387 q 958 387 962 390 l 956 386 q 954 385 955 385 q 952 389 952 385 q 957 393 958 389 q 960 395 958 397 l 961 393 l 962 391 q 965 389 964 389 q 962 403 966 397 l 961 406 l 959 408 q 957 414 958 411 q 960 418 958 416 l 962 420 l 964 422 q 969 435 969 428 m 982 410 q 996 399 985 407 q 1007 389 1005 391 q 1026 368 1028 368 q 1009 382 1025 368 q 985 405 994 395 q 982 410 974 415 m 1020 347 q 1011 356 1019 351 q 1003 355 1003 361 q 1008 348 1004 353 l 1013 344 l 1016 340 q 1020 326 1025 330 q 1012 336 1017 329 l 1008 343 l 1003 350 q 986 363 993 366 q 994 355 990 359 q 1002 345 998 349 q 1007 326 1011 332 q 999 338 1004 334 q 998 328 998 334 l 999 322 l 999 317 q 994 300 1000 303 q 991 304 993 301 q 991 307 991 305 l 991 309 q 986 317 990 317 q 986 304 987 312 q 982 304 984 296 q 982 313 981 309 q 983 316 983 314 l 985 319 q 986 334 988 326 q 979 342 975 332 l 979 344 l 980 345 q 981 349 981 347 q 978 351 981 351 q 974 344 976 349 q 972 338 973 342 l 971 333 q 965 326 968 320 q 966 332 964 328 l 967 334 l 968 338 q 965 347 972 345 q 962 340 963 344 l 960 336 l 958 332 q 948 321 954 323 q 956 342 951 330 l 959 353 l 962 364 q 982 401 970 390 q 993 388 985 395 q 1000 381 995 385 l 1007 375 q 1020 347 1024 359 m 957 410 q 951 395 955 399 q 947 393 949 391 q 948 398 946 394 q 957 410 950 404 m 574 825 q 583 834 584 827 q 608 838 602 833 q 591 826 603 829 q 582 825 587 825 q 574 825 578 825 m 381 876 q 390 880 385 876 l 395 883 l 399 886 q 414 888 410 895 q 406 885 411 888 l 401 882 l 397 878 q 381 876 386 871 m 1007 834 q 1012 833 1009 833 q 1017 831 1015 832 q 1028 827 1023 829 q 1032 813 1040 820 q 1020 823 1029 817 q 1007 834 1010 830 m 982 830 q 1015 813 1002 825 q 996 819 1004 812 q 989 824 993 821 l 985 827 l 982 830 m 1032 595 q 1036 597 1036 594 q 1037 600 1037 597 l 1037 603 q 1045 607 1037 610 q 1044 600 1046 604 q 1040 594 1042 597 q 1035 591 1037 592 q 1032 595 1033 591 m 780 565 q 768 523 777 541 q 780 565 768 546 m 574 511 l 575 519 q 576 527 576 524 q 583 540 578 536 q 580 518 583 530 q 574 511 577 505 m 705 486 q 701 484 703 485 l 700 484 l 699 483 q 692 481 696 480 q 693 488 690 485 q 700 489 695 489 q 706 488 704 489 q 705 486 708 486 m 961 376 q 958 363 962 371 q 952 363 954 356 q 961 376 956 372 m 454 -43 l 453 -43 l 454 -43 l 454 -43 "},"\\":{"ha":954,"x_min":-44,"x_max":902,"o":"m 380 1152 l 378 1152 q 380 1152 379 1152 m 220 800 q 214 789 216 797 l 220 791 q 220 800 218 796 m 224 793 l 229 796 l 230 800 q 231 804 231 802 q 231 815 231 810 q 224 808 225 815 q 223 802 223 805 l 224 798 l 224 793 m 230 690 l 231 688 q 237 718 233 710 q 229 711 231 715 l 229 709 l 229 708 l 229 699 l 229 697 q 230 690 229 694 m 239 819 q 234 798 234 814 q 243 802 239 800 q 241 811 242 806 l 239 815 l 239 819 m 251 821 q 250 825 250 823 q 251 821 250 823 m 266 821 q 267 809 266 815 l 268 810 l 267 815 l 266 821 m 294 827 q 287 845 290 838 q 294 827 290 836 m 414 598 q 395 554 409 566 q 415 596 411 567 q 417 622 416 607 l 417 635 q 416 624 416 629 q 414 598 416 609 m 484 644 q 481 633 486 635 q 485 644 487 635 q 483 651 484 646 l 481 654 l 482 651 q 484 644 484 646 m 587 878 l 599 883 l 603 885 l 595 885 q 589 884 591 884 q 581 886 583 884 q 587 878 583 880 m 613 890 l 630 897 l 628 899 l 625 901 q 620 904 622 903 q 608 909 612 909 q 623 897 612 900 q 613 890 610 896 m 610 885 q 625 878 617 882 q 634 879 630 879 q 614 887 623 885 q 618 883 616 885 q 610 885 615 884 m 633 902 l 636 899 q 669 911 654 906 q 655 912 664 912 l 641 912 q 615 924 625 912 q 620 911 611 918 q 628 905 623 909 l 633 902 m 669 914 q 672 911 671 912 l 682 914 l 677 917 q 671 920 674 919 q 660 924 665 924 q 665 916 661 919 l 667 915 l 669 914 m 689 915 q 701 917 695 916 l 703 917 q 664 935 683 927 q 675 924 667 930 l 682 919 l 689 915 m 698 924 q 704 918 702 922 l 707 918 l 710 918 q 705 922 709 919 l 703 923 l 701 924 q 698 924 696 927 m 716 919 q 728 920 722 920 q 718 927 724 922 l 713 930 l 709 934 q 686 942 696 942 q 701 930 690 936 l 704 927 l 709 924 q 716 919 713 922 m 488 629 q 490 646 494 635 l 487 651 l 484 656 q 481 665 481 662 q 484 656 481 661 l 487 651 l 489 646 q 488 629 494 634 m 179 895 q 182 897 183 897 l 179 895 m 227 607 q 227 610 228 610 q 227 607 227 609 m 663 899 l 662 900 q 661 900 661 901 l 663 899 m 348 488 q 350 498 349 493 q 348 488 345 495 m 348 488 l 347 483 l 346 478 q 350 472 347 473 q 351 481 352 476 q 349 484 351 482 l 348 488 m 783 520 l 779 528 l 776 536 q 776 528 775 534 l 776 518 q 772 513 775 506 q 771 521 771 516 l 772 526 l 772 530 q 768 543 773 541 q 763 519 768 533 q 757 506 759 505 q 758 527 758 514 l 758 538 l 759 548 q 764 588 760 574 q 770 583 766 585 l 774 579 l 777 576 q 791 563 787 568 q 805 536 806 547 q 803 535 801 541 l 804 532 q 804 530 804 531 q 802 528 804 527 q 799 533 801 531 l 797 534 l 794 536 q 795 530 794 534 l 797 526 l 798 523 q 802 507 802 513 q 798 476 807 485 q 783 520 795 494 m 680 996 q 657 984 670 989 q 680 996 669 992 m 508 469 q 503 469 505 462 q 511 479 507 476 q 508 469 511 475 m 284 578 q 283 576 286 578 q 280 576 281 576 l 279 575 l 278 574 q 272 572 275 572 q 273 578 271 576 q 279 580 275 580 q 284 578 283 580 m 170 614 q 175 625 172 622 q 173 606 175 617 q 168 599 170 594 l 169 606 q 170 614 169 611 m 576 671 q 574 673 574 671 q 578 675 577 673 q 578 678 578 677 l 578 681 q 585 684 578 688 q 585 679 586 682 q 581 673 583 676 q 576 671 578 671 m 552 479 q 563 454 567 465 q 555 462 562 458 q 548 460 548 466 q 553 455 549 459 l 557 451 l 560 448 q 563 435 568 439 q 555 445 560 437 l 552 450 l 548 456 q 533 469 539 471 q 540 461 536 465 q 547 452 544 456 q 552 435 555 439 q 544 446 549 443 q 544 437 544 443 l 544 432 l 545 427 q 541 412 545 415 q 538 416 539 414 l 538 418 l 537 420 q 533 427 536 427 q 533 416 534 423 q 529 416 531 408 q 530 424 528 420 l 530 427 l 531 429 q 533 442 534 435 q 526 449 524 440 l 528 452 q 528 455 528 454 q 526 457 528 458 q 522 451 524 456 l 521 446 l 520 441 q 514 435 517 430 q 515 440 513 437 l 516 443 l 517 446 q 514 454 521 452 q 511 448 513 452 l 510 444 l 508 441 q 500 431 505 433 q 506 450 503 438 l 509 460 l 512 469 q 529 502 519 492 q 539 490 532 497 l 545 484 l 552 479 m 532 505 q 529 510 522 515 q 542 500 532 507 q 552 491 550 492 q 568 473 570 472 q 553 485 567 473 q 532 505 541 496 m 44 944 q 56 949 47 955 q 50 945 52 949 q 48 940 49 943 l 47 936 q 37 924 44 924 q 29 935 33 931 q 22 926 26 932 l 18 920 l 15 914 q -1 905 6 901 q 1 906 2 906 l -1 907 l -3 909 q -5 910 -4 909 q -8 916 -7 912 q -22 903 -12 911 l -26 900 l -31 897 q -37 890 -35 893 q -38 903 -44 897 l -35 905 l -32 907 q -26 912 -28 911 l -26 918 l -26 919 l -26 920 l -26 920 l -26 922 l -25 922 l -24 923 l -24 924 l -24 924 l -24 925 l -23 926 l -22 927 l -22 928 l -21 928 q -16 932 -19 930 l -16 933 l -15 935 l -14 935 l -13 935 l -12 936 l -11 937 l -10 937 l -9 937 l -8 938 l -7 939 l -6 939 q -1 941 -3 940 l 0 942 l 2 943 l 2 943 l 4 943 l 5 943 l 7 944 l 7 944 l 9 945 l 10 945 l 12 945 l 13 945 l 14 946 l 17 947 l 18 947 l 20 947 l 20 947 l 22 948 l 23 948 l 25 948 l 26 948 l 28 949 l 31 949 l 33 949 l 37 949 q 39 942 39 945 l 39 939 l 38 936 q 41 927 37 930 q 43 935 41 929 l 43 940 q 44 944 44 943 m 663 899 q 673 893 666 897 l 679 890 l 684 888 q 701 872 698 880 q 671 880 690 868 l 664 883 q 656 888 659 886 q 641 890 648 890 q 656 880 646 886 l 665 875 q 673 870 670 872 q 747 846 711 873 q 802 785 778 823 q 796 785 800 781 q 792 789 794 786 l 791 791 l 789 794 q 782 800 784 800 q 779 789 779 800 q 766 811 775 800 l 762 816 l 758 820 q 749 831 753 827 q 749 819 744 825 q 743 817 748 815 q 739 821 742 819 l 737 823 l 734 824 q 726 827 729 828 q 724 815 723 825 q 686 841 706 831 q 692 825 687 833 l 694 822 l 696 819 q 701 812 699 814 q 690 819 696 812 q 685 825 688 821 l 682 828 l 679 831 q 648 852 661 850 q 656 844 652 848 l 661 838 l 666 834 q 682 815 677 823 q 664 827 677 814 l 659 831 l 654 837 q 645 845 648 843 q 647 837 640 843 l 650 835 l 653 832 q 656 827 656 829 q 653 828 655 828 l 651 829 l 650 829 q 645 834 646 831 q 646 827 640 832 l 648 825 l 650 823 q 652 819 652 820 q 641 825 648 823 l 635 828 l 629 831 q 607 842 614 837 l 604 838 q 614 829 608 833 q 626 823 621 825 q 616 823 625 818 q 608 834 609 829 q 631 804 604 826 q 650 791 641 797 q 660 785 659 785 q 635 781 652 776 l 627 784 l 620 787 q 608 789 612 789 q 656 769 625 779 l 669 765 l 682 760 q 709 752 698 755 q 701 750 707 746 l 699 751 q 696 752 697 752 q 690 752 693 753 q 688 755 688 753 q 687 755 687 755 l 687 753 q 688 751 688 752 q 693 747 690 749 q 701 748 697 746 q 693 745 699 742 l 690 747 l 688 747 q 682 748 684 749 q 696 739 681 745 l 703 736 l 709 734 q 720 729 716 732 q 694 732 711 724 l 688 734 l 681 737 q 667 741 673 741 q 734 703 693 725 q 722 703 728 695 q 738 688 713 687 q 736 684 738 684 q 732 686 734 684 l 730 687 q 728 688 729 688 q 727 684 727 688 q 760 663 739 666 q 753 655 752 661 q 755 648 753 653 l 755 644 q 757 640 756 642 q 772 629 771 643 q 760 629 766 625 q 783 606 773 619 q 771 610 781 604 l 766 613 q 762 616 764 614 q 753 618 758 618 q 769 606 757 611 l 774 604 l 779 602 q 787 595 784 599 q 760 603 772 596 q 773 588 762 595 l 777 585 q 781 583 779 584 q 787 572 785 578 q 757 591 774 586 q 755 564 758 581 l 755 557 l 753 549 q 753 536 753 542 q 749 551 747 540 l 751 556 l 752 561 q 753 569 753 566 q 745 558 746 569 l 745 553 q 745 549 745 551 q 742 543 745 545 q 741 554 739 544 l 742 559 l 743 564 q 742 572 743 569 q 734 555 737 566 l 730 545 l 727 536 q 728 554 722 541 l 731 559 q 733 565 732 562 q 734 576 735 572 q 727 562 729 574 l 726 557 q 724 553 725 555 q 720 547 722 549 q 718 557 715 549 l 719 560 l 720 564 q 720 569 720 568 q 713 565 713 553 q 714 574 713 568 q 715 578 715 576 q 716 581 715 581 q 709 573 715 583 q 706 566 708 570 q 705 563 706 564 l 705 562 q 703 572 698 566 l 705 575 l 707 578 q 709 584 709 581 q 697 569 699 579 q 690 584 692 576 q 687 584 685 590 l 688 581 l 688 578 q 690 572 690 574 q 678 595 673 578 q 667 593 670 591 q 663 596 667 593 l 662 597 l 661 599 q 656 603 659 602 q 652 618 642 615 q 656 619 654 618 l 661 619 q 667 621 667 620 q 661 622 665 619 q 659 625 661 623 l 655 627 q 648 618 648 632 q 646 636 640 622 l 649 642 q 651 648 651 645 q 652 659 654 654 l 645 636 q 644 639 644 637 l 642 643 q 639 648 640 647 q 633 640 635 653 q 633 666 629 648 l 634 673 l 635 680 q 637 692 637 688 q 625 669 630 686 l 623 663 l 620 656 q 615 644 617 648 q 612 652 610 646 l 614 654 l 615 657 q 615 663 616 661 q 596 655 609 652 q 604 692 599 674 q 588 691 597 692 l 580 690 l 572 688 q 541 688 553 684 l 563 670 q 548 677 556 672 l 541 680 l 534 684 q 503 696 517 693 q 513 688 507 692 q 518 684 515 686 l 524 682 q 544 667 540 674 q 529 671 538 667 l 526 674 l 523 675 q 514 677 519 677 q 522 670 517 673 l 527 667 l 532 665 q 548 651 545 659 q 534 656 541 651 l 532 659 q 529 661 531 660 q 522 663 526 663 q 536 647 526 654 q 546 642 540 645 l 551 639 l 555 636 q 536 642 549 633 l 530 645 q 524 648 526 647 q 511 651 517 651 q 535 635 520 645 l 547 626 l 559 618 q 552 617 557 613 l 549 619 q 547 621 548 620 q 541 621 543 622 q 566 599 549 606 q 556 599 562 597 q 552 600 554 599 l 547 602 q 529 603 536 606 q 553 583 538 596 l 559 577 l 565 572 q 578 562 572 566 q 559 569 566 559 q 559 559 551 565 q 565 556 562 558 q 568 555 567 555 l 570 554 l 570 554 q 555 543 565 545 l 566 528 q 544 543 551 536 q 555 526 545 536 l 559 522 l 562 517 q 570 506 568 511 q 518 539 544 523 l 509 525 l 500 510 q 484 479 490 492 q 496 520 486 502 q 458 528 477 523 q 464 557 459 547 l 466 561 q 469 566 468 564 q 473 581 471 572 q 427 526 446 571 q 420 508 424 518 q 414 489 417 501 q 401 457 406 466 q 341 362 378 401 q 279 260 311 330 q 269 205 269 240 q 269 176 269 195 l 270 161 l 270 148 q 277 104 270 119 q 279 97 277 101 q 281 59 286 77 q 255 31 275 39 q 235 25 249 28 q 206 22 221 22 q 161 33 169 20 q 161 33 161 33 q 159 35 160 33 l 159 36 l 157 37 l 156 37 q 151 62 151 46 q 153 74 151 66 l 153 80 l 154 87 l 155 94 l 155 101 q 156 116 156 111 q 165 142 159 134 q 172 153 168 148 l 176 157 l 180 161 q 195 180 190 174 q 220 231 205 199 q 231 261 227 248 q 241 291 238 279 q 248 302 241 294 l 250 305 l 253 309 q 257 315 256 312 q 260 330 259 320 l 261 338 l 262 345 q 286 388 267 363 q 286 390 286 389 l 288 391 l 289 393 q 295 401 292 397 q 312 421 304 413 q 339 435 336 448 q 346 478 341 453 q 344 484 345 480 l 344 488 l 343 491 q 340 486 338 495 l 341 484 l 341 481 l 342 477 q 343 469 344 471 q 336 491 336 479 q 328 472 323 486 q 324 476 326 473 q 323 479 324 477 l 323 483 q 317 484 323 490 q 320 502 320 492 q 313 487 314 499 q 320 510 308 500 q 307 513 315 519 l 304 510 l 300 507 q 294 502 296 503 q 295 504 294 503 q 296 507 296 505 q 302 515 299 511 q 314 536 308 528 q 336 547 331 561 q 336 557 341 549 l 334 559 l 332 562 q 332 569 330 566 q 339 558 336 566 q 341 565 346 560 l 339 567 l 337 569 q 336 572 335 571 q 326 563 328 570 l 326 559 l 325 557 q 320 551 323 553 q 316 553 317 551 q 317 559 315 555 l 318 562 q 319 564 319 563 q 317 565 319 566 q 301 560 310 570 l 297 556 l 294 552 q 287 547 290 547 q 313 581 298 565 q 276 584 294 583 q 294 610 290 591 q 285 606 290 610 q 277 599 281 604 q 272 595 271 592 q 277 602 274 597 l 280 606 l 283 611 q 294 612 289 621 l 295 620 q 297 629 296 625 q 305 644 300 637 q 279 625 288 642 q 272 648 279 637 q 268 637 272 647 q 265 631 266 633 q 264 625 264 627 q 257 640 254 629 q 245 622 254 637 q 235 603 234 606 q 227 607 229 602 q 220 593 227 604 q 209 573 216 585 q 193 547 193 547 q 190 554 189 549 q 184 539 182 553 l 185 534 l 186 528 q 186 520 187 523 l 179 530 q 171 530 171 522 q 176 555 170 536 l 178 564 l 180 572 q 184 589 184 583 q 190 614 190 608 q 181 596 182 610 l 180 591 l 180 585 q 179 572 180 577 q 178 621 175 596 q 193 667 182 648 q 165 633 178 656 q 153 591 153 611 q 149 608 144 597 l 151 612 l 153 617 q 156 625 156 622 q 149 621 153 623 q 163 653 144 631 q 172 661 166 656 l 175 665 l 179 669 q 190 681 187 677 q 179 680 187 686 l 176 677 l 174 674 q 168 670 170 671 q 174 680 169 676 q 178 684 176 682 l 183 688 q 197 707 196 697 q 189 705 192 709 l 187 703 l 186 701 q 182 700 184 700 q 202 726 180 711 q 211 732 205 728 l 215 734 l 218 736 q 229 745 227 742 q 204 769 210 757 q 197 767 201 768 q 201 779 197 773 l 201 779 l 202 781 l 205 785 q 207 789 206 787 q 208 800 209 794 q 204 795 206 799 l 202 793 l 200 790 q 190 781 195 784 q 216 819 197 798 q 208 817 213 824 l 205 814 l 203 811 q 197 808 200 808 q 203 821 194 812 q 212 828 207 824 l 214 830 l 216 831 q 220 834 218 833 q 197 825 213 836 l 192 821 l 186 816 q 175 808 178 810 q 177 816 172 812 q 182 819 178 817 l 184 821 l 187 823 q 198 831 195 828 q 197 841 201 836 q 188 838 193 841 l 183 836 l 179 833 q 160 834 168 828 q 166 840 161 838 q 171 841 168 841 l 175 843 q 186 857 186 847 q 156 838 169 850 q 144 840 156 844 q 118 827 134 836 q 78 793 80 806 q 75 804 73 797 q 48 752 66 776 q 94 839 44 800 q 138 869 109 850 l 149 875 l 160 882 q 179 895 172 889 q 166 892 174 893 q 151 891 156 890 q 163 912 136 895 q 148 906 159 915 q 134 890 139 899 q 138 902 130 892 l 140 906 q 143 910 142 909 q 145 916 146 914 l 119 901 q 130 920 121 917 q 112 913 123 924 l 107 909 l 105 906 l 104 903 q 96 897 98 899 q 87 911 87 901 l 88 915 l 88 919 q 85 927 87 924 q 78 920 84 921 q 78 931 75 925 q 69 923 74 926 l 65 920 l 62 918 q 48 901 53 912 q 53 918 44 906 l 57 922 q 60 927 58 925 q 63 939 63 933 l 56 927 q 52 937 48 930 q 63 945 56 945 q 44 961 58 959 q 59 963 49 968 l 62 961 l 67 959 q 75 957 71 957 q 67 945 67 954 q 85 953 77 948 q 62 968 77 964 q 33 972 50 971 q 55 976 40 979 l 61 975 l 67 973 q 78 972 74 971 q 73 977 74 974 q 73 979 73 977 l 73 981 q 63 987 73 987 q 71 991 66 992 q 75 988 73 990 l 76 987 l 78 985 q 83 982 82 981 q 85 991 85 982 l 108 983 q 96 991 105 991 q 134 980 113 994 q 143 974 138 978 l 151 968 q 168 957 161 960 q 161 972 172 962 l 157 977 l 156 979 l 153 981 q 149 987 150 985 q 156 982 152 984 l 161 979 l 165 977 q 179 964 174 970 q 172 976 182 974 q 179 974 173 979 l 182 971 l 184 969 q 190 968 187 967 q 182 979 186 974 q 224 964 200 966 q 250 976 229 986 q 258 990 242 983 q 274 996 265 993 q 290 1000 281 998 q 296 1005 294 1002 q 273 1002 288 1007 l 267 1001 l 261 1000 q 250 998 254 998 q 262 1006 254 1003 q 277 1020 265 1013 q 268 1021 273 1021 l 262 1018 l 256 1015 q 245 1010 250 1012 q 226 1008 234 1005 l 227 1010 l 227 1010 q 234 1016 229 1013 q 220 1013 224 1013 q 242 1024 229 1021 q 239 1026 241 1025 l 235 1023 l 230 1021 q 221 1017 225 1018 q 203 1015 211 1013 q 212 1027 205 1021 q 220 1031 216 1029 l 228 1036 q 233 1041 231 1039 q 215 1034 227 1039 l 205 1031 l 197 1027 q 161 1021 174 1018 l 161 1022 q 177 1034 165 1029 q 186 1038 180 1036 l 191 1040 l 193 1040 l 195 1041 q 167 1042 186 1046 l 159 1040 l 151 1038 q 136 1036 141 1036 q 122 1031 132 1034 l 114 1029 l 106 1027 q 77 1025 85 1021 q 128 1065 75 1060 q 171 1064 146 1066 q 190 1062 179 1063 q 197 1061 193 1061 l 200 1060 l 203 1060 q 250 1049 225 1057 q 274 1048 260 1050 q 301 1042 283 1047 q 350 1036 336 1032 q 313 1050 334 1048 q 317 1055 313 1053 q 319 1057 317 1057 l 320 1058 l 321 1059 q 322 1061 323 1060 q 313 1061 320 1061 q 328 1065 319 1067 q 250 1117 281 1101 q 160 1143 206 1140 q 193 1147 176 1154 l 179 1162 q 201 1147 193 1158 q 204 1150 204 1147 q 203 1156 204 1152 q 200 1162 200 1162 q 212 1155 203 1154 q 201 1177 211 1168 q 229 1155 212 1175 q 242 1138 234 1148 q 248 1129 244 1135 l 250 1125 l 253 1121 q 244 1146 255 1131 q 233 1159 239 1151 l 231 1162 l 228 1164 q 224 1169 225 1167 q 246 1149 233 1167 q 264 1114 258 1132 q 256 1142 268 1125 l 252 1149 l 247 1156 q 239 1169 241 1164 q 252 1156 244 1171 l 255 1149 l 258 1143 q 264 1133 262 1135 q 262 1153 269 1139 l 259 1159 l 256 1164 q 253 1177 253 1172 q 269 1143 261 1165 l 273 1133 l 276 1124 q 283 1106 280 1114 q 277 1135 286 1114 l 274 1143 l 271 1152 q 268 1169 268 1162 q 279 1143 279 1159 q 283 1158 286 1149 q 294 1128 289 1143 q 295 1138 297 1129 l 294 1142 l 294 1146 q 294 1155 293 1151 q 302 1136 299 1146 q 304 1144 302 1145 q 309 1133 309 1143 q 313 1166 316 1149 q 346 1152 328 1165 l 353 1147 l 360 1141 q 376 1133 369 1135 q 364 1147 372 1139 l 357 1154 l 349 1160 q 324 1188 330 1176 q 353 1172 338 1183 q 366 1162 358 1169 l 372 1158 l 377 1153 q 366 1166 373 1157 q 357 1181 359 1176 q 366 1178 363 1176 q 367 1185 367 1180 q 366 1190 366 1187 q 364 1192 365 1191 q 364 1190 364 1192 q 365 1185 364 1188 q 360 1206 363 1182 q 359 1224 359 1215 q 357 1233 357 1232 q 379 1199 363 1227 q 387 1185 382 1194 l 391 1179 l 394 1172 q 410 1143 404 1154 q 469 1080 452 1068 q 462 1095 469 1088 l 481 1091 l 479 1094 l 479 1095 q 475 1099 477 1098 q 466 1103 472 1103 q 488 1095 479 1107 q 486 1104 492 1097 l 482 1107 l 479 1109 q 477 1114 477 1112 q 490 1113 482 1110 l 492 1114 q 495 1115 494 1115 q 503 1114 499 1116 q 500 1125 501 1120 q 496 1131 498 1128 q 499 1129 497 1130 q 503 1128 501 1128 q 518 1128 510 1127 q 544 1157 517 1148 q 555 1160 549 1159 l 561 1162 l 566 1163 q 585 1169 580 1166 q 608 1169 591 1168 l 616 1170 l 624 1171 q 641 1171 633 1171 q 701 1155 686 1172 q 695 1154 700 1154 l 693 1154 l 691 1154 l 686 1154 q 665 1149 673 1152 q 656 1128 640 1143 q 645 1147 644 1133 q 641 1133 639 1141 q 637 1138 640 1133 q 635 1143 636 1139 l 634 1145 l 633 1147 q 631 1149 632 1151 q 630 1133 630 1146 q 624 1138 627 1135 q 618 1141 621 1141 q 615 1128 612 1142 q 600 1136 607 1132 q 602 1131 602 1134 l 600 1128 l 599 1125 q 608 1121 597 1120 q 590 1112 600 1117 l 581 1107 l 572 1103 q 536 1084 549 1093 q 562 1091 543 1083 l 570 1095 l 577 1099 q 593 1103 586 1101 q 548 1069 569 1087 q 556 1067 549 1064 l 559 1067 l 562 1069 q 566 1069 565 1070 q 559 1064 565 1065 l 556 1063 l 553 1063 q 548 1061 549 1062 q 561 1059 552 1055 l 565 1060 l 569 1062 q 578 1061 574 1063 q 557 1053 570 1058 l 547 1050 q 536 1045 541 1047 q 503 1021 512 1036 q 548 1039 526 1036 q 514 1024 532 1029 q 545 1021 526 1018 q 562 1025 551 1023 l 570 1027 l 578 1029 q 610 1031 599 1034 q 633 1009 626 1027 q 631 1006 633 1006 q 627 1010 630 1007 q 625 1012 626 1011 q 623 1013 624 1013 q 615 1013 619 1015 l 626 1005 q 618 1003 625 1000 l 616 1005 l 612 1006 q 608 1005 610 1006 l 623 991 q 613 992 619 990 l 608 995 l 604 997 q 585 998 591 1002 q 599 986 587 991 l 604 984 q 608 982 607 983 q 615 976 613 979 q 591 981 610 975 l 584 984 l 576 987 q 563 991 568 989 q 573 981 558 987 q 578 979 575 980 q 583 977 581 978 l 585 977 l 587 977 l 589 976 q 563 968 577 968 q 578 960 580 965 q 657 984 631 972 q 607 939 629 966 q 612 940 611 940 q 712 963 661 957 q 818 959 773 970 q 902 901 878 945 q 867 910 888 895 q 860 917 865 912 l 857 920 l 852 922 q 839 931 844 930 q 813 935 829 934 l 806 936 l 799 937 l 784 938 q 727 953 747 942 q 733 937 732 948 l 734 933 l 734 929 q 737 922 734 924 q 798 918 776 924 q 826 882 828 909 q 797 884 818 878 l 789 886 l 781 889 q 766 892 772 892 q 753 896 762 893 l 745 897 l 736 899 q 709 899 717 903 l 711 897 l 712 897 l 717 895 q 727 890 722 893 q 743 879 739 885 l 743 878 q 703 885 728 875 l 692 890 l 682 894 q 663 899 670 899 m 783 520 q 783 513 782 518 l 783 509 l 783 505 q 779 494 784 496 q 779 502 780 497 l 779 505 l 779 510 q 783 520 778 519 "},"]":{"ha":1413,"x_min":-24,"x_max":1402,"o":"m 1086 671 q 1088 669 1087 670 l 1090 666 q 1095 659 1093 662 q 1089 661 1092 660 q 1084 665 1086 663 q 1086 671 1080 669 m 1124 642 q 1122 637 1125 638 l 1120 637 l 1118 636 q 1116 635 1117 635 q 1118 640 1115 639 l 1120 640 l 1121 641 q 1124 642 1123 642 m 985 623 l 983 626 q 991 623 988 626 q 994 620 992 622 l 996 616 q 988 620 991 616 q 985 623 987 621 m 966 597 q 958 595 961 595 q 957 597 956 595 q 960 600 958 599 q 966 597 963 600 m 1173 565 q 1170 565 1172 566 l 1167 565 l 1165 564 q 1160 567 1160 564 q 1164 567 1162 567 l 1166 568 l 1168 568 q 1173 565 1173 568 m 1158 557 q 1154 557 1157 557 l 1152 556 l 1149 556 q 1143 559 1143 555 q 1147 559 1144 558 l 1149 559 l 1152 559 q 1158 557 1158 560 m 1130 553 q 1135 553 1131 553 l 1137 553 l 1139 553 q 1145 551 1145 554 q 1138 549 1143 548 q 1130 553 1133 550 m 1052 537 l 1054 534 q 1047 536 1050 534 q 1045 538 1046 537 l 1043 541 q 1050 539 1047 542 q 1052 537 1051 538 m 1047 533 l 1048 531 q 1039 534 1042 530 q 1036 537 1038 535 l 1034 539 l 1033 541 q 1043 538 1039 542 q 1046 535 1044 537 l 1047 533 m 1118 534 q 1116 537 1118 537 l 1115 542 q 1118 542 1116 542 l 1122 542 q 1126 540 1125 542 q 1121 538 1122 540 l 1120 537 l 1120 536 q 1118 534 1119 535 m 1113 536 l 1113 532 q 1109 531 1111 530 q 1107 534 1108 532 q 1107 538 1107 536 q 1110 539 1108 539 q 1113 536 1111 536 m 1120 532 q 1127 530 1123 531 l 1131 528 l 1133 527 q 1142 517 1141 524 q 1134 515 1138 517 l 1130 514 l 1126 513 q 1109 511 1118 510 q 1109 514 1109 513 l 1107 515 l 1107 517 q 1108 521 1104 520 q 1110 519 1109 520 q 1112 515 1111 517 q 1116 516 1116 512 q 1114 520 1114 517 q 1114 523 1114 521 l 1114 526 q 1120 532 1119 526 m 1034 513 q 1026 517 1028 512 l 1029 517 q 1032 517 1031 517 q 1034 513 1035 516 m 1068 498 q 1079 494 1078 500 q 1076 492 1076 494 l 1071 491 q 1068 498 1071 495 m 1182 414 l 1177 414 l 1177 419 l 1182 419 l 1182 414 m 1044 395 q 1044 398 1044 396 q 1045 401 1044 399 q 1046 402 1045 402 q 1047 400 1046 402 q 1047 397 1047 399 q 1046 395 1047 395 q 1046 393 1046 393 q 1044 395 1045 393 m 942 385 q 943 380 942 385 l 943 376 l 943 373 q 941 370 943 365 q 940 375 941 371 l 940 378 l 940 382 q 942 385 939 390 m 937 375 q 938 370 937 374 l 938 366 l 938 363 q 936 359 939 355 q 935 365 936 360 l 935 368 l 935 372 q 937 375 935 380 m 1040 379 q 1036 363 1042 367 q 1040 379 1036 375 m 994 375 q 999 378 998 378 q 1000 375 1000 377 q 998 373 1000 373 q 994 375 996 372 m 930 364 q 930 358 930 363 l 930 355 l 931 351 q 928 346 931 342 q 928 352 928 347 l 928 356 l 928 359 q 930 364 928 369 m 1101 344 q 1104 358 1099 351 q 1113 362 1109 366 q 1109 357 1111 360 l 1108 355 l 1107 353 q 1101 344 1104 346 m 1034 351 q 1033 345 1033 349 l 1033 342 l 1032 340 q 1029 330 1031 333 l 1029 334 l 1029 336 q 1029 342 1029 340 q 1034 351 1029 349 m 1057 280 q 1048 291 1052 281 q 1048 305 1045 300 q 1051 299 1049 302 l 1053 296 l 1054 294 q 1057 280 1057 287 m 1020 191 l 1020 196 l 1025 196 l 1025 191 l 1020 191 m 1182 414 l 1182 419 l 1177 419 l 1177 414 l 1182 414 m 1162 539 q 1165 536 1163 537 l 1169 533 q 1177 527 1175 529 q 1175 535 1182 531 q 1168 537 1172 536 l 1164 538 q 1162 539 1163 538 m 1146 536 l 1148 534 l 1151 532 q 1155 529 1153 530 q 1167 526 1160 526 q 1146 536 1159 533 m 1130 553 q 1138 549 1133 550 q 1145 551 1143 548 q 1139 553 1145 554 l 1137 553 l 1135 553 q 1130 553 1131 553 m 1109 511 q 1126 513 1118 510 l 1130 514 l 1134 515 q 1142 517 1138 517 q 1133 527 1141 524 l 1131 528 l 1127 530 q 1120 532 1123 531 q 1114 526 1119 526 l 1114 523 q 1114 520 1114 521 q 1116 516 1114 517 q 1112 515 1116 512 q 1110 519 1111 517 q 1108 521 1109 520 q 1107 517 1104 520 l 1107 515 l 1109 514 q 1109 511 1109 513 m 1138 319 q 1137 340 1141 328 q 1126 357 1133 353 q 1132 338 1128 351 l 1135 329 q 1138 319 1137 323 m 1120 362 q 1122 361 1121 361 l 1122 361 l 1123 361 q 1126 360 1125 363 q 1125 372 1129 364 l 1124 376 l 1122 379 q 1120 385 1120 383 q 1118 382 1118 385 q 1120 378 1119 380 l 1121 375 q 1123 368 1123 371 q 1120 362 1124 364 m 1111 403 q 1112 399 1111 401 q 1112 399 1112 399 q 1114 400 1113 399 q 1114 403 1114 401 q 1109 416 1113 410 l 1108 418 l 1107 420 q 1105 423 1105 422 q 1102 429 1101 433 q 1106 416 1103 425 l 1109 410 q 1111 403 1110 406 m 1101 344 q 1107 353 1104 346 l 1108 355 l 1109 357 q 1113 362 1111 360 q 1104 358 1109 366 q 1101 344 1099 351 m 1095 315 q 1102 319 1099 311 l 1104 323 l 1105 326 q 1109 331 1107 330 q 1101 327 1105 335 l 1099 323 l 1098 320 q 1095 315 1096 316 m 1086 671 q 1084 665 1080 669 q 1089 661 1086 663 q 1095 659 1092 660 q 1090 666 1093 662 l 1088 669 q 1086 671 1087 670 m 1071 491 l 1076 492 q 1079 494 1076 494 q 1068 498 1078 500 q 1071 491 1071 495 m 1064 306 q 1076 339 1074 315 q 1077 359 1077 348 q 1076 367 1076 362 l 1076 370 l 1076 373 q 1072 370 1074 369 q 1069 376 1072 370 q 1067 370 1065 374 l 1068 369 l 1069 367 q 1069 363 1070 365 q 1063 370 1065 365 l 1062 375 l 1061 380 q 1061 362 1062 372 l 1061 359 q 1061 355 1061 357 q 1062 345 1061 350 q 1058 349 1060 347 l 1056 351 l 1055 352 q 1048 359 1052 355 q 1055 335 1048 352 q 1061 321 1059 327 q 1064 306 1064 313 m 1057 290 q 1061 315 1067 296 q 1044 336 1055 332 q 1053 319 1051 330 l 1054 314 l 1055 309 q 1057 298 1055 302 q 1057 304 1060 299 l 1057 306 l 1055 308 q 1056 313 1055 311 q 1057 290 1063 304 m 1048 305 q 1048 291 1045 300 q 1057 280 1052 281 q 1054 294 1057 287 l 1053 296 l 1051 299 q 1048 305 1049 302 m 1040 256 q 1046 291 1055 269 q 1036 310 1043 298 l 1034 315 l 1031 319 q 1027 328 1029 324 q 1022 330 1023 327 q 1017 319 1017 328 q 1033 312 1024 326 q 1039 299 1036 307 q 1042 293 1040 296 l 1043 290 l 1044 287 q 1036 302 1038 292 q 1034 300 1034 302 q 1031 297 1034 297 q 1033 296 1031 295 l 1034 296 l 1034 296 q 1036 297 1035 297 q 1035 291 1035 294 l 1035 288 l 1036 286 q 1034 274 1037 279 q 1038 275 1037 277 q 1038 271 1038 275 l 1038 269 l 1038 267 l 1038 263 q 1040 256 1038 258 m 930 364 q 928 359 928 369 l 928 356 l 928 352 q 928 346 928 347 q 931 351 931 342 l 930 355 l 930 358 q 930 364 930 363 m 935 390 q 936 391 935 391 l 937 393 l 937 394 q 939 398 937 398 q 937 399 939 400 q 934 397 935 399 q 932 393 932 395 q 935 390 932 391 m 937 375 q 935 372 935 380 l 935 368 l 935 365 q 936 359 936 360 q 938 363 939 355 l 938 366 l 938 370 q 937 375 937 374 m 942 385 q 940 382 939 390 l 940 378 l 940 375 q 941 370 941 371 q 943 373 943 365 l 943 376 l 943 380 q 942 385 942 385 m 947 375 q 949 385 949 378 q 947 390 948 387 l 946 396 q 951 414 942 410 q 946 413 950 418 q 943 409 945 412 l 942 408 q 941 406 942 406 q 943 398 942 403 l 944 391 q 947 375 946 380 m 1038 251 q 1036 258 1039 255 l 1036 260 l 1035 262 q 1035 266 1034 263 q 1034 258 1031 264 l 1035 256 l 1036 254 q 1036 248 1036 251 q 1032 254 1033 250 l 1031 257 l 1030 260 q 1028 257 1026 263 l 1029 254 l 1030 251 q 1031 245 1031 248 q 1027 252 1028 247 l 1027 254 l 1026 256 q 1025 260 1025 259 q 1020 248 1019 260 q 1017 250 1019 248 l 1017 252 l 1017 255 q 1012 255 1017 260 q 1013 258 1012 257 l 1013 260 l 1014 261 q 1014 268 1015 264 q 1010 257 1010 265 q 1008 265 1006 259 q 1011 270 1010 267 l 1013 271 q 1014 273 1013 272 q 1005 275 1010 279 l 1003 273 l 1001 271 q 996 267 998 268 q 1020 304 1006 290 q 1022 302 1022 304 l 1023 300 l 1023 299 q 1023 306 1027 301 l 1022 307 l 1021 310 q 1020 314 1019 312 q 1025 307 1023 312 q 1027 312 1029 309 l 1025 313 l 1024 314 q 1022 317 1022 316 q 1016 310 1017 315 l 1016 308 l 1016 306 q 1013 301 1015 303 q 1009 303 1010 301 q 1010 307 1009 304 q 1010 311 1013 312 q 1000 307 1005 315 l 998 304 l 995 302 q 989 298 992 298 q 994 303 992 300 l 996 307 l 998 310 q 1006 321 1002 319 q 1000 321 1004 321 l 998 322 l 995 323 q 981 323 988 324 q 992 341 991 328 q 986 338 989 341 q 981 333 984 336 q 978 330 977 328 q 981 335 979 332 l 983 338 l 985 341 q 992 342 989 348 l 993 348 q 994 353 993 351 q 1000 365 995 359 q 991 361 997 367 q 982 351 985 356 q 981 355 981 353 l 981 357 l 981 359 q 977 366 981 364 q 975 368 975 369 q 975 366 974 368 q 976 362 975 363 q 979 361 977 360 q 978 358 979 359 q 977 357 978 357 l 975 357 q 972 351 970 355 q 966 361 966 351 q 962 345 962 357 q 952 334 949 347 q 947 339 947 333 q 943 338 945 340 q 942 334 942 336 q 942 329 941 331 q 945 326 943 327 q 942 323 944 325 l 941 321 l 939 319 q 938 308 936 315 q 935 305 937 307 l 932 304 l 929 304 q 926 295 924 301 q 924 296 924 295 l 923 298 l 923 300 q 920 292 918 298 l 920 288 l 922 284 q 921 277 922 280 q 919 279 920 277 l 918 281 q 917 283 918 282 q 916 276 916 284 q 908 279 912 279 q 911 294 909 286 q 913 302 912 298 l 916 309 q 921 340 922 326 q 916 328 916 338 l 916 324 l 916 320 q 915 312 915 315 q 914 345 911 326 q 922 377 916 366 q 911 366 915 372 l 910 363 q 908 361 909 362 q 903 355 906 358 q 904 344 910 354 l 903 341 l 901 339 l 899 334 q 896 324 896 328 q 893 334 890 328 l 895 337 l 896 340 q 898 347 898 345 q 897 347 897 347 l 896 347 l 895 346 q 892 345 893 344 q 901 365 890 350 l 907 371 l 911 376 q 919 387 917 384 q 912 385 917 390 l 910 383 l 908 381 q 904 378 905 379 q 908 386 905 382 q 911 389 909 387 l 914 391 q 923 405 923 398 q 918 403 920 406 l 917 401 l 916 401 q 913 399 915 399 q 918 410 912 404 q 923 412 921 411 q 926 413 925 413 q 925 414 926 413 l 924 414 l 924 416 q 923 418 922 418 q 928 420 926 420 q 929 420 928 420 l 930 420 q 932 423 931 420 q 936 428 935 427 q 943 427 936 428 q 941 431 940 430 q 943 433 941 432 q 945 433 943 433 q 947 434 947 433 q 943 437 947 435 q 947 440 944 437 l 949 441 l 951 442 q 955 445 953 444 q 948 484 954 466 q 946 468 945 479 l 946 464 l 946 460 q 945 452 945 455 q 942 465 941 458 l 943 469 l 943 472 q 943 480 944 476 q 938 473 938 480 l 939 469 l 939 466 q 939 460 939 462 q 937 464 937 460 l 936 467 q 936 470 936 469 q 932 464 934 468 l 932 460 l 930 456 q 922 446 928 447 q 923 452 922 450 l 924 455 l 926 457 q 928 469 929 464 q 925 466 927 468 l 924 464 l 923 463 q 916 456 920 458 q 932 483 921 467 q 927 481 931 486 l 926 479 l 924 477 q 920 474 922 474 q 924 484 918 477 q 930 489 926 486 l 932 491 q 935 493 934 492 q 920 486 930 494 l 916 483 l 912 479 q 905 473 907 475 q 906 479 903 476 q 909 481 907 480 l 913 484 q 919 497 924 492 q 913 495 916 497 l 909 493 l 907 492 q 894 491 899 487 q 898 495 895 494 l 901 496 l 904 498 q 911 507 911 501 q 891 494 896 500 q 888 500 890 500 q 881 495 886 499 l 879 493 l 878 492 q 873 488 875 490 q 865 490 869 486 q 861 484 864 489 l 859 481 l 856 477 q 846 476 850 469 l 844 473 l 842 469 q 839 460 840 465 q 836 463 837 460 l 836 466 l 836 468 q 819 431 832 450 q 825 463 817 446 q 842 489 831 477 q 892 517 861 508 l 897 522 l 900 526 q 907 535 904 532 q 903 536 905 537 q 901 533 902 535 l 898 530 q 892 526 895 527 q 884 529 888 526 q 894 545 886 540 q 884 541 890 547 q 874 529 878 534 q 876 536 871 530 l 878 538 l 880 541 q 881 547 882 545 q 863 536 873 541 q 871 549 865 547 q 859 545 866 552 l 857 541 l 854 538 q 848 533 850 534 q 842 542 842 534 l 842 545 l 842 547 q 840 553 841 551 q 839 551 840 552 q 839 550 839 551 q 838 549 838 549 q 838 549 838 549 q 836 549 837 549 q 835 547 836 548 q 833 550 833 548 l 834 551 l 835 553 q 835 555 835 554 q 828 549 831 551 q 825 548 827 549 l 823 547 q 825 536 827 540 q 821 536 824 535 l 819 538 q 817 539 818 539 l 817 537 q 820 527 817 533 l 823 522 q 825 518 825 519 q 820 502 830 508 q 815 517 820 509 q 811 525 814 520 l 808 528 l 806 532 q 800 544 801 540 q 805 552 800 550 q 801 556 803 555 q 795 548 799 554 l 792 543 q 789 538 791 540 q 791 481 795 505 q 789 494 789 486 l 789 501 l 788 508 q 779 528 786 524 q 789 475 777 504 l 793 464 q 798 452 796 457 q 804 427 802 439 q 791 422 798 427 q 789 433 791 435 q 787 430 788 432 l 787 429 l 786 427 q 783 422 784 424 q 782 435 781 428 q 783 441 782 438 l 783 444 l 784 447 q 785 456 785 453 q 779 460 783 459 q 778 457 778 459 l 777 454 q 774 452 777 452 q 767 466 777 463 l 763 467 l 759 468 q 753 473 754 470 q 751 491 756 484 q 748 494 749 492 l 745 496 q 741 502 742 499 q 745 507 744 503 q 745 514 746 510 q 742 521 744 518 q 736 523 739 524 q 728 515 735 513 q 711 532 732 536 q 703 557 710 550 q 694 540 705 541 q 689 549 696 547 l 686 550 q 684 551 684 551 q 682 557 681 553 q 687 558 685 555 q 689 564 689 561 q 689 569 690 568 q 686 565 688 570 q 680 552 679 562 l 680 549 q 680 545 680 547 q 677 540 680 542 q 663 556 673 548 q 648 561 652 565 q 659 543 656 553 q 661 534 660 539 l 661 530 l 662 526 q 673 524 666 534 l 677 519 l 680 513 q 686 507 684 508 q 686 505 688 503 q 684 507 685 505 l 682 509 l 680 511 q 671 519 675 515 q 662 523 666 523 q 666 507 663 512 q 682 494 671 498 q 659 492 670 496 l 654 491 l 650 490 q 640 490 645 489 q 655 471 648 486 l 659 466 l 661 461 q 669 452 665 455 q 660 458 665 453 q 656 463 659 460 l 652 467 q 635 473 643 478 q 632 471 631 473 q 633 469 632 470 l 633 467 l 634 465 q 636 459 637 461 q 631 456 636 456 q 626 463 627 459 q 625 467 625 465 l 625 470 q 614 481 623 477 q 612 477 614 479 l 610 474 l 608 472 q 610 465 603 467 q 618 477 614 473 q 618 469 620 473 q 615 466 616 468 l 613 463 q 614 452 608 455 q 615 454 614 452 l 615 457 q 618 460 616 460 q 661 401 642 439 q 652 407 657 403 l 649 411 q 646 414 647 413 q 631 410 637 420 q 633 408 632 408 q 635 404 634 406 q 640 397 639 400 q 640 385 646 387 q 631 401 639 397 q 633 390 629 395 l 634 388 q 635 386 635 387 q 635 380 636 384 q 629 385 631 385 q 627 380 628 384 l 627 376 q 627 372 627 374 q 623 368 626 368 q 622 382 623 378 q 614 389 621 388 q 612 382 613 387 l 612 378 l 611 375 q 606 363 610 366 q 606 373 605 367 l 607 378 l 608 380 l 608 383 q 610 390 610 389 q 606 389 610 391 q 604 382 606 387 l 604 380 l 603 376 q 597 368 602 370 q 597 377 595 372 q 598 381 597 378 l 600 385 q 597 397 604 394 q 597 389 599 393 q 597 387 597 388 l 595 385 q 593 372 592 378 q 606 349 601 363 q 610 326 609 337 q 610 328 610 326 l 611 331 q 614 334 612 334 q 652 298 625 334 q 663 283 656 292 l 667 277 q 672 271 669 275 q 686 252 683 255 q 715 224 703 231 q 755 206 724 218 q 937 130 831 177 l 943 146 q 968 157 962 154 q 985 175 975 162 q 993 186 987 177 l 996 191 l 998 195 q 1004 204 1002 200 q 1026 227 1020 227 q 1028 225 1027 227 l 1029 224 l 1029 222 q 1031 236 1029 229 q 1038 251 1034 245 m 1020 196 l 1020 191 l 1025 191 l 1025 196 l 1020 196 m 1010 178 q 1002 190 1010 192 q 1003 186 1002 189 l 1004 185 l 1004 184 q 1002 185 1004 182 q 1001 184 1000 184 q 1002 182 1001 182 q 1000 177 1003 178 q 1004 176 1000 174 l 1005 177 l 1006 178 q 1010 178 1008 179 m 644 254 q 650 255 647 256 q 653 254 652 255 l 654 253 l 655 252 q 659 250 658 250 q 661 254 660 250 q 656 262 655 256 q 659 264 659 262 q 656 267 660 267 q 654 264 653 262 l 654 266 l 654 267 l 656 269 q 656 275 656 273 q 645 270 648 277 q 644 254 643 265 m 627 275 l 627 283 l 618 283 l 618 275 l 627 275 m 589 380 q 592 392 592 385 q 592 398 592 395 l 591 401 l 591 404 q 592 412 591 410 q 597 410 593 414 q 595 429 593 418 l 595 433 q 596 437 596 435 q 593 448 595 443 q 596 447 595 448 l 597 446 l 599 446 q 602 448 601 444 q 597 452 597 448 q 593 456 597 456 q 581 431 591 439 q 583 435 581 433 l 584 440 q 588 451 587 446 q 597 472 593 464 q 623 486 610 495 q 614 502 622 498 q 606 498 613 497 q 600 484 604 492 l 595 476 l 591 469 q 577 437 581 448 q 589 380 564 399 m 559 418 q 574 437 569 420 q 572 460 578 452 q 568 450 571 456 l 566 446 l 564 441 q 559 418 559 429 m 576 511 q 562 497 570 507 q 552 474 555 487 q 549 450 548 460 q 559 435 551 439 q 553 454 554 446 q 559 473 552 464 q 561 464 562 469 q 559 460 560 463 l 558 458 l 557 457 q 555 451 555 453 q 559 448 556 449 q 562 465 561 454 l 562 473 q 564 481 563 478 q 576 511 566 499 m 522 569 q 522 564 522 568 l 522 562 l 522 559 q 522 545 522 551 q 525 514 523 528 q 547 460 530 474 q 550 486 547 472 q 559 509 553 494 q 568 548 570 536 q 559 536 564 541 l 557 534 q 554 531 555 532 q 547 523 551 528 q 548 540 548 532 q 547 547 547 543 l 547 553 q 547 582 546 568 l 546 578 l 545 574 q 543 566 544 568 q 534 553 540 556 q 534 559 532 556 q 535 563 534 561 l 537 566 q 539 570 539 569 q 534 574 538 572 q 529 564 530 564 q 522 569 527 562 m 509 767 q 513 763 514 766 l 522 763 q 526 775 522 768 q 509 767 511 777 m 572 607 q 572 612 572 609 q 571 616 572 614 q 570 618 570 618 q 568 616 569 618 q 568 610 568 614 q 569 606 568 608 q 571 604 570 604 q 572 607 572 604 m 589 557 q 581 582 589 575 q 589 557 579 562 m 602 502 l 602 507 l 602 513 q 602 523 602 519 q 593 536 600 533 q 595 527 594 532 l 595 522 l 596 517 q 602 502 597 507 m 597 565 q 610 523 601 541 q 597 565 610 546 m 656 578 q 648 582 650 583 q 646 578 646 581 q 650 574 647 575 q 656 578 653 573 m 606 800 q 587 797 597 796 q 579 798 584 797 l 576 798 l 572 799 q 538 788 553 802 q 644 742 600 764 q 648 741 646 741 q 651 741 649 741 q 656 742 656 742 q 660 738 659 741 l 661 736 l 662 734 q 669 729 664 729 q 669 730 669 729 l 669 732 l 670 734 q 673 737 671 739 q 675 733 673 737 q 676 730 675 731 q 678 726 677 728 q 690 725 684 716 q 689 742 688 732 q 690 750 689 745 l 691 753 l 692 758 q 690 783 696 777 q 686 772 688 779 l 685 766 l 684 760 q 673 742 681 745 q 674 751 673 745 l 675 756 l 677 762 q 673 779 680 774 q 656 746 668 759 l 659 757 l 662 768 q 669 788 665 781 q 652 776 659 788 l 649 771 q 646 767 647 768 q 635 763 642 763 q 637 770 634 766 q 639 773 637 771 l 642 776 q 640 788 648 783 l 639 787 l 638 785 q 636 781 637 783 q 632 774 634 777 q 623 771 626 765 q 620 787 629 779 l 616 790 l 612 793 q 606 800 607 797 m 563 844 l 564 846 q 553 843 557 847 q 550 839 551 842 l 549 836 l 547 834 q 558 838 554 833 q 562 842 559 840 l 563 844 m 578 844 l 581 846 q 564 842 570 848 q 559 836 562 840 l 557 833 l 555 830 q 572 835 566 829 q 576 840 574 837 l 578 844 m 593 809 l 591 809 l 588 808 q 584 808 585 808 q 581 800 579 806 q 593 809 590 800 m 652 926 q 640 927 643 928 q 639 924 637 926 q 644 922 641 922 q 652 926 649 922 m 654 987 l 656 989 q 643 984 648 989 q 639 979 642 982 l 637 975 l 635 972 q 648 979 643 973 q 652 984 650 981 l 654 987 m 686 943 q 699 941 694 940 q 701 945 702 941 q 695 947 699 947 q 686 943 690 947 m 711 704 q 710 722 709 712 q 711 730 711 726 l 712 734 l 713 739 q 711 767 718 758 q 706 753 710 762 l 702 746 l 699 739 q 699 708 690 720 q 703 709 700 715 l 705 707 l 707 705 q 711 704 709 703 m 794 565 l 795 565 l 795 565 l 793 567 l 792 570 q 788 574 790 572 q 774 586 783 580 q 784 562 780 577 l 784 562 l 785 562 l 786 562 l 787 563 l 787 563 l 789 563 l 789 564 l 790 564 l 792 564 l 793 564 l 794 565 m 789 555 l 787 552 l 787 549 l 790 551 l 793 553 q 798 556 796 556 q 793 557 796 559 q 789 555 791 557 m 762 565 q 762 555 762 563 l 762 549 q 761 543 761 545 q 766 536 762 528 q 766 545 766 538 l 766 551 q 766 558 766 555 q 762 565 766 572 m 724 645 q 734 633 732 642 q 734 616 736 627 l 732 611 l 732 606 q 730 597 730 601 q 732 582 728 587 q 736 607 734 590 l 737 613 l 738 620 q 741 632 739 627 q 739 635 740 633 q 737 637 738 636 q 732 644 734 642 q 724 645 726 651 m 745 574 q 745 582 745 575 l 745 588 q 745 593 745 591 q 741 599 745 607 q 741 590 741 597 l 740 585 q 741 578 740 581 q 745 574 741 566 m 753 607 q 756 612 757 609 q 753 618 756 615 q 748 623 751 622 q 745 620 745 623 q 749 614 748 620 l 749 612 q 750 610 750 610 q 753 607 751 608 m 753 557 q 753 566 753 558 l 753 571 q 753 576 753 574 q 749 582 753 590 q 749 573 749 581 l 749 568 q 749 562 749 564 q 753 557 749 549 m 819 554 l 821 551 q 824 560 824 556 q 819 554 820 558 m 903 528 q 898 522 904 523 q 903 522 900 522 q 908 523 905 522 q 918 531 915 525 q 903 528 915 528 m 724 758 q 715 695 715 730 q 722 691 719 694 l 725 689 l 728 688 q 736 683 733 684 q 729 677 729 679 q 733 676 729 677 q 736 675 735 676 q 739 674 738 675 q 736 666 741 671 q 748 669 747 669 q 753 662 749 668 q 758 656 756 656 l 759 656 l 760 656 q 762 656 760 657 q 770 653 765 656 q 768 649 771 653 l 767 648 l 766 647 q 766 645 766 646 q 770 644 766 646 q 777 640 774 642 q 787 624 789 632 q 782 626 784 624 l 781 627 l 779 629 q 770 632 776 634 q 786 610 771 621 l 791 607 q 797 602 794 604 q 804 590 802 597 q 797 595 801 591 l 793 597 l 790 601 q 779 603 781 608 q 793 585 782 597 l 798 580 l 802 575 q 811 564 808 569 q 819 568 813 570 q 814 562 815 566 q 817 557 816 559 l 818 558 l 819 559 q 817 562 819 561 q 819 564 817 564 l 821 565 l 824 565 q 819 572 823 570 q 814 573 817 572 l 812 574 l 810 575 q 821 576 814 580 l 823 575 l 826 574 q 831 573 829 573 q 829 572 831 572 l 829 571 l 828 570 q 826 565 826 568 q 833 568 830 565 l 835 568 l 836 570 q 839 571 838 570 q 802 582 829 582 q 817 585 807 587 l 821 585 l 825 584 q 833 583 830 583 q 830 586 831 585 l 829 588 l 829 589 q 823 593 829 593 q 830 594 825 597 l 832 593 q 835 591 833 592 q 841 591 838 590 q 840 593 840 592 l 839 594 q 838 597 838 595 q 846 594 842 597 q 849 593 848 593 q 853 592 851 592 q 846 597 851 597 q 871 591 856 600 l 878 587 l 884 583 q 895 576 891 578 q 891 585 897 579 l 888 588 l 886 591 q 882 596 882 594 q 887 593 884 594 l 890 591 l 892 589 q 903 581 900 585 q 903 585 907 582 q 900 587 902 587 q 897 589 898 589 q 902 588 899 593 l 904 586 q 905 585 905 585 q 910 585 908 583 q 909 587 910 585 l 907 588 q 905 592 905 590 q 912 588 908 591 l 916 587 l 919 585 q 933 583 926 582 q 939 592 935 590 q 951 591 944 595 q 960 603 945 597 q 974 608 965 606 q 981 610 977 608 q 986 611 983 610 q 969 611 980 615 l 964 610 l 960 608 q 950 607 954 607 q 962 614 954 611 q 968 616 964 614 l 972 617 l 976 618 q 954 622 970 625 q 940 619 949 621 l 937 618 l 935 617 q 930 616 931 616 q 936 621 930 619 l 939 622 l 941 623 q 945 625 943 623 q 939 627 945 627 l 937 627 l 935 627 q 932 627 932 626 q 948 642 937 638 q 971 641 956 644 q 984 638 976 640 l 990 637 l 996 636 q 1019 635 1010 633 q 992 644 1008 643 q 995 648 993 646 l 996 650 l 998 650 l 998 650 q 992 652 1000 652 q 996 654 992 654 l 999 655 q 1002 655 1001 655 l 994 661 l 986 667 q 971 677 977 673 q 938 694 954 688 q 938 683 939 688 q 928 697 932 690 q 884 704 909 703 q 907 707 895 713 q 902 712 907 711 l 900 713 q 899 714 899 713 q 897 718 897 715 q 901 715 899 716 l 903 714 l 905 713 q 913 708 911 711 q 915 709 915 708 q 915 712 916 711 q 912 715 913 713 q 909 715 911 715 q 913 716 911 719 l 914 715 l 916 713 q 920 713 918 712 q 914 724 916 720 q 911 728 912 726 l 913 728 q 909 742 910 735 l 908 740 l 908 738 q 908 734 908 735 q 904 729 907 730 q 899 743 903 736 l 895 749 l 892 754 q 875 755 885 742 q 871 761 873 757 l 866 766 q 858 775 861 774 q 846 772 853 769 q 839 777 843 774 l 836 780 l 832 783 q 821 789 824 789 q 816 779 817 790 q 783 800 807 790 q 795 785 782 790 l 800 783 q 804 782 803 783 q 812 775 810 779 q 791 774 803 768 l 786 778 l 781 781 q 770 783 775 783 q 769 772 765 778 q 781 763 772 768 l 784 761 l 787 759 q 793 754 791 756 q 795 746 798 749 q 783 755 791 748 l 776 760 l 769 765 q 745 775 753 777 q 748 772 746 774 l 751 770 l 753 768 q 762 760 759 764 q 770 746 773 750 q 764 749 767 746 q 761 753 762 751 l 758 756 q 749 758 751 764 q 779 716 770 734 q 766 726 772 718 l 764 729 l 762 732 q 758 737 760 735 q 763 718 756 728 l 765 714 q 767 710 766 711 q 770 700 770 705 q 754 715 759 701 l 752 722 l 750 727 q 745 737 748 734 q 745 732 745 736 l 745 730 l 745 727 q 741 721 744 722 q 741 731 740 724 l 741 736 q 741 742 741 740 q 732 754 740 753 q 732 741 731 747 q 734 735 733 738 l 735 730 q 732 708 738 718 q 729 720 730 712 q 729 727 729 723 l 728 734 q 724 758 728 752 m 795 834 q 770 838 775 833 q 786 826 774 829 q 795 825 790 825 q 804 825 800 825 q 795 834 793 827 m 949 691 q 945 705 950 696 q 939 711 943 708 q 933 718 937 714 q 936 709 935 713 q 943 700 939 705 l 946 695 q 949 691 948 693 m 983 626 l 985 623 q 988 620 987 621 q 996 616 991 616 l 994 620 q 991 623 992 622 q 983 626 988 626 m 966 597 q 960 600 963 600 q 957 597 958 599 q 958 595 956 595 q 966 597 961 595 m 956 489 q 955 471 952 484 l 956 467 l 958 461 q 958 450 958 455 q 960 451 958 450 l 961 452 l 962 454 q 965 453 964 457 q 964 472 969 461 l 962 476 l 959 480 q 956 489 956 486 m 994 375 q 998 373 996 372 q 1000 375 1000 373 q 999 378 1000 377 q 994 375 998 378 m 1023 342 q 1030 369 1029 353 q 1023 342 1023 357 m 1034 351 q 1029 342 1029 349 q 1029 336 1029 340 l 1029 334 l 1029 330 q 1032 340 1031 333 l 1033 342 l 1033 345 q 1034 351 1033 349 m 1036 363 q 1040 379 1042 367 q 1036 363 1036 375 m 1044 395 q 1046 393 1045 393 q 1046 395 1046 393 q 1047 397 1047 395 q 1047 400 1047 399 q 1046 402 1046 402 q 1045 401 1045 402 q 1044 398 1044 399 q 1044 395 1044 396 m 1060 506 q 1040 512 1050 514 l 1035 511 q 1030 510 1032 511 q 1019 512 1025 510 q 1015 507 1018 510 l 1013 505 l 1010 503 q 1009 494 1005 498 q 1004 495 1008 490 q 1001 500 1002 496 l 1000 502 l 999 503 l 999 503 q 998 496 994 500 l 999 494 l 1001 492 q 1002 488 1002 490 q 996 490 998 488 q 994 493 994 492 l 991 496 q 981 503 987 503 q 985 490 983 498 l 987 484 l 989 477 q 979 497 982 485 q 977 486 974 494 l 977 484 l 979 480 q 979 474 979 477 q 972 486 975 477 l 971 489 l 970 493 q 968 500 969 497 q 968 484 964 495 l 968 479 l 970 474 q 970 464 970 468 q 977 465 974 458 l 978 467 l 979 469 q 979 472 979 472 q 981 470 981 473 l 982 469 l 982 468 q 982 467 982 467 q 987 470 985 467 l 987 471 l 987 473 q 989 475 988 474 q 993 475 990 475 q 995 475 994 474 q 998 475 996 475 q 1027 490 1007 481 q 1060 506 1046 500 m 1034 513 q 1032 517 1035 516 q 1029 517 1031 517 l 1026 517 q 1034 513 1028 512 m 1048 531 l 1047 533 l 1046 535 q 1043 538 1044 537 q 1033 541 1039 542 l 1034 539 l 1036 537 q 1039 534 1038 535 q 1048 531 1042 530 m 1054 534 l 1052 537 q 1050 539 1051 538 q 1043 541 1047 542 l 1045 538 q 1047 536 1046 537 q 1054 534 1050 534 m 1110 539 q 1107 538 1108 539 q 1107 534 1107 536 q 1109 531 1108 532 q 1113 532 1111 530 l 1113 536 q 1110 539 1111 536 m 1126 540 q 1122 542 1125 542 l 1118 542 q 1115 542 1116 542 l 1116 537 q 1118 534 1118 537 q 1120 536 1119 535 l 1120 537 l 1121 538 q 1126 540 1122 540 m 1124 642 q 1121 641 1123 642 l 1120 640 l 1118 640 q 1116 635 1115 639 q 1118 636 1117 635 l 1120 637 l 1122 637 q 1124 642 1125 638 m 1158 557 q 1152 559 1158 560 l 1149 559 l 1147 559 q 1143 559 1144 558 q 1149 556 1143 555 l 1152 556 l 1154 557 q 1158 557 1157 557 m 1173 565 q 1168 568 1173 568 l 1166 568 l 1164 567 q 1160 567 1162 567 q 1165 564 1160 564 l 1167 565 l 1170 565 q 1173 565 1172 566 m 471 498 q 477 490 475 496 l 481 485 l 484 479 q 496 473 490 466 q 490 480 494 475 l 488 486 l 485 492 q 471 498 478 504 m 463 548 q 469 541 466 546 l 471 537 l 473 533 q 484 519 479 522 q 477 543 486 531 q 463 548 469 554 m 459 616 q 459 611 458 613 q 460 609 460 609 q 463 610 462 608 q 463 616 463 612 q 466 627 464 621 q 470 638 467 631 q 475 658 475 652 q 471 649 477 665 q 469 643 471 647 l 467 640 l 465 636 q 459 616 459 627 m 450 548 q 446 557 446 551 q 448 570 446 562 l 450 572 l 450 575 q 452 580 452 578 q 450 586 454 585 q 447 576 450 583 l 444 570 l 441 564 q 442 544 436 550 q 446 547 443 548 l 448 546 q 449 546 448 546 q 450 548 450 546 m 425 477 q 429 493 427 484 l 434 508 q 442 540 439 528 q 425 511 431 531 q 425 477 419 490 m 404 800 q 418 798 410 800 l 424 796 l 429 794 q 459 792 445 790 q 459 798 458 795 q 460 800 459 799 l 462 802 q 459 809 466 807 q 456 804 458 807 q 452 800 454 802 q 446 800 447 794 q 450 806 450 801 q 450 812 451 808 l 450 814 l 450 817 q 438 825 441 817 q 428 821 435 824 l 422 819 q 417 817 420 818 q 404 800 406 811 m 396 855 q 409 852 400 850 q 421 859 416 854 q 414 859 418 859 l 410 859 l 406 860 q 396 855 396 861 m 362 813 q 382 819 373 812 q 389 824 385 821 l 393 827 l 396 830 q 362 813 375 825 m 354 628 l 354 637 l 345 637 l 345 628 l 354 628 m 370 834 q 366 833 368 833 q 361 831 363 832 q 350 827 354 829 q 345 813 338 820 q 358 823 349 817 q 370 834 367 830 m 370 880 q 365 880 369 880 l 361 880 l 357 881 q 349 876 349 882 q 355 876 351 877 l 359 876 l 363 876 q 370 880 371 875 m 400 867 q 393 867 397 867 l 389 867 l 385 868 q 375 863 375 869 q 382 864 377 864 l 386 863 l 390 863 q 400 867 399 862 m 425 1006 q 429 998 423 1000 l 431 997 l 434 996 q 438 994 437 995 q 434 1002 439 1000 l 432 1003 l 429 1004 q 425 1006 427 1005 m 446 834 l 446 842 q 441 842 445 842 l 439 842 l 436 842 q 429 838 430 842 q 437 836 434 839 l 438 834 l 439 833 q 442 830 441 831 q 446 834 442 835 m 450 834 l 450 825 q 456 825 454 823 q 460 830 459 827 q 459 836 460 833 q 454 838 458 839 q 450 834 454 833 m 484 1057 q 481 1052 483 1055 l 477 1046 q 471 1036 473 1041 q 479 1040 475 1037 q 488 1046 485 1042 q 484 1057 496 1053 m 408 1040 q 414 1028 413 1029 q 412 1033 414 1027 q 408 1041 409 1038 q 408 1040 406 1044 m 1133 663 q 1133 664 1134 667 q 1131 659 1133 663 q 1130 656 1130 656 q 1133 663 1131 656 m 1178 568 q 1299 600 1236 596 q 1402 559 1375 604 q 1385 561 1396 557 q 1373 574 1375 566 q 1364 571 1369 567 l 1363 573 l 1361 576 q 1358 578 1359 578 q 1357 576 1360 578 q 1351 576 1355 576 q 1341 577 1346 575 q 1332 585 1336 580 q 1306 582 1317 581 q 1280 590 1294 583 q 1284 584 1283 587 l 1284 581 l 1284 578 q 1291 565 1285 570 q 1284 568 1289 565 q 1280 570 1282 569 l 1275 574 q 1252 581 1262 582 q 1263 572 1255 577 l 1267 570 l 1270 569 q 1276 564 1274 566 q 1270 565 1276 562 q 1263 572 1265 568 q 1262 568 1259 570 l 1263 568 l 1265 566 q 1265 564 1266 565 q 1258 567 1262 565 l 1255 568 l 1252 570 q 1237 576 1243 575 q 1249 567 1240 572 l 1252 565 l 1255 563 q 1261 559 1259 561 q 1250 562 1259 557 l 1246 564 l 1242 566 q 1235 568 1238 568 q 1240 562 1236 564 l 1241 562 l 1243 561 q 1245 558 1244 559 q 1234 560 1240 560 l 1229 559 l 1224 559 q 1204 566 1211 558 q 1211 557 1201 562 l 1214 555 l 1218 552 q 1223 547 1222 549 q 1213 550 1221 545 l 1210 552 l 1206 554 q 1199 556 1202 556 q 1204 551 1200 553 l 1205 551 l 1207 550 q 1210 549 1208 549 q 1203 546 1204 547 q 1208 538 1202 545 q 1202 539 1205 539 l 1200 539 l 1198 538 q 1190 543 1193 538 q 1189 541 1190 543 l 1188 539 l 1187 538 q 1182 540 1186 535 q 1202 534 1184 532 q 1210 534 1205 534 l 1218 536 q 1234 537 1228 537 q 1235 534 1236 536 l 1234 533 l 1234 532 q 1234 529 1234 530 q 1294 519 1264 538 q 1336 477 1317 505 q 1333 477 1335 474 q 1330 479 1331 477 l 1329 481 l 1327 483 q 1322 486 1324 486 q 1321 479 1320 486 q 1310 495 1317 488 l 1308 498 l 1304 501 q 1299 507 1301 505 q 1297 503 1297 505 l 1298 502 l 1299 501 q 1299 498 1299 500 q 1295 498 1299 496 q 1293 499 1295 498 l 1291 500 l 1289 501 q 1282 495 1280 507 q 1275 499 1278 497 l 1272 502 l 1269 505 q 1255 512 1261 511 q 1260 501 1256 507 l 1263 496 l 1266 492 q 1259 496 1263 493 q 1255 500 1257 498 l 1251 505 q 1229 519 1238 517 q 1235 513 1232 516 l 1242 507 q 1253 494 1250 499 q 1241 501 1250 493 l 1237 505 l 1234 508 q 1227 513 1230 512 q 1229 508 1223 511 l 1231 507 l 1233 505 q 1235 501 1235 503 q 1233 502 1234 502 l 1232 503 l 1231 503 q 1227 506 1227 504 q 1227 501 1223 505 l 1230 500 l 1231 499 q 1233 496 1233 497 q 1223 500 1229 498 l 1219 502 l 1214 503 q 1196 515 1202 507 q 1202 505 1194 511 q 1215 498 1208 500 q 1208 498 1214 494 q 1202 505 1202 501 q 1209 492 1198 496 l 1214 490 l 1219 488 q 1228 483 1225 485 q 1230 479 1230 481 l 1231 477 l 1232 475 q 1239 473 1234 470 q 1223 470 1234 467 l 1218 471 l 1213 473 q 1203 474 1207 475 q 1237 462 1215 468 l 1246 459 l 1255 456 q 1273 451 1266 454 q 1268 450 1272 448 l 1267 450 l 1265 451 q 1261 451 1263 452 q 1259 452 1259 452 q 1259 452 1259 453 q 1259 452 1258 452 q 1259 450 1259 451 q 1263 448 1261 448 q 1268 448 1265 447 q 1263 446 1267 444 l 1261 447 l 1259 448 q 1255 448 1257 448 q 1265 442 1255 446 l 1270 441 l 1274 439 q 1282 436 1280 438 q 1264 437 1276 432 l 1259 439 l 1255 441 q 1245 442 1249 443 q 1293 418 1263 433 q 1290 416 1293 416 q 1288 416 1289 416 l 1286 417 q 1282 418 1283 418 q 1282 413 1282 417 q 1296 409 1292 414 q 1295 406 1296 406 q 1291 407 1293 406 q 1288 406 1288 410 q 1298 396 1291 399 q 1305 393 1301 395 l 1308 393 l 1312 391 q 1303 388 1303 389 q 1315 384 1304 387 q 1313 382 1314 383 l 1312 381 l 1312 380 q 1310 376 1310 379 q 1320 369 1321 378 q 1318 368 1320 366 l 1317 368 l 1316 368 q 1313 368 1314 369 q 1329 353 1327 356 q 1320 356 1327 351 l 1318 357 l 1314 359 q 1308 360 1311 361 q 1319 353 1311 356 l 1322 351 l 1326 350 q 1332 346 1330 348 q 1314 351 1315 349 q 1322 342 1315 345 q 1328 338 1326 340 q 1333 330 1331 335 q 1327 334 1330 332 l 1325 336 l 1323 338 q 1312 342 1318 342 q 1312 323 1313 334 l 1311 318 l 1310 314 q 1310 304 1310 309 q 1308 315 1306 307 l 1308 318 l 1309 321 q 1310 327 1310 325 q 1305 319 1305 327 l 1305 316 l 1305 313 q 1303 309 1304 310 q 1302 316 1301 309 l 1302 319 l 1303 323 q 1301 329 1303 327 q 1297 317 1299 325 l 1295 310 l 1293 303 q 1293 315 1289 307 l 1295 319 l 1296 323 q 1297 332 1297 328 q 1292 321 1293 330 l 1291 318 l 1291 315 q 1287 311 1289 312 q 1286 316 1284 312 l 1286 319 l 1287 321 q 1286 326 1288 323 q 1282 321 1283 317 q 1284 334 1281 326 q 1280 330 1282 336 q 1278 325 1279 328 q 1276 320 1277 322 q 1275 328 1272 323 l 1276 330 l 1278 332 q 1278 336 1279 334 q 1274 332 1275 335 l 1273 330 l 1272 328 q 1271 326 1272 326 q 1268 330 1269 326 l 1267 332 l 1267 333 q 1265 335 1267 335 q 1263 335 1263 339 l 1264 333 l 1265 331 q 1266 328 1265 329 q 1257 342 1256 328 l 1256 342 l 1255 340 q 1253 337 1253 339 q 1250 344 1252 342 q 1247 345 1249 345 l 1245 346 q 1239 357 1239 348 q 1243 359 1239 359 q 1246 358 1245 357 q 1249 360 1248 358 q 1246 361 1249 359 l 1243 362 l 1241 363 q 1236 357 1235 366 q 1232 362 1232 359 q 1234 368 1232 364 l 1235 370 l 1236 372 q 1238 376 1237 374 q 1238 385 1240 380 q 1233 370 1233 381 l 1232 372 l 1231 374 q 1229 378 1230 377 q 1225 372 1226 381 q 1225 389 1223 376 l 1225 393 l 1226 399 q 1226 408 1227 405 q 1218 392 1221 404 l 1217 388 l 1215 383 q 1213 374 1214 378 q 1211 379 1208 375 l 1212 380 l 1213 382 q 1212 387 1213 385 l 1211 386 l 1210 385 q 1208 382 1208 383 q 1199 381 1204 380 q 1201 395 1198 387 l 1202 397 l 1203 400 q 1203 407 1204 404 q 1191 406 1197 408 q 1185 404 1189 406 l 1181 403 q 1160 403 1169 399 q 1163 399 1160 400 q 1168 397 1164 397 q 1173 395 1171 395 q 1176 391 1175 393 q 1165 395 1171 392 l 1160 397 l 1156 399 q 1134 407 1143 406 q 1141 401 1137 404 l 1145 399 l 1149 397 q 1163 387 1160 393 q 1157 389 1160 387 l 1155 389 l 1153 391 q 1142 394 1147 394 q 1147 389 1144 391 l 1151 388 l 1155 387 q 1166 377 1164 382 q 1157 380 1161 376 l 1155 382 l 1153 383 q 1147 384 1151 385 q 1158 374 1151 378 q 1165 370 1161 372 l 1172 367 q 1158 370 1168 365 l 1154 372 l 1149 374 q 1141 376 1145 376 q 1158 366 1147 372 l 1166 360 l 1175 355 q 1170 354 1174 351 l 1168 355 l 1166 356 q 1162 357 1164 357 q 1181 342 1169 346 q 1173 341 1176 340 q 1169 342 1171 341 l 1167 343 q 1155 343 1160 347 q 1173 330 1163 338 l 1177 326 l 1181 323 q 1190 317 1185 319 q 1183 316 1189 313 q 1179 319 1181 317 q 1176 321 1177 320 q 1176 315 1171 318 q 1181 313 1178 314 l 1183 312 l 1183 311 l 1184 311 q 1181 306 1184 308 l 1179 305 l 1177 304 q 1175 303 1175 304 q 1179 298 1175 300 l 1180 297 l 1181 296 q 1183 293 1182 295 q 1166 302 1172 298 q 1175 291 1168 298 l 1177 288 l 1180 285 q 1186 278 1183 281 q 1177 283 1181 280 l 1168 289 q 1149 299 1156 296 l 1143 289 l 1138 279 q 1128 257 1131 267 q 1129 271 1127 262 q 1134 286 1131 278 q 1108 290 1119 288 q 1109 296 1108 293 l 1111 298 l 1112 301 q 1115 313 1116 307 q 1112 313 1109 307 q 1113 317 1112 314 l 1115 320 q 1117 326 1116 324 q 1088 287 1101 320 q 1082 271 1086 281 l 1080 263 l 1077 254 q 1063 218 1069 233 q 964 118 1034 157 l 1008 98 q 1059 72 1038 84 q 1112 37 1090 55 q 1173 -58 1170 -8 q 1105 -64 1131 -65 q 1041 -49 1069 -63 q 1040 -44 1041 -47 l 1040 -42 l 1040 -40 q 1040 -33 1039 -36 q 1031 -23 1036 -30 l 1030 -20 l 1028 -18 q 1023 -12 1025 -14 q 1000 12 1012 5 q 939 58 972 37 q 933 49 937 54 l 930 44 l 928 39 q 922 22 922 28 q 923 -11 921 10 l 924 -18 l 924 -26 q 924 -43 924 -35 q 913 -43 919 -42 l 907 -43 l 903 -43 q 888 -42 892 -43 q 881 -34 882 -41 q 880 -12 879 -27 q 911 74 886 35 q 854 101 886 87 l 826 114 l 798 126 q 663 196 707 165 q 555 317 593 244 q 530 375 543 341 q 524 389 527 381 l 522 395 l 519 402 q 509 427 513 418 q 487 467 498 453 q 459 490 475 484 q 463 479 460 486 l 465 477 l 466 473 q 469 469 468 470 q 463 469 473 458 q 469 449 463 458 l 471 445 q 473 441 472 443 q 475 431 475 436 q 433 422 458 426 q 443 399 439 410 q 446 376 447 385 q 428 410 439 391 l 418 427 q 408 444 412 437 q 378 425 397 437 l 372 420 l 364 415 q 349 406 356 410 q 358 418 353 411 l 363 423 l 367 428 q 379 448 378 440 q 354 431 371 439 q 356 435 354 433 l 358 437 l 360 439 q 366 448 366 443 q 361 450 365 449 l 359 451 l 356 452 q 349 460 351 455 l 351 460 l 352 461 q 355 463 354 462 q 363 467 360 465 q 362 477 370 473 q 357 473 361 475 q 351 468 354 470 q 341 469 342 463 q 354 479 347 473 l 360 485 l 366 490 q 396 515 382 506 q 384 517 389 517 q 376 513 381 516 l 374 512 l 372 511 q 368 509 370 510 q 354 511 361 508 q 383 536 372 518 q 376 535 380 537 q 373 533 375 534 l 370 531 q 366 528 367 528 q 362 532 363 528 l 376 541 l 389 551 q 417 569 406 562 q 402 566 410 570 q 395 562 399 564 l 392 560 l 389 559 q 366 553 373 549 l 372 555 l 377 558 q 388 565 384 562 q 404 582 399 572 q 396 580 399 582 q 393 578 394 579 l 390 575 q 375 569 382 569 q 393 585 378 578 l 398 588 q 404 591 401 589 q 412 599 410 595 q 404 597 408 599 q 399 595 401 596 l 396 593 q 379 586 387 587 q 401 604 384 595 l 408 607 q 414 610 412 609 q 425 620 422 614 q 390 606 410 617 l 382 602 l 374 598 q 358 590 366 593 q 363 597 359 595 q 366 600 364 598 l 370 601 q 383 611 382 605 q 349 610 368 606 l 341 612 q 332 614 336 614 q 312 616 321 616 q 313 604 311 610 q 315 600 313 602 l 317 595 q 320 574 321 584 q 307 574 311 571 q 302 578 304 576 l 301 580 l 299 582 q 298 574 297 578 q 300 572 299 573 l 302 569 q 304 564 304 566 q 299 561 303 562 q 294 575 296 566 l 291 583 l 288 590 q 274 616 282 608 q 275 600 274 610 l 277 591 l 278 583 q 278 557 281 563 q 272 566 276 572 q 269 559 271 565 l 267 556 q 266 553 267 554 q 257 578 264 571 q 258 562 254 570 q 260 555 258 559 l 262 553 l 264 550 q 269 541 269 543 q 261 532 269 535 q 253 541 262 546 q 250 539 252 541 l 248 538 l 245 536 q 240 536 241 534 q 245 532 242 532 q 250 533 247 532 l 253 534 q 255 534 254 534 q 257 532 257 534 q 254 517 258 522 q 248 513 253 514 l 246 511 l 244 511 q 241 509 242 510 q 236 498 237 505 q 233 503 235 501 q 231 505 232 504 l 228 507 q 215 481 231 484 q 216 487 215 483 l 218 490 q 218 494 218 492 q 215 494 220 500 q 212 490 213 493 q 212 488 212 489 l 212 484 q 207 477 211 477 q 204 481 205 479 l 203 484 l 202 487 q 194 494 199 493 q 195 486 193 490 q 198 483 197 485 l 201 480 q 198 469 206 473 q 196 475 197 472 q 192 484 194 481 q 186 490 187 494 q 189 469 191 477 q 182 477 188 462 q 180 469 180 473 q 182 465 181 467 l 182 463 l 184 461 q 186 456 186 457 q 182 452 185 453 q 176 458 178 454 q 174 464 175 460 l 174 469 q 165 486 170 482 q 166 472 164 479 q 169 466 168 469 l 172 460 q 173 439 178 445 l 170 450 l 165 461 q 156 481 161 474 q 155 471 155 477 l 156 465 l 157 460 q 156 448 159 448 q 153 454 153 449 q 153 459 153 456 l 152 465 q 144 477 151 477 q 144 467 143 473 l 146 462 l 148 456 q 144 439 151 444 q 143 455 144 447 l 142 463 l 141 470 q 140 502 138 488 q 121 494 130 502 l 117 490 l 114 487 q 106 481 110 483 q 113 494 108 489 q 121 500 115 496 l 124 501 l 126 502 q 130 505 129 504 q 135 515 134 509 q 122 509 127 510 l 119 509 l 118 509 l 116 509 q 106 507 111 508 q 115 513 109 510 l 120 515 l 125 518 q 144 532 140 524 q 133 529 139 532 q 128 526 131 528 q 123 523 127 526 q 110 519 113 515 q 135 544 113 523 q 130 544 133 545 l 129 543 l 127 543 q 123 544 123 541 q 140 557 121 559 q 137 564 140 562 l 135 566 l 134 567 q 131 569 132 568 q 149 577 148 574 q 135 582 150 580 l 141 584 l 147 586 q 158 591 154 588 q 173 607 170 597 q 172 611 174 612 q 170 610 171 611 l 169 610 l 168 608 q 163 606 164 606 q 161 611 161 606 q 182 620 166 621 q 181 627 183 627 q 176 625 180 628 l 174 625 l 172 624 q 169 623 170 623 q 165 628 165 623 q 240 670 212 652 q 224 667 233 670 q 217 663 222 665 l 210 660 q 182 658 192 651 q 193 663 184 661 l 200 666 l 208 669 q 224 679 225 675 q 218 678 221 680 l 214 676 l 212 675 q 203 679 205 671 q 211 678 207 676 q 216 682 214 679 q 218 684 218 684 q 218 686 218 686 q 217 686 218 686 q 215 683 216 685 q 208 684 212 684 q 205 682 207 683 l 202 680 q 197 678 199 678 q 194 683 195 679 q 223 692 205 687 l 238 697 l 252 702 q 308 725 288 713 q 291 722 300 726 q 283 720 288 722 l 279 718 l 275 717 q 249 721 256 710 q 260 724 257 715 l 261 728 l 262 731 q 266 737 264 736 q 280 746 270 741 l 288 749 q 296 753 293 751 q 308 775 313 762 q 298 764 306 769 q 287 763 289 757 q 308 777 297 767 q 316 792 319 787 q 287 772 306 780 l 279 770 l 272 766 q 257 758 263 763 q 260 764 257 761 q 262 766 260 765 l 265 768 q 266 775 272 773 q 260 770 265 772 l 258 770 l 256 769 q 253 767 254 768 q 256 773 253 770 q 260 776 258 774 l 263 779 q 266 788 271 785 q 255 779 261 785 l 249 772 l 243 767 q 224 754 230 753 q 242 776 229 763 l 247 781 l 252 785 q 261 796 258 791 q 227 772 247 793 l 224 768 l 220 765 q 214 758 216 760 q 203 750 208 751 q 208 758 204 753 l 210 762 l 212 765 q 219 783 218 774 q 197 770 209 781 l 193 766 l 188 762 q 177 754 182 757 q 174 766 178 765 q 165 764 171 768 l 162 762 l 159 760 q 154 757 156 758 q 148 758 149 754 q 149 762 148 760 l 150 764 l 151 766 q 148 771 153 769 q 140 762 145 768 l 135 757 l 130 752 q 114 725 119 739 q 111 736 114 736 q 104 730 109 736 l 102 728 l 100 724 q 96 720 97 722 q 89 721 91 715 q 155 793 119 768 q 253 813 203 826 q 253 818 254 815 l 252 820 l 251 821 q 253 825 250 825 q 278 825 262 827 l 285 825 l 292 824 q 304 823 300 823 q 337 834 334 821 q 328 831 331 826 q 327 833 328 831 l 326 836 q 324 838 325 838 q 311 831 319 831 l 307 831 l 304 832 q 295 830 299 831 q 302 842 303 840 q 291 846 301 843 q 296 849 292 848 l 298 850 l 301 851 q 308 859 307 854 q 296 856 302 859 q 291 852 294 854 l 286 849 q 270 842 273 840 q 277 852 271 847 q 283 856 279 854 l 290 859 q 299 867 297 864 q 299 876 302 871 q 267 863 288 862 l 263 863 l 259 863 q 250 863 254 863 q 232 859 240 863 q 236 863 233 862 l 239 865 l 241 867 q 249 876 248 871 q 236 873 243 876 q 230 869 233 871 l 224 866 q 207 859 211 857 q 216 867 210 863 l 221 870 l 227 873 q 245 888 239 882 q 220 879 234 887 l 216 876 l 210 873 q 198 867 204 869 q 199 872 197 869 l 202 873 l 204 876 q 203 880 209 879 q 192 869 200 875 q 182 867 183 863 q 191 875 185 871 l 196 878 l 201 882 q 219 897 214 890 q 182 882 203 897 l 178 880 l 175 877 q 168 873 170 874 q 156 867 161 868 q 166 888 166 876 l 166 894 q 167 899 167 897 q 173 909 168 905 q 131 894 150 897 q 89 897 113 892 q 74 884 83 888 q 58 880 66 880 q 47 882 52 880 q 47 884 44 884 q 41 880 45 884 l 39 876 q 36 872 37 873 q 22 876 28 865 q 3 854 20 863 q -24 851 -14 846 q 43 907 -3 889 q 142 924 85 924 q 341 880 244 923 q 351 887 344 883 l 357 890 l 363 893 q 375 905 378 901 q 359 907 372 903 q 341 918 345 912 q 358 926 354 919 l 350 928 q 342 929 345 928 q 328 935 333 931 q 338 938 331 936 l 344 940 q 350 942 347 941 q 358 951 363 947 q 342 947 353 950 l 334 944 l 326 941 q 299 935 305 934 q 307 942 301 939 q 312 945 309 943 l 317 947 q 333 960 330 952 q 314 959 326 965 l 309 956 q 303 954 306 954 q 291 951 296 951 q 294 958 291 956 q 299 960 295 959 q 308 968 307 963 q 300 969 304 970 q 297 968 299 968 l 294 966 q 290 964 292 964 q 287 968 288 964 q 299 977 296 972 q 291 978 295 979 q 288 976 290 977 q 285 973 287 975 q 281 970 282 970 q 278 972 279 969 q 304 996 286 991 q 342 996 319 1000 l 352 994 l 362 991 q 381 987 375 989 q 412 989 402 984 q 375 1006 397 994 q 425 985 399 1003 q 388 1013 415 1002 q 376 1018 383 1015 l 364 1022 q 341 1031 349 1027 q 351 1031 346 1033 q 356 1030 353 1031 l 360 1029 q 375 1031 370 1025 q 369 1033 373 1032 l 366 1034 l 363 1034 q 354 1040 356 1036 q 361 1040 357 1042 q 364 1039 362 1040 l 367 1038 q 372 1036 370 1036 q 375 1040 374 1036 q 324 1078 359 1055 q 342 1073 332 1077 l 351 1069 l 359 1065 q 387 1057 380 1055 q 348 1078 375 1066 l 338 1083 l 328 1088 q 308 1099 316 1094 q 317 1105 319 1098 l 316 1107 l 315 1110 q 316 1116 315 1114 q 313 1114 314 1115 l 311 1113 l 310 1112 q 299 1107 306 1109 q 296 1122 302 1123 q 289 1118 293 1121 q 282 1112 286 1115 l 282 1128 q 275 1128 277 1131 q 274 1122 274 1126 l 274 1120 l 274 1118 q 274 1114 275 1116 q 270 1112 273 1111 q 270 1116 269 1113 l 270 1119 l 269 1122 q 266 1128 269 1127 q 264 1122 264 1126 l 263 1118 l 262 1114 q 253 1107 260 1106 q 256 1112 254 1108 q 258 1120 257 1116 q 253 1133 259 1131 q 233 1130 253 1126 q 224 1132 230 1131 l 216 1134 q 203 1137 206 1136 q 233 1154 215 1150 q 264 1152 245 1156 l 273 1151 l 280 1149 q 295 1147 290 1148 q 320 1154 311 1146 q 328 1145 321 1143 q 331 1149 332 1145 l 331 1150 q 330 1152 330 1151 q 333 1154 330 1153 q 356 1145 341 1149 l 363 1143 l 369 1141 q 381 1138 376 1139 q 408 1107 409 1128 q 417 1108 412 1106 l 422 1109 l 427 1111 q 442 1107 438 1114 q 425 1090 429 1103 q 436 1093 432 1093 q 439 1092 437 1093 q 441 1090 440 1091 q 446 1088 445 1088 q 454 1090 450 1087 q 451 1084 454 1088 q 448 1081 450 1083 l 444 1078 q 442 1069 437 1072 q 444 1072 443 1070 q 447 1074 446 1073 q 454 1079 451 1077 q 467 1078 465 1084 q 456 1074 460 1078 q 453 1070 455 1072 l 452 1067 l 450 1065 q 471 1069 463 1063 q 470 1065 471 1067 l 468 1063 l 466 1062 q 463 1053 461 1059 q 480 1056 469 1049 l 486 1059 l 490 1061 q 501 1065 496 1064 q 516 1101 505 1074 q 525 1122 522 1114 q 534 1143 530 1134 q 589 1225 559 1198 q 591 1220 589 1222 l 593 1219 l 595 1217 q 597 1208 600 1215 q 594 1197 597 1203 q 591 1192 593 1194 l 587 1186 q 581 1171 578 1173 q 584 1175 581 1173 q 587 1177 585 1177 l 589 1179 q 579 1162 581 1168 q 589 1166 576 1155 q 583 1155 588 1162 q 572 1143 578 1150 q 564 1133 561 1131 l 571 1138 l 578 1144 q 593 1156 588 1152 q 627 1175 610 1168 q 598 1142 619 1160 l 590 1135 q 582 1128 585 1131 q 568 1112 574 1120 q 585 1122 576 1115 l 593 1128 l 600 1134 q 640 1149 619 1148 q 640 1139 640 1145 l 640 1133 l 639 1128 q 644 1112 638 1114 q 648 1126 645 1128 q 651 1122 650 1125 q 652 1116 652 1118 q 655 1120 654 1116 q 656 1123 656 1121 l 656 1126 q 661 1137 656 1136 q 661 1127 662 1133 l 661 1122 l 660 1118 q 661 1107 657 1107 q 665 1115 663 1110 l 665 1120 l 667 1124 q 673 1141 669 1137 q 673 1136 673 1139 l 673 1133 l 673 1131 q 677 1124 674 1125 q 690 1154 677 1140 q 686 1134 690 1145 q 683 1124 685 1129 l 680 1114 q 673 1082 671 1091 q 681 1103 677 1090 l 685 1113 l 688 1123 q 707 1162 698 1148 q 703 1148 707 1156 l 701 1141 l 697 1135 q 694 1112 689 1119 q 701 1124 696 1115 l 705 1131 l 708 1138 q 724 1154 718 1156 q 714 1139 721 1147 l 709 1131 l 703 1122 q 694 1090 690 1103 q 715 1130 702 1111 q 741 1154 729 1151 q 735 1147 739 1151 l 732 1144 l 730 1141 q 718 1127 722 1133 q 707 1099 704 1109 l 710 1103 l 713 1107 q 720 1118 717 1114 q 734 1137 728 1129 q 766 1162 753 1159 q 762 1156 765 1158 l 760 1154 l 757 1152 q 753 1137 751 1146 q 760 1137 756 1135 q 762 1139 761 1137 q 764 1141 763 1139 q 767 1145 766 1144 q 770 1141 768 1145 q 766 1139 768 1141 q 762 1135 763 1138 q 761 1131 760 1133 q 766 1128 762 1128 q 777 1138 768 1135 l 781 1140 l 784 1141 q 791 1145 788 1143 q 788 1139 791 1141 q 785 1138 787 1139 l 783 1137 q 774 1128 774 1134 q 794 1131 783 1133 q 812 1124 804 1130 q 703 1093 750 1119 q 663 1067 685 1083 q 644 1052 655 1061 l 633 1044 l 623 1036 q 628 1036 625 1036 l 631 1036 l 633 1036 q 640 1031 639 1035 q 629 1031 631 1031 q 630 1029 627 1030 l 631 1028 l 633 1027 q 635 1025 634 1025 q 640 1019 639 1022 q 597 1002 614 1015 q 633 1004 610 999 l 644 1007 l 654 1010 q 675 1015 667 1013 q 713 1017 699 1020 q 741 994 731 1013 q 734 994 739 993 l 731 994 l 727 994 q 720 989 719 995 q 726 986 722 987 l 730 985 l 733 985 q 745 977 743 982 q 736 979 741 977 l 732 980 l 727 981 q 705 985 713 984 q 669 977 678 989 l 675 975 l 681 974 q 692 971 688 972 q 711 960 705 967 q 696 962 705 960 l 688 964 l 680 966 q 652 964 662 971 q 662 962 658 963 q 673 960 668 961 q 696 954 686 957 q 711 935 721 945 q 730 937 722 941 q 741 922 739 934 q 764 927 753 921 l 769 930 l 774 932 q 787 939 781 937 q 783 932 786 936 l 781 931 l 780 930 q 779 926 779 928 q 786 928 783 925 q 789 930 787 928 q 791 933 790 931 q 795 938 794 937 q 799 935 798 939 q 795 932 798 935 q 790 928 792 930 q 791 922 784 923 q 806 936 795 929 l 811 939 l 816 941 q 825 947 821 945 q 818 939 823 944 l 814 935 l 810 930 q 804 914 800 919 q 822 926 810 918 l 831 933 q 842 940 838 937 q 883 951 866 956 q 871 943 873 952 q 878 944 875 943 q 883 947 880 945 q 896 951 890 952 q 894 947 896 949 l 892 945 q 892 943 892 945 q 901 943 897 941 q 905 945 903 944 l 907 947 l 909 948 q 916 951 913 951 q 921 947 919 951 q 910 941 911 947 l 910 938 q 910 935 910 937 q 904 930 909 932 q 917 932 909 930 l 924 933 l 930 935 q 955 930 947 938 q 896 909 911 928 q 901 907 899 909 l 903 906 l 905 905 q 917 901 911 901 q 914 909 918 906 l 913 910 l 911 911 q 909 914 909 913 q 917 916 912 913 l 922 918 l 926 920 q 942 918 937 926 l 939 917 l 935 916 q 928 913 931 913 q 921 901 922 909 l 923 901 l 925 901 q 929 901 928 901 q 934 897 933 900 q 930 892 930 895 q 931 890 930 892 l 932 888 q 930 880 935 882 q 921 893 930 890 q 925 881 921 887 q 928 875 926 878 l 932 869 q 938 851 942 857 q 923 871 931 867 l 921 872 l 920 873 q 915 875 917 874 q 904 884 909 878 q 905 880 904 882 l 905 878 l 906 876 q 904 872 907 873 q 901 873 903 873 q 900 874 901 873 q 899 875 899 874 q 898 876 899 875 q 897 878 898 877 q 896 880 897 879 q 893 871 894 877 l 894 867 l 894 862 q 883 846 894 850 q 874 854 880 849 l 869 860 l 865 865 q 846 872 852 876 q 858 851 856 868 q 829 867 842 858 q 831 859 828 863 q 834 854 832 857 l 836 852 l 838 850 q 843 844 842 846 q 841 838 844 840 q 825 857 836 848 q 808 863 813 867 q 825 838 821 855 q 812 833 819 831 q 802 839 808 833 l 800 842 l 798 844 q 793 847 795 846 q 787 846 789 850 q 800 833 793 842 l 806 825 q 812 817 809 820 q 896 775 865 805 q 931 722 920 753 q 946 707 938 718 q 957 686 953 697 q 951 706 959 694 l 947 711 l 943 715 q 937 724 939 721 q 947 715 941 726 l 949 711 l 952 707 q 957 699 955 701 q 954 713 960 704 l 952 718 l 950 722 q 947 730 947 726 q 960 707 954 722 l 962 701 l 965 694 q 970 682 968 687 q 966 702 971 688 l 963 707 l 961 713 q 958 725 958 720 q 966 707 966 718 q 969 711 968 708 l 968 715 q 968 718 968 717 q 973 708 971 715 l 974 705 l 975 703 q 977 698 976 699 q 977 704 979 698 l 977 707 l 976 710 q 977 715 976 713 q 979 710 979 715 l 980 707 l 980 705 q 982 703 981 703 q 983 707 982 705 q 984 709 983 709 q 987 701 986 711 q 990 711 991 703 l 989 714 l 989 718 q 989 724 989 722 q 1013 715 1001 724 l 1018 712 l 1023 709 q 1034 703 1029 705 q 1025 712 1030 707 l 1019 717 l 1015 721 q 996 740 1001 731 q 1017 729 1006 736 q 1026 722 1020 727 l 1031 719 l 1036 715 q 1030 722 1038 715 q 1023 729 1026 726 q 1019 736 1020 733 q 1025 734 1027 729 q 1019 743 1024 737 l 1021 743 l 1022 741 q 1024 739 1024 741 q 1020 748 1025 741 l 1018 751 l 1015 754 q 1013 761 1013 758 q 1015 767 1012 765 l 1016 768 l 1017 768 q 1018 772 1018 770 q 1053 724 1036 756 q 1060 710 1057 718 q 1065 698 1062 705 q 1076 676 1073 682 q 1082 674 1078 676 l 1086 673 l 1088 671 q 1099 670 1096 667 q 1097 675 1100 673 l 1096 676 l 1095 677 q 1094 680 1094 678 q 1107 677 1099 676 l 1105 680 q 1103 683 1104 682 q 1096 685 1100 686 q 1103 686 1097 689 q 1108 683 1105 685 l 1110 682 q 1112 680 1111 681 q 1110 686 1115 682 l 1107 688 l 1105 689 q 1103 693 1103 691 q 1112 693 1108 690 l 1113 694 q 1115 695 1114 694 q 1121 694 1117 695 q 1111 703 1119 702 q 1120 706 1113 708 l 1122 705 l 1126 705 q 1131 705 1129 704 q 1147 724 1130 718 q 1154 726 1149 725 l 1162 729 q 1176 734 1171 732 q 1177 734 1177 734 l 1177 733 l 1177 732 q 1179 730 1176 730 q 1183 735 1183 729 q 1199 732 1190 731 q 1208 734 1202 732 l 1213 735 l 1217 736 q 1256 728 1243 741 q 1247 726 1253 728 l 1242 724 l 1238 723 q 1225 724 1225 720 q 1223 717 1221 723 q 1224 711 1223 714 q 1226 709 1225 709 q 1220 713 1221 708 l 1219 715 l 1219 718 q 1218 721 1219 720 q 1215 717 1215 721 l 1215 714 q 1215 711 1216 712 q 1213 713 1213 711 q 1213 715 1213 713 l 1213 717 q 1207 721 1213 723 l 1208 711 q 1204 714 1206 713 q 1200 716 1201 716 q 1198 707 1195 718 q 1191 710 1194 709 l 1190 711 l 1190 711 q 1187 712 1189 711 q 1187 709 1188 711 l 1187 707 l 1187 705 q 1193 702 1186 701 q 1181 695 1188 699 l 1175 692 l 1168 688 q 1145 674 1153 680 q 1162 680 1149 673 l 1167 683 l 1173 686 q 1183 689 1179 688 q 1154 665 1163 674 q 1158 663 1155 661 l 1160 664 l 1162 665 q 1166 665 1164 666 q 1161 661 1165 663 l 1157 661 l 1154 659 q 1162 658 1156 655 l 1165 659 l 1168 660 q 1174 660 1171 661 q 1160 654 1169 657 l 1153 651 l 1146 648 q 1124 630 1130 640 q 1154 644 1139 641 q 1132 633 1141 635 q 1151 632 1138 629 q 1162 635 1155 633 l 1168 637 l 1175 638 q 1198 640 1189 642 q 1214 626 1208 637 q 1213 624 1213 624 q 1210 626 1212 624 l 1208 627 q 1206 629 1207 628 q 1201 628 1204 629 q 1209 623 1204 625 q 1204 621 1208 619 l 1202 623 l 1200 623 q 1196 623 1198 624 q 1198 619 1196 621 q 1200 618 1199 618 l 1202 618 q 1207 613 1206 616 q 1200 614 1204 612 l 1196 615 l 1193 616 q 1181 616 1185 620 q 1192 609 1183 612 l 1194 608 l 1198 606 q 1202 602 1201 605 q 1186 606 1199 602 l 1181 607 l 1175 608 q 1166 611 1170 610 q 1171 605 1163 608 l 1175 604 l 1179 603 q 1184 602 1183 602 q 1177 597 1182 599 q 1172 597 1175 597 l 1166 595 q 1177 591 1169 591 q 1166 584 1175 587 q 1157 583 1158 581 q 1164 575 1156 579 l 1168 573 l 1173 572 q 1178 568 1177 570 m 1344 300 q 1342 303 1343 302 l 1341 304 l 1339 305 q 1340 301 1339 304 l 1341 299 l 1342 296 q 1345 286 1344 290 q 1343 264 1349 271 q 1331 294 1341 277 q 1331 290 1331 292 l 1332 287 l 1333 284 q 1330 277 1333 277 q 1330 281 1330 278 l 1329 284 l 1329 287 q 1331 294 1329 294 l 1329 300 l 1326 304 q 1326 299 1326 304 l 1326 296 l 1326 292 q 1324 289 1326 284 q 1324 294 1324 291 l 1324 298 l 1324 301 q 1320 309 1324 309 q 1318 293 1320 302 q 1314 283 1316 283 q 1314 298 1314 289 l 1314 305 l 1314 313 q 1316 340 1314 330 q 1321 336 1318 338 l 1326 332 q 1336 324 1333 327 q 1346 305 1347 313 q 1345 305 1343 309 l 1345 303 q 1346 301 1345 302 q 1344 300 1346 300 m 1181 273 q 1169 281 1172 280 q 1170 278 1167 281 q 1175 271 1171 275 q 1177 269 1177 270 q 1179 267 1179 267 q 1172 272 1175 269 l 1169 275 l 1166 277 q 1152 287 1158 284 q 1152 280 1152 284 l 1152 277 l 1151 273 q 1145 260 1150 265 q 1143 264 1146 267 l 1142 264 q 1141 263 1141 263 q 1140 266 1140 263 q 1143 269 1143 266 q 1145 269 1143 271 l 1145 269 l 1146 267 q 1147 266 1147 267 q 1146 275 1148 271 l 1145 276 l 1144 277 q 1142 281 1143 279 l 1144 284 l 1147 287 q 1149 294 1149 290 q 1159 290 1154 292 q 1169 285 1165 288 q 1181 273 1181 278 m 1173 267 q 1185 255 1187 254 q 1175 263 1185 255 q 1160 276 1166 271 q 1158 279 1152 283 q 1166 273 1160 278 q 1173 267 1173 268 m 1172 246 q 1175 242 1173 245 l 1178 240 l 1180 237 q 1183 229 1185 232 q 1178 235 1181 231 l 1175 239 l 1172 243 q 1161 251 1165 253 q 1166 246 1164 249 q 1171 240 1169 243 q 1175 229 1177 232 q 1170 236 1173 234 q 1170 230 1169 234 l 1170 227 l 1171 223 q 1168 213 1171 214 q 1166 215 1167 214 l 1166 216 l 1166 218 q 1162 223 1165 223 q 1163 215 1164 220 q 1160 215 1162 210 q 1160 220 1160 218 l 1161 222 l 1162 224 q 1162 233 1163 229 q 1157 237 1156 231 l 1158 240 q 1158 242 1158 241 q 1156 243 1158 243 q 1154 239 1156 242 l 1154 235 l 1153 232 q 1149 227 1152 224 q 1149 231 1149 229 l 1151 233 l 1152 235 q 1149 240 1154 239 q 1147 236 1148 239 l 1146 234 l 1145 231 q 1139 224 1143 226 q 1143 237 1141 229 l 1145 244 l 1147 251 q 1158 274 1151 267 q 1164 266 1160 271 l 1169 262 l 1174 258 q 1182 242 1185 250 q 1177 248 1182 245 q 1172 246 1172 250 m 898 522 q 903 528 904 523 q 918 531 915 528 q 908 523 915 525 q 903 522 905 522 q 898 522 900 522 m 1095 315 q 1098 320 1096 316 l 1099 323 l 1101 327 q 1109 331 1105 335 q 1105 326 1107 330 l 1104 323 l 1102 319 q 1095 315 1099 311 m 787 549 l 787 552 l 789 555 q 793 557 791 557 q 798 556 796 559 q 793 553 796 556 l 790 551 l 787 549 m 1162 539 q 1164 538 1163 538 l 1168 537 q 1175 535 1172 536 q 1177 527 1182 531 q 1169 533 1175 529 l 1165 536 q 1162 539 1163 537 m 1167 526 q 1155 529 1160 526 q 1151 532 1153 530 l 1148 534 l 1146 536 q 1167 526 1159 533 m 1105 423 q 1107 420 1105 422 l 1108 418 l 1109 416 q 1114 403 1113 410 q 1114 400 1114 401 q 1112 399 1113 399 q 1112 399 1112 399 q 1111 403 1111 401 q 1109 410 1110 406 l 1106 416 q 1102 429 1103 425 q 1105 423 1101 433 m 951 414 q 946 396 942 410 l 947 390 q 949 385 948 387 q 947 375 949 378 q 944 391 946 380 l 943 398 q 941 406 942 403 q 942 408 942 406 l 943 409 q 946 413 945 412 q 951 414 950 418 m 935 390 q 932 393 932 391 q 934 397 932 395 q 937 399 935 399 q 939 398 939 400 q 937 394 937 398 l 937 393 l 936 391 q 935 390 935 391 m 1183 393 q 1185 395 1185 393 q 1186 397 1186 395 l 1186 399 q 1191 401 1185 404 q 1190 397 1191 399 q 1188 393 1190 395 q 1185 392 1186 392 q 1183 393 1183 391 m 1120 385 q 1122 379 1120 383 l 1124 376 l 1125 372 q 1126 360 1129 364 q 1123 361 1125 363 l 1122 361 l 1122 361 q 1120 362 1121 361 q 1123 368 1124 364 q 1121 375 1123 371 l 1120 378 q 1118 382 1119 380 q 1120 385 1118 385 m 1069 376 q 1072 370 1072 370 q 1076 373 1074 369 l 1076 370 l 1076 367 q 1077 359 1076 362 q 1076 339 1077 348 q 1064 306 1074 315 q 1061 321 1064 313 q 1055 335 1059 327 q 1048 359 1048 352 q 1055 352 1052 355 l 1056 351 l 1058 349 q 1062 345 1060 347 q 1061 355 1061 350 q 1061 359 1061 357 l 1061 362 q 1061 380 1062 372 l 1062 375 l 1063 370 q 1069 363 1065 365 q 1069 367 1070 365 l 1068 369 l 1067 370 q 1069 376 1065 374 m 1030 369 q 1023 342 1029 353 q 1030 369 1023 357 m 1126 357 q 1137 340 1133 353 q 1138 319 1141 328 q 1135 329 1137 323 l 1132 338 q 1126 357 1128 351 m 910 348 q 909 335 911 342 q 906 330 908 327 l 907 335 q 907 340 907 338 q 910 348 908 345 m 1044 336 q 1061 315 1055 332 q 1057 290 1067 296 q 1056 313 1063 304 q 1055 308 1055 311 l 1057 306 l 1057 304 q 1057 298 1060 299 q 1055 309 1055 302 l 1054 314 l 1053 319 q 1044 336 1051 330 m 1022 330 q 1027 328 1023 327 q 1031 319 1029 324 l 1034 315 l 1036 310 q 1046 291 1043 298 q 1040 256 1055 269 q 1038 263 1038 258 l 1038 267 l 1038 269 l 1038 271 q 1038 275 1038 275 q 1034 274 1037 277 q 1036 286 1037 279 l 1035 288 l 1035 291 q 1036 297 1035 294 q 1034 296 1035 297 l 1034 296 l 1033 296 q 1031 297 1031 295 q 1034 300 1034 297 q 1036 302 1034 302 q 1044 287 1038 292 l 1043 290 l 1042 293 q 1039 299 1040 296 q 1033 312 1036 307 q 1017 319 1024 326 q 1022 330 1017 328 m 979 315 q 979 319 977 317 q 983 320 981 320 q 987 319 986 320 q 986 318 989 319 q 984 317 985 318 l 983 316 q 979 315 981 315 m 1145 258 q 1144 250 1146 255 q 1141 250 1142 245 q 1145 258 1143 256 m 1002 190 q 1010 178 1010 192 q 1006 178 1008 179 l 1005 177 l 1004 176 q 1000 177 1000 174 q 1002 182 1003 178 q 1001 184 1001 182 q 1002 185 1000 184 q 1004 184 1004 182 l 1004 185 l 1003 186 q 1002 190 1002 189 m 1009 494 q 1010 503 1005 498 l 1013 505 l 1015 507 q 1019 512 1018 510 q 1030 510 1025 510 q 1035 511 1032 511 l 1040 512 q 1060 506 1050 514 q 1027 490 1046 500 q 998 475 1007 481 q 995 475 996 475 q 993 475 994 474 q 989 475 990 475 q 987 473 988 474 l 987 471 l 987 470 q 982 467 985 467 q 982 468 982 467 l 982 469 l 981 470 q 979 472 981 473 q 979 469 979 472 l 978 467 l 977 465 q 970 464 974 458 q 970 474 970 468 l 968 479 l 968 484 q 968 500 964 495 q 970 493 969 497 l 971 489 l 972 486 q 979 474 975 477 q 979 480 979 477 l 977 484 l 977 486 q 979 497 974 494 q 989 477 982 485 l 987 484 l 985 490 q 981 503 983 498 q 991 496 987 503 l 994 493 q 996 490 994 492 q 1002 488 998 488 q 1001 492 1002 490 l 999 494 l 998 496 q 999 503 994 500 l 999 503 l 1000 502 l 1001 500 q 1004 495 1002 496 q 1009 494 1008 490 m 965 453 q 962 454 964 457 l 961 452 l 960 451 q 958 450 958 450 q 958 461 958 455 l 956 467 l 955 471 q 956 489 952 484 q 959 480 956 486 l 962 476 l 964 472 q 965 453 969 461 m 484 1057 q 488 1046 496 1053 q 479 1040 485 1042 q 471 1036 475 1037 q 477 1046 473 1041 l 481 1052 q 484 1057 483 1055 m 438 994 q 434 996 437 995 l 431 997 l 429 998 q 425 1006 423 1000 q 429 1004 427 1005 l 432 1003 l 434 1002 q 438 994 439 1000 m 656 989 l 654 987 l 652 984 q 648 979 650 981 q 635 972 643 973 l 637 975 l 639 979 q 643 984 642 982 q 656 989 648 989 m 686 943 q 695 947 690 947 q 701 945 699 947 q 699 941 702 941 q 686 943 694 940 m 652 926 q 644 922 649 922 q 639 924 641 922 q 640 927 637 926 q 652 926 643 928 m 370 880 q 363 876 371 875 l 359 876 l 355 876 q 349 876 351 877 q 357 881 349 882 l 361 880 l 365 880 q 370 880 369 880 m 1005 872 q 1012 876 1006 878 q 1017 874 1015 876 l 1020 873 l 1021 873 l 1021 872 l 1022 871 q 1015 869 1020 865 l 1013 871 q 1010 872 1012 871 q 1005 872 1008 873 m 400 867 q 390 863 399 862 l 386 863 l 382 864 q 375 863 377 864 q 385 868 375 869 l 389 867 l 393 867 q 400 867 397 867 m 396 855 q 406 860 396 861 l 410 859 l 414 859 q 421 859 418 859 q 409 852 416 854 q 396 855 400 850 m 564 846 l 563 844 l 562 842 q 558 838 559 840 q 547 834 554 833 l 549 836 l 550 839 q 553 843 551 842 q 564 846 557 847 m 581 846 l 578 844 l 576 840 q 572 835 574 837 q 555 830 566 829 l 557 833 l 559 836 q 564 842 562 840 q 581 846 570 848 m 429 838 q 436 842 430 842 l 439 842 l 441 842 q 446 842 445 842 l 446 834 q 442 830 442 835 q 439 833 441 831 l 438 834 l 437 836 q 429 838 434 839 m 454 838 q 459 836 458 839 q 460 830 460 833 q 456 825 459 827 q 450 825 454 823 l 450 834 q 454 838 454 833 m 459 792 q 429 794 445 790 l 424 796 l 418 798 q 404 800 410 800 q 417 817 406 811 q 422 819 420 818 l 428 821 q 438 825 435 824 q 450 817 441 817 l 450 814 l 450 812 q 450 806 451 808 q 446 800 450 801 q 452 800 447 794 q 456 804 454 802 q 459 809 458 807 q 462 802 466 807 l 460 800 q 459 798 459 799 q 459 792 458 795 m 581 800 q 584 808 579 806 q 588 808 585 808 l 591 809 l 593 809 q 581 800 590 800 m 522 763 l 513 763 q 509 767 514 766 q 526 775 511 777 q 522 763 522 768 m 345 628 l 345 637 l 354 637 l 354 628 l 345 628 m 568 616 q 570 618 569 618 q 571 616 570 618 q 572 612 572 614 q 572 607 572 609 q 571 604 572 604 q 569 606 570 604 q 568 610 568 608 q 568 616 568 614 m 741 599 q 745 593 745 607 q 745 588 745 591 l 745 582 q 745 574 745 575 q 741 578 741 566 q 740 585 740 581 l 741 590 q 741 599 741 597 m 749 582 q 753 576 753 590 q 753 571 753 574 l 753 566 q 753 557 753 558 q 749 562 749 549 q 749 568 749 564 l 749 573 q 749 582 749 581 m 589 557 q 581 582 579 562 q 589 557 589 575 m 656 578 q 650 574 653 573 q 646 578 647 575 q 648 582 646 581 q 656 578 650 583 m 766 536 q 761 543 762 528 q 762 549 761 545 l 762 555 q 762 565 762 563 q 766 558 766 572 q 766 551 766 555 l 766 545 q 766 536 766 538 m 484 519 q 473 533 479 522 l 471 537 l 469 541 q 463 548 466 546 q 477 543 469 554 q 484 519 486 531 m 593 536 q 602 523 600 533 q 602 513 602 519 l 602 507 l 602 502 q 596 517 597 507 l 595 522 l 595 527 q 593 536 594 532 m 572 460 q 574 437 578 452 q 559 418 569 420 q 564 441 559 429 l 566 446 l 568 450 q 572 460 571 456 m 618 275 l 618 283 l 627 283 l 627 275 l 618 275 m 1021 872 l 1022 872 l 1022 871 l 1021 872 m 997 876 q 987 880 993 876 l 983 883 l 979 886 q 963 888 968 895 q 972 885 967 888 l 977 882 l 981 878 q 997 876 992 871 m 951 905 l 954 905 l 954 905 l 956 905 l 958 905 l 960 905 l 961 905 l 962 904 l 964 904 l 966 903 l 967 903 l 968 903 l 970 903 l 972 903 l 973 902 l 976 901 l 977 901 l 979 901 l 981 901 l 982 900 l 983 899 l 985 899 l 986 899 l 987 898 l 989 898 l 990 897 l 992 897 l 993 897 q 999 894 996 895 l 1000 893 l 1001 892 l 1002 892 l 1004 891 l 1004 890 l 1006 890 l 1006 889 l 1008 888 l 1008 888 l 1010 887 l 1010 887 q 1017 881 1014 884 l 1017 881 l 1017 880 l 1018 879 l 1019 878 l 1019 878 l 1020 876 l 1020 876 l 1021 874 l 1021 873 l 1021 872 l 1021 873 l 1020 873 l 1017 874 q 1012 876 1015 876 q 1005 872 1006 878 q 1010 872 1008 873 q 1013 871 1012 871 l 1015 869 q 1022 871 1020 865 l 1022 869 l 1022 869 l 1022 867 l 1022 865 l 1022 863 q 1028 859 1023 861 l 1031 856 q 1035 852 1034 854 q 1034 838 1042 846 q 1027 846 1031 842 l 1022 850 l 1017 853 q 1001 867 1006 861 q 998 861 1000 864 q 996 859 997 860 q 993 858 994 859 q 990 857 991 857 q 993 855 990 856 q 975 866 985 851 l 971 872 l 967 879 q 959 888 962 886 q 951 876 954 885 q 939 890 942 876 l 938 895 q 937 900 937 898 q 930 905 934 905 q 942 899 939 911 q 943 895 943 897 l 944 889 q 946 880 945 882 q 949 890 950 884 l 949 893 q 949 897 949 895 q 951 905 949 901 m 85 439 q 101 470 83 452 q 117 485 106 475 l 121 488 l 124 492 q 131 498 128 495 q 137 453 135 482 l 138 441 l 138 429 q 140 406 138 414 q 132 420 137 404 q 127 448 127 436 q 122 433 121 446 l 123 428 l 123 423 q 123 414 123 417 q 118 419 119 406 q 118 425 118 421 l 119 431 q 119 439 119 437 l 115 431 l 111 422 q 115 410 115 421 l 115 406 l 114 401 q 114 393 113 395 q 110 405 109 394 l 110 409 l 111 414 q 110 422 111 419 q 93 372 96 393 q 88 406 83 382 q 93 425 90 414 l 94 429 l 96 433 q 98 439 97 437 l 95 437 q 92 436 93 437 q 89 431 90 434 q 86 432 86 429 q 87 435 86 433 q 87 438 87 436 q 89 443 89 442 q 85 439 88 444 m 408 435 q 413 422 409 428 l 415 420 l 417 418 q 421 414 420 416 q 418 408 420 411 l 417 406 l 415 403 q 412 389 412 397 q 415 391 414 389 l 416 393 l 418 395 q 421 393 420 397 q 425 389 420 389 q 423 385 425 385 q 422 386 422 385 l 420 387 q 417 380 415 390 q 407 400 408 387 l 406 406 l 406 412 q 404 422 406 418 q 382 406 395 418 l 378 401 l 372 397 q 362 389 367 392 q 364 391 362 389 q 368 395 366 393 q 376 407 374 403 q 376 412 380 412 q 358 397 372 410 q 376 418 357 406 q 393 427 383 422 q 408 435 400 431 m 396 410 q 393 405 404 415 q 368 382 383 395 q 351 368 353 368 q 370 389 349 368 q 382 399 372 391 q 396 410 392 407 m 358 347 q 371 375 353 359 l 378 381 q 385 388 382 385 q 396 401 393 395 q 416 364 407 390 l 419 353 l 422 342 q 429 321 426 330 q 419 332 423 323 l 418 336 l 416 340 q 412 347 414 344 q 409 338 406 345 l 410 334 l 412 332 q 412 326 414 328 q 406 333 410 320 l 405 338 q 404 344 404 342 q 400 351 402 349 q 397 349 397 351 q 398 345 397 347 l 399 344 l 399 342 q 391 334 403 332 q 393 319 390 326 l 395 316 q 395 313 395 314 q 396 304 397 309 q 392 304 393 296 q 391 317 391 312 q 387 309 387 317 l 387 307 q 386 304 386 305 q 383 300 385 301 q 378 317 378 303 l 379 322 l 379 328 q 379 338 380 334 q 370 326 374 334 q 376 345 367 332 q 384 355 379 349 q 391 363 388 359 q 374 350 385 366 l 370 343 l 366 336 q 358 326 361 329 q 361 340 353 330 l 366 344 l 369 348 q 375 355 374 353 q 366 356 374 361 q 358 347 358 351 m 421 410 q 429 398 427 404 q 430 393 431 394 q 426 395 429 391 q 421 410 423 399 m 804 825 q 795 825 800 825 q 786 826 790 825 q 770 838 774 829 q 795 834 775 833 q 804 825 793 827 m 471 498 q 485 492 478 504 l 488 486 l 490 480 q 496 473 494 475 q 484 479 490 466 l 481 485 l 477 490 q 471 498 475 496 m 997 876 q 981 878 992 871 l 977 882 l 972 885 q 963 888 967 888 q 979 886 968 895 l 983 883 l 987 880 q 997 876 993 876 m 370 834 q 358 823 367 830 q 345 813 349 817 q 350 827 338 820 q 361 831 354 829 q 366 833 363 832 q 370 834 368 833 m 396 830 l 393 827 l 389 824 q 382 819 385 821 q 362 813 373 812 q 396 830 375 825 m 463 616 q 463 610 463 612 q 460 609 462 608 q 459 611 460 609 q 459 616 458 613 q 465 636 459 627 l 467 640 l 469 643 q 471 649 471 647 q 475 658 477 665 q 470 638 475 652 q 466 627 467 631 q 463 616 464 621 m 732 582 q 730 597 728 587 q 732 606 730 601 l 732 611 l 734 616 q 734 633 736 627 q 724 645 732 642 q 732 644 726 651 q 737 637 734 642 q 739 635 738 636 q 741 632 740 633 q 738 620 739 627 l 737 613 l 736 607 q 732 582 734 590 m 745 620 q 748 623 745 623 q 753 618 751 622 q 756 612 756 615 q 753 607 757 609 q 750 610 751 608 q 749 612 750 610 l 749 614 q 745 620 748 620 m 345 595 q 342 591 345 591 q 338 594 340 592 q 334 600 335 597 q 333 607 332 604 q 341 603 341 610 l 341 600 q 341 597 341 597 q 345 595 342 594 m 450 586 q 452 580 454 585 q 450 575 452 578 l 450 572 l 448 570 q 446 557 446 562 q 450 548 446 551 q 449 546 450 546 q 448 546 448 546 l 446 547 q 442 544 443 548 q 441 564 436 550 l 444 570 l 447 576 q 450 586 450 583 m 568 548 q 559 509 570 536 q 550 486 553 494 q 547 460 547 472 q 525 514 530 474 q 522 545 523 528 q 522 559 522 551 l 522 562 l 522 564 q 522 569 522 568 q 529 564 527 562 q 534 574 530 564 q 539 570 538 572 q 537 566 539 569 l 535 563 q 534 559 534 561 q 534 553 532 556 q 543 566 540 556 q 545 574 544 568 l 546 578 l 547 582 q 547 553 546 568 l 547 547 q 548 540 547 543 q 547 523 548 532 q 554 531 551 528 q 557 534 555 532 l 559 536 q 568 548 564 541 m 597 565 q 610 523 610 546 q 597 565 601 541 m 425 477 q 425 511 419 490 q 442 540 431 531 q 434 508 439 528 l 429 493 q 425 477 427 484 m 802 519 l 804 511 q 798 518 801 505 q 795 540 795 530 q 801 527 799 536 q 802 519 802 524 m 559 473 q 553 454 552 464 q 559 435 554 446 q 549 450 551 439 q 552 474 548 460 q 562 497 555 487 q 576 511 570 507 q 564 481 566 499 q 562 473 563 478 l 562 465 q 559 448 561 454 q 555 451 556 449 q 557 457 555 453 l 558 458 l 559 460 q 561 464 560 463 q 559 473 562 469 m 597 410 q 592 412 593 414 q 591 404 591 410 l 591 401 l 592 398 q 592 392 592 395 q 589 380 592 385 q 577 437 564 399 q 591 469 581 448 l 595 476 l 600 484 q 606 498 604 492 q 614 502 613 497 q 623 486 622 498 q 597 472 610 495 q 588 451 593 464 q 584 440 587 446 l 583 435 q 581 431 581 433 q 593 456 591 439 q 597 452 597 456 q 602 448 597 448 q 599 446 601 444 l 597 446 l 596 447 q 593 448 595 448 q 596 437 595 443 q 595 433 596 435 l 595 429 q 597 410 593 418 m 673 486 q 671 488 669 486 q 677 489 673 489 q 685 488 682 489 q 686 481 688 485 q 679 483 682 480 l 677 484 l 676 484 q 673 486 675 485 m 417 376 q 425 363 422 372 q 420 363 424 356 q 417 376 416 371 m 656 262 q 661 254 655 256 q 659 250 660 250 q 655 252 658 250 l 654 253 l 653 254 q 650 255 652 255 q 644 254 647 256 q 645 270 643 265 q 656 275 648 277 q 656 269 656 273 l 654 267 l 654 266 l 654 264 q 656 267 653 262 q 659 264 660 267 q 656 262 659 262 m 656 742 q 651 741 656 742 q 648 741 649 741 q 644 742 646 741 q 538 788 600 764 q 572 799 553 802 l 576 798 l 579 798 q 587 797 584 797 q 606 800 597 796 q 612 793 607 797 l 616 790 l 620 787 q 623 771 629 779 q 632 774 626 765 q 636 781 634 777 q 638 785 637 783 l 639 787 l 640 788 q 642 776 648 783 l 639 773 q 637 770 637 771 q 635 763 634 766 q 646 767 642 763 q 649 771 647 768 l 652 776 q 669 788 659 788 q 662 768 665 781 l 659 757 l 656 746 q 673 779 668 759 q 677 762 680 774 l 675 756 l 674 751 q 673 742 673 745 q 684 760 681 745 l 685 766 l 686 772 q 690 783 688 779 q 692 758 696 777 l 691 753 l 690 750 q 689 742 689 745 q 690 725 688 732 q 678 726 684 716 q 676 730 677 728 q 675 733 675 731 q 673 737 673 737 q 670 734 671 739 l 669 732 l 669 730 q 669 729 669 729 q 662 734 664 729 l 661 736 l 660 738 q 656 742 659 741 m 699 708 q 699 739 690 720 l 702 746 l 706 753 q 711 767 710 762 q 713 739 718 758 l 712 734 l 711 730 q 710 722 711 726 q 711 704 709 712 q 707 705 709 703 l 705 707 l 703 709 q 699 708 700 715 m 924 -43 l 924 -43 l 924 -43 l 924 -43 "},"^":{"ha":1257,"x_min":27,"x_max":1213,"o":"m 191 328 l 199 329 q 362 325 265 336 q 243 301 288 317 q 578 256 389 253 q 747 264 648 256 q 789 268 765 266 l 831 272 q 917 279 888 277 q 940 281 924 279 l 947 282 l 954 283 q 968 284 962 283 q 1033 288 1006 288 q 1135 252 1114 288 q 1138 249 1136 252 q 895 243 1046 245 q 542 243 702 241 q 88 294 86 250 q 139 321 106 313 q 169 326 151 323 q 184 327 174 326 l 191 328 m 285 130 q 191 138 247 132 l 168 141 l 145 144 q 98 149 116 148 q 64 155 75 152 q 48 166 53 159 q 41 186 44 172 q 39 201 41 190 q 37 210 38 207 q 36 220 37 216 q 303 219 137 228 l 336 217 l 370 216 q 437 212 412 213 q 571 208 515 208 q 704 211 627 208 l 770 214 l 837 216 q 1103 216 1000 222 q 888 194 1008 203 q 780 188 841 191 l 726 184 l 672 182 q 455 169 532 175 q 239 144 336 159 q 285 130 260 137 m 938 4 q 1036 17 1000 16 q 1063 16 1047 17 l 1077 15 l 1091 14 q 1057 -27 1076 -8 q 1033 -26 1046 -27 q 1027 -26 1030 -26 l 1025 -26 l 1023 -26 q 1017 -26 1019 -26 q 905 -21 968 -25 q 848 -17 882 -20 l 792 -13 q 850 -12 824 -14 q 920 0 876 -9 q 938 4 930 1 m 159 375 q 103 373 146 376 l 94 372 l 85 372 q 66 370 74 371 q 27 368 44 368 q 84 585 35 482 q 213 762 132 685 q 397 880 294 838 q 620 922 504 922 q 850 876 741 922 q 1039 749 957 831 q 1166 561 1121 667 q 1213 330 1213 451 l 1202 330 l 1197 330 l 1192 329 q 1171 328 1179 328 q 1057 331 1133 328 l 1001 332 q 944 334 969 333 q 886 334 920 334 l 829 335 q 715 336 758 336 q 637 345 684 341 l 617 347 l 597 348 q 559 351 574 350 q 459 358 515 355 q 409 361 437 359 l 359 363 q 159 375 227 369 m 628 80 q 686 76 654 78 l 716 75 l 745 73 q 858 66 821 68 q 1004 62 910 62 l 1040 62 l 1076 62 q 1149 60 1118 61 l 1143 49 q 1036 24 1102 31 q 979 20 1010 20 q 927 18 958 18 q 819 21 882 18 l 791 22 l 764 24 q 711 26 730 26 q 494 21 580 33 q 431 28 471 24 l 399 31 l 368 35 q 239 47 292 43 q 97 47 189 51 q 77 88 86 66 l 121 86 l 166 83 q 256 80 220 81 q 628 80 398 77 m 1111 178 q 1173 155 1174 168 q 1119 125 1172 142 q 1066 122 1113 125 q 1026 120 1043 121 q 985 119 1003 119 q 895 144 880 119 q 945 146 912 150 l 959 144 q 972 143 967 143 q 998 143 987 142 q 984 150 987 149 q 966 151 979 151 q 891 156 950 161 q 834 151 869 155 l 819 149 l 804 146 q 774 143 785 144 q 667 136 700 134 q 622 161 620 138 q 669 163 646 163 l 684 165 q 790 166 729 162 q 844 171 812 168 l 871 174 l 898 176 q 1006 184 966 182 q 1111 178 1065 186 "},"_":{"ha":488,"x_min":48,"x_max":439,"o":"m 62 -189 l 48 -1 l 426 20 l 439 -189 l 62 -189 "},"`":{"ha":338,"x_min":29,"x_max":308,"o":"m 238 1019 l 308 773 l 209 749 l 29 955 l 238 1019 "},"a":{"ha":704,"x_min":-22,"x_max":716,"o":"m 427 235 l 469 467 l 239 517 l 193 314 l 427 235 m 716 116 l 500 23 l 497 85 q 382 5 446 31 q 249 -13 317 -22 q 136 32 188 -5 q 52 124 86 67 q -1 396 -22 243 q 124 644 21 549 q 231 710 173 689 q 353 723 291 731 q 513 636 445 710 l 647 648 l 716 116 "},"b":{"ha":684,"x_min":5,"x_max":705,"o":"m 450 182 l 463 468 l 274 453 l 283 179 l 450 182 m 692 333 q 627 73 705 187 q 426 -59 549 -42 q 230 -4 319 -74 l 115 -35 l 5 849 l 247 954 l 256 604 q 366 645 308 637 q 484 633 426 653 q 585 570 539 614 q 692 333 680 479 "},"c":{"ha":684,"x_min":4,"x_max":682,"o":"m 301 467 l 676 519 q 539 668 627 610 q 345 733 449 727 q 208 713 273 737 q 99 644 146 690 q 28 535 52 597 q 8 399 4 471 q 127 143 16 252 q 385 25 237 33 q 561 63 481 20 q 682 181 638 104 l 334 211 l 301 467 "},"d":{"ha":675,"x_min":-22,"x_max":679,"o":"m 220 514 l 234 228 l 401 225 l 409 499 l 220 514 m 258 -13 q 56 119 134 4 q -9 379 -22 233 q 99 616 3 525 q 200 679 144 660 q 318 691 258 699 q 427 650 376 683 l 437 1000 l 679 895 l 569 11 l 454 42 q 258 -13 364 -28 "},"e":{"ha":689,"x_min":4,"x_max":682,"o":"m 465 496 l 294 510 l 307 397 l 465 496 m 334 171 l 682 141 q 561 23 638 64 q 385 -15 481 -20 q 126 103 237 -7 q 8 359 16 212 q 28 495 4 431 q 99 604 52 557 q 208 673 145 650 q 345 693 273 697 q 538 628 449 687 q 675 479 627 570 l 321 272 l 334 171 "},"f":{"ha":568,"x_min":-4,"x_max":695,"o":"m 513 1065 q 695 964 568 1050 l 594 729 q 530 808 568 771 q 467 853 498 841 q 397 855 429 870 q 348 587 376 828 l 484 580 l 471 416 l 332 429 q 296 -45 313 229 l 37 -22 l 83 451 l -3 459 l -4 595 l 1 604 l 98 599 l 115 758 q 184 958 128 865 q 306 1069 234 1038 q 513 1065 395 1107 "},"g":{"ha":784,"x_min":8,"x_max":767,"o":"m 429 244 l 463 542 l 236 544 l 229 258 l 429 244 m 767 662 l 729 74 q 722 1 730 44 q 652 -157 703 -87 q 45 -351 486 -382 l 69 -130 q 244 -152 151 -157 q 384 -114 326 -148 q 486 15 456 -71 q 385 -5 437 -3 q 245 19 313 -7 q 129 94 180 45 q 14 351 20 198 q 109 617 8 505 q 357 735 209 730 q 591 656 488 741 l 767 662 "},"h":{"ha":736,"x_min":22,"x_max":723,"o":"m 298 657 l 298 657 q 539 629 441 663 q 666 550 618 601 q 715 469 700 513 q 723 431 722 446 l 707 -2 l 470 31 l 469 70 l 469 155 q 467 241 468 206 l 466 279 l 465 318 l 465 330 l 465 342 q 463 365 464 355 q 444 408 458 391 q 375 429 411 444 q 336 393 351 420 q 325 341 324 369 q 336 -7 325 338 l 323 -7 l 323 -9 l 56 -16 l 22 907 l 287 939 l 298 657 "},"i":{"ha":357,"x_min":24,"x_max":322,"o":"m 24 549 l 75 26 l 300 -2 l 322 591 l 24 549 m 45 661 l 42 861 l 286 854 l 308 690 l 45 661 "},"j":{"ha":357,"x_min":-318,"x_max":310,"o":"m -287 -179 l -318 -399 q -13 -378 -140 -433 q 153 -235 89 -334 q 197 -151 178 -197 q 222 -75 212 -114 q 236 2 234 -29 l 294 588 l 59 589 l 17 71 q -146 -204 -2 -180 q -199 -205 -171 -209 q -243 -196 -220 -203 q -287 -179 -269 -189 m 58 688 l 65 956 l 310 918 l 297 698 l 58 688 "},"k":{"ha":692,"x_min":5,"x_max":711,"o":"m 711 256 l 587 60 l 354 133 l 362 26 l 125 -16 l 5 970 l 254 976 l 320 544 l 422 699 l 625 618 l 399 373 l 711 256 "},"l":{"ha":376,"x_min":22,"x_max":355,"o":"m 74 -16 l 343 40 l 355 937 l 22 909 l 74 -16 "},"m":{"ha":1022,"x_min":28,"x_max":1034,"o":"m 1034 116 l 828 61 q 816 319 834 211 q 765 425 800 413 q 654 324 722 439 q 656 34 660 153 l 456 15 q 452 199 455 104 q 446 333 450 281 q 436 410 441 397 q 369 437 416 455 q 330 414 351 429 q 300 385 314 400 q 264 313 275 355 q 257 273 260 296 q 254 252 256 264 l 252 231 l 256 -16 l 28 18 l 37 739 l 244 727 l 245 642 q 410 734 336 713 q 572 699 510 764 q 612 637 597 673 q 733 710 672 696 q 886 669 810 727 q 954 551 919 636 q 1034 116 1024 381 "},"n":{"ha":816,"x_min":25,"x_max":803,"o":"m 791 404 q 798 34 803 170 l 551 15 q 546 199 550 104 q 538 333 543 281 q 527 410 534 397 q 444 437 503 455 q 397 414 421 429 q 360 385 376 400 q 315 313 329 355 q 307 273 310 296 q 303 252 305 264 l 300 230 l 305 -16 l 25 18 l 29 689 l 290 727 l 292 642 q 494 734 402 713 q 694 699 618 764 q 772 562 750 651 q 785 483 781 528 q 789 443 787 465 q 791 404 789 429 "},"o":{"ha":695,"x_min":-31,"x_max":720,"o":"m 406 507 l 185 471 l 223 207 l 420 229 l 406 507 m -1 256 q 50 516 -31 396 q 273 667 130 636 q 538 620 416 697 q 690 404 661 543 q 640 144 720 264 q 416 -7 559 24 q 151 40 273 -37 q -1 256 28 117 "},"p":{"ha":728,"x_min":-31,"x_max":753,"o":"m 488 195 l 538 463 l 243 438 l 232 224 l 488 195 m 415 676 q 550 642 486 673 q 659 564 612 614 q 729 453 705 515 q 749 320 753 389 q 715 190 746 251 q 634 86 686 131 q 380 0 526 -7 q 222 45 296 4 l 209 -217 l -31 -198 l 97 707 l 258 715 l 254 648 q 415 676 331 680 "},"q":{"ha":759,"x_min":4,"x_max":782,"o":"m 253 249 l 507 278 l 487 478 l 225 425 l 253 249 m 782 -165 l 510 -155 l 509 112 q 353 66 437 71 q 224 84 286 62 q 115 147 163 105 q 39 245 67 189 q 7 366 10 302 q 27 492 4 431 q 92 595 49 549 q 321 701 184 694 q 505 657 420 706 l 505 693 l 656 688 l 782 -165 "},"r":{"ha":612,"x_min":16,"x_max":611,"o":"m 247 666 l 258 594 q 403 688 326 664 q 611 673 503 720 l 570 412 q 469 455 526 442 q 290 396 354 482 l 349 16 l 64 -16 l 16 647 l 247 666 "}}}
